<svg width="172" height="46" viewBox="0 0 172 46" fill="none" xmlns="http://www.w3.org/2000/svg">
<path d="M46.7952 44.2886L44.8999 36.8769H46.0328L47.4199 42.3139L48.8016 36.8769H49.8022L51.1893 42.3139L52.5763 36.8769H53.7092L51.8245 44.2886H50.5593L49.3046 39.381L48.0499 44.2886H46.7952ZM56.6006 44.4262C56.1136 44.4262 55.6689 44.3009 55.2665 44.0503C54.8677 43.7998 54.5483 43.4645 54.3083 43.0445C54.0718 42.6209 53.9536 42.1533 53.9536 41.6415C53.9536 41.2533 54.0224 40.8915 54.1601 40.5562C54.2977 40.2174 54.4865 39.921 54.7265 39.6668C54.9701 39.4092 55.2524 39.208 55.5736 39.0633C55.8948 38.9186 56.2371 38.8463 56.6006 38.8463C57.0877 38.8463 57.5306 38.9716 57.9294 39.2221C58.3318 39.4727 58.6512 39.8098 58.8877 40.2333C59.1277 40.6568 59.2477 41.1262 59.2477 41.6415C59.2477 42.0262 59.1788 42.3862 59.0412 42.7215C58.9036 43.0568 58.713 43.3533 58.4694 43.6109C58.2294 43.865 57.9489 44.0645 57.6277 44.2092C57.31 44.3539 56.9677 44.4262 56.6006 44.4262ZM56.6006 43.3251C56.8936 43.3251 57.1565 43.2474 57.3894 43.0921C57.6224 42.9368 57.8059 42.7321 57.94 42.478C58.0777 42.2204 58.1465 41.9415 58.1465 41.6415C58.1465 41.3345 58.0759 41.0521 57.9347 40.7945C57.7971 40.5368 57.6118 40.3321 57.3789 40.1804C57.1459 40.0251 56.8865 39.9474 56.6006 39.9474C56.3112 39.9474 56.0483 40.0251 55.8118 40.1804C55.5789 40.3357 55.3936 40.5421 55.2559 40.7998C55.1218 41.0574 55.0548 41.338 55.0548 41.6415C55.0548 41.9556 55.1253 42.2398 55.2665 42.4939C55.4077 42.748 55.5948 42.9509 55.8277 43.1027C56.0642 43.2509 56.3218 43.3251 56.6006 43.3251ZM62.7397 44.4262C62.2526 44.4262 61.8079 44.3009 61.4056 44.0503C61.0068 43.7998 60.6874 43.4645 60.4474 43.0445C60.2109 42.6209 60.0927 42.1533 60.0927 41.6415C60.0927 41.2533 60.1615 40.8915 60.2991 40.5562C60.4368 40.2174 60.6256 39.921 60.8656 39.6668C61.1091 39.4092 61.3915 39.208 61.7126 39.0633C62.0338 38.9186 62.3762 38.8463 62.7397 38.8463C63.2268 38.8463 63.6697 38.9716 64.0685 39.2221C64.4709 39.4727 64.7903 39.8098 65.0267 40.2333C65.2667 40.6568 65.3867 41.1262 65.3867 41.6415C65.3867 42.0262 65.3179 42.3862 65.1803 42.7215C65.0426 43.0568 64.852 43.3533 64.6085 43.6109C64.3685 43.865 64.0879 44.0645 63.7668 44.2092C63.4491 44.3539 63.1068 44.4262 62.7397 44.4262ZM62.7397 43.3251C63.0326 43.3251 63.2956 43.2474 63.5285 43.0921C63.7615 42.9368 63.945 42.7321 64.0791 42.478C64.2167 42.2204 64.2856 41.9415 64.2856 41.6415C64.2856 41.3345 64.215 41.0521 64.0738 40.7945C63.9362 40.5368 63.7509 40.3321 63.5179 40.1804C63.285 40.0251 63.0256 39.9474 62.7397 39.9474C62.4503 39.9474 62.1873 40.0251 61.9509 40.1804C61.7179 40.3357 61.5326 40.5421 61.395 40.7998C61.2609 41.0574 61.1938 41.338 61.1938 41.6415C61.1938 41.9556 61.2644 42.2398 61.4056 42.4939C61.5468 42.748 61.7338 42.9509 61.9668 43.1027C62.2032 43.2509 62.4609 43.3251 62.7397 43.3251ZM70.0833 44.4262C69.5822 44.4262 69.111 44.3274 68.6698 44.1298C68.2286 43.9286 67.8404 43.6533 67.5051 43.3039C67.1734 42.9509 66.9122 42.5415 66.7216 42.0756C66.5345 41.6098 66.441 41.1121 66.441 40.5827C66.441 40.0533 66.5345 39.5557 66.7216 39.0898C66.9122 38.6239 67.1734 38.2163 67.5051 37.8669C67.8404 37.5139 68.2286 37.2386 68.6698 37.041C69.111 36.8398 69.5822 36.7392 70.0833 36.7392C70.6833 36.7392 71.2357 36.8786 71.7404 37.1574C72.2451 37.4363 72.6633 37.8069 72.9951 38.2692L72.0157 38.7933C71.7863 38.5039 71.5022 38.2727 71.1633 38.0998C70.8245 37.9269 70.4645 37.8404 70.0833 37.8404C69.7304 37.8404 69.4004 37.9127 69.0933 38.0574C68.7863 38.2021 68.5163 38.3998 68.2833 38.6504C68.0504 38.901 67.8686 39.1921 67.7381 39.5239C67.6075 39.8557 67.5422 40.2086 67.5422 40.5827C67.5422 40.9604 67.6075 41.3151 67.7381 41.6468C67.8686 41.9751 68.0504 42.2662 68.2833 42.5204C68.5198 42.7709 68.7916 42.9686 69.0986 43.1133C69.4057 43.2545 69.7339 43.3251 70.0833 43.3251C70.4716 43.3251 70.8333 43.2386 71.1686 43.0656C71.5074 42.8892 71.7898 42.6562 72.0157 42.3668L72.9951 42.9015C72.6633 43.3639 72.2451 43.7345 71.7404 44.0133C71.2357 44.2886 70.6833 44.4262 70.0833 44.4262ZM76.3931 44.4262C75.906 44.4262 75.4613 44.3009 75.0589 44.0503C74.6601 43.7998 74.3407 43.4645 74.1007 43.0445C73.8642 42.6209 73.746 42.1533 73.746 41.6415C73.746 41.2533 73.8148 40.8915 73.9525 40.5562C74.0901 40.2174 74.279 39.921 74.5189 39.6668C74.7625 39.4092 75.0448 39.208 75.366 39.0633C75.6872 38.9186 76.0295 38.8463 76.3931 38.8463C76.8801 38.8463 77.323 38.9716 77.7219 39.2221C78.1242 39.4727 78.4436 39.8098 78.6801 40.2333C78.9201 40.6568 79.0401 41.1262 79.0401 41.6415C79.0401 42.0262 78.9713 42.3862 78.8336 42.7215C78.696 43.0568 78.5054 43.3533 78.2619 43.6109C78.0219 43.865 77.7413 44.0645 77.4201 44.2092C77.1025 44.3539 76.7601 44.4262 76.3931 44.4262ZM76.3931 43.3251C76.686 43.3251 76.9489 43.2474 77.1819 43.0921C77.4148 42.9368 77.5983 42.7321 77.7325 42.478C77.8701 42.2204 77.9389 41.9415 77.9389 41.6415C77.9389 41.3345 77.8683 41.0521 77.7272 40.7945C77.5895 40.5368 77.4042 40.3321 77.1713 40.1804C76.9383 40.0251 76.6789 39.9474 76.3931 39.9474C76.1036 39.9474 75.8407 40.0251 75.6042 40.1804C75.3713 40.3357 75.186 40.5421 75.0484 40.7998C74.9142 41.0574 74.8472 41.338 74.8472 41.6415C74.8472 41.9556 74.9178 42.2398 75.0589 42.4939C75.2001 42.748 75.3872 42.9509 75.6201 43.1027C75.8566 43.2509 76.1142 43.3251 76.3931 43.3251ZM80.2131 44.2886V38.9945H81.3142V39.5557C81.4978 39.3368 81.7219 39.1639 81.9866 39.0368C82.2548 38.9098 82.5442 38.8463 82.8548 38.8463C83.2325 38.8463 83.5801 38.938 83.8977 39.1215C84.2154 39.3015 84.4677 39.5415 84.6548 39.8415C84.8419 39.5415 85.0907 39.3015 85.4013 39.1215C85.7154 38.938 86.0613 38.8463 86.4389 38.8463C86.8307 38.8463 87.1871 38.9416 87.5083 39.1321C87.8295 39.3227 88.0854 39.5786 88.276 39.8998C88.4665 40.221 88.5618 40.5774 88.5618 40.9692V44.2886H87.4607V41.2498C87.4607 41.0168 87.4042 40.8033 87.2913 40.6092C87.1783 40.4151 87.0265 40.258 86.836 40.138C86.6454 40.018 86.4336 39.958 86.2007 39.958C85.9677 39.958 85.756 40.0145 85.5654 40.1274C85.3748 40.2404 85.223 40.3939 85.1101 40.588C84.9971 40.7821 84.9407 41.0027 84.9407 41.2498V44.2886H83.8395V41.2498C83.8395 41.0027 83.783 40.7821 83.6701 40.588C83.5572 40.3939 83.4036 40.2404 83.2095 40.1274C83.0189 40.0145 82.8072 39.958 82.5742 39.958C82.3448 39.958 82.1331 40.018 81.9389 40.138C81.7483 40.258 81.5966 40.4151 81.4836 40.6092C81.3707 40.8033 81.3142 41.0168 81.3142 41.2498V44.2886H80.2131ZM89.9401 44.2886V38.9945H91.0413V39.5557C91.2248 39.3368 91.4489 39.1639 91.7136 39.0368C91.9819 38.9098 92.2713 38.8463 92.5819 38.8463C92.9595 38.8463 93.3072 38.938 93.6248 39.1215C93.9424 39.3015 94.1948 39.5415 94.3818 39.8415C94.5689 39.5415 94.8177 39.3015 95.1283 39.1215C95.4424 38.938 95.7883 38.8463 96.166 38.8463C96.5577 38.8463 96.9142 38.9416 97.2354 39.1321C97.5565 39.3227 97.8124 39.5786 98.003 39.8998C98.1936 40.221 98.2889 40.5774 98.2889 40.9692V44.2886H97.1877V41.2498C97.1877 41.0168 97.1312 40.8033 97.0183 40.6092C96.9054 40.4151 96.7536 40.258 96.563 40.138C96.3724 40.018 96.1607 39.958 95.9277 39.958C95.6948 39.958 95.483 40.0145 95.2924 40.1274C95.1018 40.2404 94.9501 40.3939 94.8371 40.588C94.7242 40.7821 94.6677 41.0027 94.6677 41.2498V44.2886H93.5666V41.2498C93.5666 41.0027 93.5101 40.7821 93.3972 40.588C93.2842 40.3939 93.1307 40.2404 92.9366 40.1274C92.746 40.0145 92.5342 39.958 92.3013 39.958C92.0719 39.958 91.8601 40.018 91.666 40.138C91.4754 40.258 91.3236 40.4151 91.2107 40.6092C91.0978 40.8033 91.0413 41.0168 91.0413 41.2498V44.2886H89.9401ZM101.893 44.4262C101.406 44.4262 100.961 44.3009 100.559 44.0503C100.16 43.7998 99.8408 43.4645 99.6008 43.0445C99.3644 42.6209 99.2461 42.1533 99.2461 41.6415C99.2461 41.2533 99.3149 40.8915 99.4526 40.5562C99.5902 40.2174 99.7791 39.921 100.019 39.6668C100.263 39.4092 100.545 39.208 100.866 39.0633C101.187 38.9186 101.53 38.8463 101.893 38.8463C102.299 38.8463 102.671 38.931 103.01 39.1004C103.349 39.2663 103.638 39.4974 103.878 39.7939C104.118 40.0868 104.295 40.4257 104.408 40.8104C104.521 41.1915 104.554 41.5974 104.508 42.028H100.427C100.473 42.2715 100.561 42.4921 100.691 42.6898C100.826 42.8839 100.995 43.0374 101.2 43.1503C101.408 43.2633 101.639 43.3215 101.893 43.3251C102.161 43.3251 102.405 43.258 102.624 43.1239C102.846 42.9898 103.028 42.8045 103.169 42.568L104.286 42.8274C104.074 43.2968 103.755 43.6815 103.328 43.9815C102.901 44.278 102.423 44.4262 101.893 44.4262ZM100.39 41.1862H103.397C103.361 40.9321 103.271 40.7027 103.127 40.498C102.986 40.2898 102.807 40.1257 102.592 40.0057C102.38 39.8821 102.147 39.8204 101.893 39.8204C101.643 39.8204 101.41 39.8804 101.194 40.0004C100.983 40.1204 100.806 40.2845 100.665 40.4927C100.527 40.6974 100.436 40.9286 100.39 41.1862ZM105.703 44.2886V38.9945H106.804V39.5557C106.988 39.3368 107.213 39.1639 107.482 39.0368C107.75 38.9098 108.039 38.8463 108.35 38.8463C108.548 38.8463 108.743 38.8727 108.938 38.9257L108.498 40.0374C108.36 39.9845 108.223 39.958 108.085 39.958C107.852 39.958 107.639 40.0162 107.445 40.1327C107.25 40.2457 107.095 40.3992 106.979 40.5933C106.862 40.7874 106.804 41.0027 106.804 41.2392V44.2886H105.703ZM113.076 42.7851L114.061 43.3198C113.821 43.655 113.515 43.9233 113.145 44.1245C112.778 44.3256 112.379 44.4262 111.948 44.4262C111.461 44.4262 111.016 44.3009 110.614 44.0503C110.215 43.7998 109.896 43.4645 109.656 43.0445C109.419 42.6209 109.301 42.1533 109.301 41.6415C109.301 41.2533 109.37 40.8915 109.508 40.5562C109.645 40.2174 109.834 39.921 110.074 39.6668C110.318 39.4092 110.6 39.208 110.921 39.0633C111.242 38.9186 111.585 38.8463 111.948 38.8463C112.379 38.8463 112.778 38.9468 113.145 39.148C113.515 39.3492 113.821 39.6192 114.061 39.958L113.076 40.4927C112.928 40.3162 112.755 40.1821 112.557 40.0904C112.359 39.9951 112.156 39.9474 111.948 39.9474C111.659 39.9474 111.396 40.0268 111.159 40.1857C110.926 40.341 110.741 40.5474 110.603 40.8051C110.469 41.0592 110.402 41.338 110.402 41.6415C110.402 41.9415 110.471 42.2204 110.609 42.478C110.746 42.7321 110.932 42.9368 111.165 43.0921C111.401 43.2474 111.662 43.3251 111.948 43.3251C112.167 43.3251 112.375 43.2756 112.573 43.1768C112.771 43.078 112.938 42.9474 113.076 42.7851ZM117.539 44.4262C117.052 44.4262 116.607 44.3009 116.205 44.0503C115.806 43.7998 115.487 43.4645 115.247 43.0445C115.01 42.6209 114.892 42.1533 114.892 41.6415C114.892 41.2533 114.961 40.8915 115.099 40.5562C115.236 40.2174 115.425 39.921 115.665 39.6668C115.909 39.4092 116.191 39.208 116.512 39.0633C116.833 38.9186 117.176 38.8463 117.539 38.8463C117.945 38.8463 118.317 38.931 118.656 39.1004C118.995 39.2663 119.285 39.4974 119.525 39.7939C119.765 40.0868 119.941 40.4257 120.054 40.8104C120.167 41.1915 120.2 41.5974 120.155 42.028H116.073C116.119 42.2715 116.207 42.4921 116.337 42.6898C116.472 42.8839 116.641 43.0374 116.846 43.1503C117.054 43.2633 117.285 43.3215 117.539 43.3251C117.807 43.3251 118.051 43.258 118.27 43.1239C118.492 42.9898 118.674 42.8045 118.815 42.568L119.932 42.8274C119.72 43.2968 119.401 43.6815 118.974 43.9815C118.547 44.278 118.069 44.4262 117.539 44.4262ZM116.036 41.1862H119.043C119.007 40.9321 118.917 40.7027 118.773 40.498C118.632 40.2898 118.453 40.1257 118.238 40.0057C118.026 39.8821 117.793 39.8204 117.539 39.8204C117.289 39.8204 117.056 39.8804 116.84 40.0004C116.629 40.1204 116.452 40.2845 116.311 40.4927C116.173 40.6974 116.082 40.9286 116.036 41.1862ZM126.945 44.4262C126.539 44.4262 126.149 44.3627 125.775 44.2356C125.401 44.1086 125.074 43.9268 124.796 43.6903C124.517 43.4503 124.317 43.1662 124.197 42.838L125.23 42.4515C125.29 42.6209 125.404 42.7727 125.574 42.9068C125.747 43.0374 125.951 43.1398 126.188 43.2139C126.428 43.288 126.68 43.3251 126.945 43.3251C127.227 43.3251 127.492 43.2792 127.739 43.1874C127.99 43.0956 128.191 42.9686 128.343 42.8062C128.498 42.6439 128.576 42.4533 128.576 42.2345C128.576 42.0086 128.494 41.8233 128.332 41.6786C128.173 41.5339 127.969 41.4192 127.718 41.3345C127.471 41.2498 127.213 41.1862 126.945 41.1439C126.426 41.0592 125.96 40.9357 125.547 40.7733C125.138 40.611 124.813 40.3833 124.573 40.0904C124.337 39.7974 124.219 39.4163 124.219 38.9468C124.219 38.5057 124.344 38.121 124.594 37.7927C124.849 37.4645 125.182 37.2104 125.595 37.0304C126.011 36.8469 126.461 36.7551 126.945 36.7551C127.344 36.7551 127.729 36.8186 128.099 36.9457C128.473 37.0692 128.801 37.251 129.084 37.491C129.37 37.7274 129.574 38.0151 129.698 38.3539L128.655 38.7298C128.595 38.5568 128.48 38.4068 128.311 38.2798C128.141 38.1492 127.937 38.0469 127.697 37.9727C127.46 37.8986 127.21 37.8616 126.945 37.8616C126.663 37.858 126.398 37.9039 126.151 37.9992C125.907 38.091 125.708 38.218 125.553 38.3804C125.397 38.5427 125.32 38.7316 125.32 38.9468C125.32 39.2115 125.392 39.4127 125.537 39.5504C125.681 39.688 125.876 39.7904 126.119 39.8574C126.366 39.921 126.641 39.9792 126.945 40.0321C127.432 40.1098 127.882 40.2386 128.295 40.4186C128.711 40.5986 129.045 40.8386 129.296 41.1386C129.55 41.4351 129.677 41.8004 129.677 42.2345C129.677 42.6721 129.55 43.0568 129.296 43.3886C129.045 43.7168 128.711 43.9727 128.295 44.1562C127.882 44.3362 127.432 44.4262 126.945 44.4262ZM133.382 44.4262C132.895 44.4262 132.45 44.3009 132.048 44.0503C131.649 43.7998 131.329 43.4645 131.089 43.0445C130.853 42.6209 130.735 42.1533 130.735 41.6415C130.735 41.2533 130.804 40.8915 130.941 40.5562C131.079 40.2174 131.268 39.921 131.508 39.6668C131.751 39.4092 132.034 39.208 132.355 39.0633C132.676 38.9186 133.018 38.8463 133.382 38.8463C133.869 38.8463 134.312 38.9716 134.711 39.2221C135.113 39.4727 135.432 39.8098 135.669 40.2333C135.909 40.6568 136.029 41.1262 136.029 41.6415C136.029 42.0262 135.96 42.3862 135.822 42.7215C135.685 43.0568 135.494 43.3533 135.251 43.6109C135.011 43.865 134.73 44.0645 134.409 44.2092C134.091 44.3539 133.749 44.4262 133.382 44.4262ZM133.382 43.3251C133.675 43.3251 133.938 43.2474 134.171 43.0921C134.404 42.9368 134.587 42.7321 134.721 42.478C134.859 42.2204 134.928 41.9415 134.928 41.6415C134.928 41.3345 134.857 41.0521 134.716 40.7945C134.578 40.5368 134.393 40.3321 134.16 40.1804C133.927 40.0251 133.668 39.9474 133.382 39.9474C133.092 39.9474 132.829 40.0251 132.593 40.1804C132.36 40.3357 132.175 40.5421 132.037 40.7998C131.903 41.0574 131.836 41.338 131.836 41.6415C131.836 41.9556 131.906 42.2398 132.048 42.4939C132.189 42.748 132.376 42.9509 132.609 43.1027C132.845 43.2509 133.103 43.3251 133.382 43.3251ZM137.129 44.2886V36.3475H138.231V44.2886H137.129ZM139.603 42.3033V38.9945H140.704V42.0333C140.704 42.2698 140.763 42.4851 140.879 42.6792C140.995 42.8733 141.151 43.0286 141.345 43.1451C141.539 43.258 141.753 43.3145 141.985 43.3145C142.222 43.3145 142.435 43.258 142.626 43.1451C142.82 43.0286 142.974 42.8733 143.087 42.6792C143.203 42.4851 143.261 42.2698 143.261 42.0333V38.9945H144.363L144.368 44.2886H143.267L143.261 43.7168C143.081 43.9356 142.857 44.1086 142.589 44.2356C142.321 44.3627 142.033 44.4262 141.726 44.4262C141.334 44.4262 140.978 44.3309 140.657 44.1403C140.336 43.9498 140.08 43.6939 139.889 43.3727C139.698 43.0515 139.603 42.6951 139.603 42.3033ZM148.542 40.0957H147.431L147.425 44.2886H146.324L146.33 40.0957H145.488V38.9945H146.33L146.324 37.3322H147.425L147.431 38.9945H148.542V40.0957ZM149.736 38.9945H150.837V44.2886H149.736V38.9945ZM150.297 38.2268C150.127 38.2268 149.986 38.1721 149.873 38.0627C149.76 37.9533 149.704 37.8157 149.704 37.6498C149.704 37.4874 149.76 37.3516 149.873 37.2422C149.986 37.1292 150.126 37.0727 150.291 37.0727C150.454 37.0727 150.591 37.1292 150.704 37.2422C150.817 37.3516 150.874 37.4874 150.874 37.6498C150.874 37.8157 150.817 37.9533 150.704 38.0627C150.595 38.1721 150.459 38.2268 150.297 38.2268ZM154.657 44.4262C154.17 44.4262 153.726 44.3009 153.323 44.0503C152.924 43.7998 152.605 43.4645 152.365 43.0445C152.129 42.6209 152.01 42.1533 152.01 41.6415C152.01 41.2533 152.079 40.8915 152.217 40.5562C152.354 40.2174 152.543 39.921 152.783 39.6668C153.027 39.4092 153.309 39.208 153.63 39.0633C153.951 38.9186 154.294 38.8463 154.657 38.8463C155.144 38.8463 155.587 38.9716 155.986 39.2221C156.389 39.4727 156.708 39.8098 156.944 40.2333C157.184 40.6568 157.304 41.1262 157.304 41.6415C157.304 42.0262 157.236 42.3862 157.098 42.7215C156.96 43.0568 156.77 43.3533 156.526 43.6109C156.286 43.865 156.006 44.0645 155.684 44.2092C155.367 44.3539 155.024 44.4262 154.657 44.4262ZM154.657 43.3251C154.95 43.3251 155.213 43.2474 155.446 43.0921C155.679 42.9368 155.863 42.7321 155.997 42.478C156.134 42.2204 156.203 41.9415 156.203 41.6415C156.203 41.3345 156.133 41.0521 155.991 40.7945C155.854 40.5368 155.669 40.3321 155.436 40.1804C155.203 40.0251 154.943 39.9474 154.657 39.9474C154.368 39.9474 154.105 40.0251 153.869 40.1804C153.636 40.3357 153.45 40.5421 153.313 40.7998C153.179 41.0574 153.112 41.338 153.112 41.6415C153.112 41.9556 153.182 42.2398 153.323 42.4939C153.464 42.748 153.651 42.9509 153.884 43.1027C154.121 43.2509 154.379 43.3251 154.657 43.3251ZM163.242 40.9692V44.2886H162.141V41.2392C162.141 41.0027 162.083 40.7874 161.966 40.5933C161.853 40.3992 161.7 40.2457 161.506 40.1327C161.315 40.0162 161.1 39.958 160.86 39.958C160.627 39.958 160.413 40.0162 160.219 40.1327C160.025 40.2457 159.87 40.3992 159.753 40.5933C159.637 40.7874 159.579 41.0027 159.579 41.2392V44.2886H158.477V38.9945H159.579V39.5557C159.762 39.3368 159.988 39.1639 160.256 39.0368C160.524 38.9098 160.814 38.8463 161.124 38.8463C161.516 38.8463 161.873 38.9416 162.194 39.1321C162.515 39.3227 162.769 39.5786 162.956 39.8998C163.147 40.221 163.242 40.5774 163.242 40.9692ZM166.205 44.3892C165.926 44.3715 165.654 44.315 165.389 44.2198C165.125 44.1245 164.892 43.9956 164.691 43.8333C164.493 43.6674 164.345 43.4733 164.246 43.2509L165.183 42.8486C165.229 42.9439 165.308 43.0374 165.421 43.1292C165.538 43.2209 165.674 43.2968 165.829 43.3568C165.984 43.4133 166.146 43.4415 166.316 43.4415C166.482 43.4415 166.635 43.4186 166.776 43.3727C166.921 43.3233 167.039 43.2492 167.131 43.1503C167.223 43.0515 167.269 42.9333 167.269 42.7956C167.269 42.6403 167.216 42.5204 167.11 42.4356C167.008 42.3474 166.879 42.2804 166.723 42.2345C166.568 42.1886 166.413 42.1445 166.258 42.1021C165.912 42.0245 165.594 41.9186 165.305 41.7845C165.019 41.6468 164.791 41.4721 164.622 41.2604C164.452 41.0451 164.368 40.7821 164.368 40.4715C164.368 40.1327 164.459 39.8398 164.643 39.5927C164.826 39.3421 165.066 39.1498 165.363 39.0157C165.663 38.8816 165.982 38.8145 166.321 38.8145C166.745 38.8145 167.133 38.9045 167.486 39.0845C167.839 39.2645 168.109 39.5115 168.296 39.8257L167.422 40.3445C167.369 40.2386 167.29 40.1433 167.184 40.0586C167.078 39.9739 166.958 39.9068 166.824 39.8574C166.69 39.8045 166.551 39.7745 166.406 39.7674C166.226 39.7604 166.058 39.7815 165.903 39.831C165.751 39.8768 165.629 39.951 165.538 40.0533C165.446 40.1557 165.4 40.2862 165.4 40.4451C165.4 40.6004 165.455 40.7168 165.564 40.7945C165.674 40.8686 165.811 40.9286 165.977 40.9745C166.146 41.0204 166.319 41.0715 166.496 41.128C166.81 41.2268 167.105 41.3486 167.38 41.4933C167.655 41.6345 167.878 41.8092 168.047 42.0174C168.216 42.2256 168.298 42.4798 168.291 42.7798C168.291 43.1115 168.19 43.4027 167.989 43.6533C167.791 43.9039 167.533 44.0945 167.216 44.225C166.898 44.3556 166.561 44.4103 166.205 44.3892Z" fill="#30333B"/>
<path d="M50.8051 29.3664C49.8027 29.3664 48.871 29.1829 48.0098 28.8158C47.1627 28.4488 46.4286 27.9405 45.8074 27.2911C45.2004 26.6276 44.7557 25.8582 44.4733 24.9829L46.8663 23.9453C47.2474 24.8488 47.798 25.5617 48.518 26.0841C49.238 26.5923 50.0498 26.8464 50.9533 26.8464C51.4615 26.8464 51.8992 26.7688 52.2662 26.6135C52.6474 26.4441 52.9368 26.2182 53.1345 25.9359C53.3462 25.6535 53.4521 25.3147 53.4521 24.9194C53.4521 24.4535 53.3109 24.0723 53.0286 23.7759C52.7603 23.4653 52.3509 23.2253 51.8003 23.0559L48.7721 22.0818C47.5439 21.7006 46.6192 21.1288 45.998 20.3665C45.3769 19.6041 45.0663 18.7077 45.0663 17.6771C45.0663 16.7736 45.2851 15.9759 45.7227 15.2842C46.1745 14.5924 46.7957 14.0559 47.5863 13.6748C48.391 13.2795 49.3086 13.0818 50.3392 13.0818C51.2851 13.0818 52.1533 13.2512 52.9439 13.5901C53.7345 13.9148 54.4121 14.3736 54.9768 14.9665C55.5556 15.5453 55.9862 16.23 56.2686 17.0206L53.8968 18.0794C53.5862 17.2889 53.1203 16.6818 52.4992 16.2583C51.878 15.8206 51.158 15.6018 50.3392 15.6018C49.8592 15.6018 49.4357 15.6865 49.0686 15.8559C48.7015 16.0112 48.4121 16.2371 48.2004 16.5336C48.0027 16.8159 47.9039 17.1547 47.9039 17.55C47.9039 17.9877 48.0451 18.3759 48.3274 18.7147C48.6098 19.0394 49.0404 19.2935 49.6192 19.4771L52.5203 20.3877C53.7768 20.7971 54.7156 21.3618 55.3368 22.0818C55.9721 22.8018 56.2897 23.6912 56.2897 24.75C56.2897 25.6535 56.0568 26.4511 55.5909 27.1429C55.125 27.8347 54.4827 28.3782 53.6639 28.7735C52.845 29.1688 51.8921 29.3664 50.8051 29.3664ZM58.6501 29.1123V13.0818H61.4242V19.8582L61.043 19.4559C61.3112 18.7641 61.7489 18.2418 62.3559 17.8888C62.9771 17.5218 63.6971 17.3383 64.5159 17.3383C65.363 17.3383 66.1112 17.5218 66.7606 17.8888C67.4241 18.2559 67.9394 18.7712 68.3065 19.4347C68.6735 20.0841 68.8571 20.8394 68.8571 21.7006V29.1123H66.083V22.3571C66.083 21.8488 65.9841 21.4112 65.7865 21.0441C65.5888 20.6771 65.3135 20.3947 64.9606 20.1971C64.6218 19.9853 64.2194 19.8794 63.7536 19.8794C63.3018 19.8794 62.8994 19.9853 62.5465 20.1971C62.1936 20.3947 61.9183 20.6771 61.7206 21.0441C61.523 21.4112 61.4242 21.8488 61.4242 22.3571V29.1123H58.6501ZM76.8357 29.3664C75.7063 29.3664 74.6757 29.1052 73.744 28.5829C72.8263 28.0605 72.0922 27.3476 71.5416 26.4441C71.0052 25.5406 70.7369 24.51 70.7369 23.3523C70.7369 22.1947 71.0052 21.1641 71.5416 20.2606C72.0922 19.3571 72.8263 18.6441 73.744 18.1218C74.6616 17.5994 75.6922 17.3383 76.8357 17.3383C77.9651 17.3383 78.9887 17.5994 79.9063 18.1218C80.8239 18.6441 81.551 19.3571 82.0875 20.2606C82.638 21.15 82.9133 22.1806 82.9133 23.3523C82.9133 24.51 82.638 25.5406 82.0875 26.4441C81.5369 27.3476 80.8028 28.0605 79.8851 28.5829C78.9675 29.1052 77.951 29.3664 76.8357 29.3664ZM76.8357 26.8253C77.4569 26.8253 78.0004 26.677 78.4663 26.3806C78.9463 26.0841 79.3204 25.6747 79.5887 25.1523C79.871 24.6159 80.0122 24.0159 80.0122 23.3523C80.0122 22.6747 79.871 22.0818 79.5887 21.5735C79.3204 21.0512 78.9463 20.6418 78.4663 20.3453C78.0004 20.0347 77.4569 19.8794 76.8357 19.8794C76.2004 19.8794 75.6428 20.0347 75.1628 20.3453C74.6828 20.6418 74.3016 21.0512 74.0193 21.5735C73.751 22.0818 73.6169 22.6747 73.6169 23.3523C73.6169 24.0159 73.751 24.6159 74.0193 25.1523C74.3016 25.6747 74.6828 26.0841 75.1628 26.3806C75.6428 26.677 76.2004 26.8253 76.8357 26.8253ZM85.0171 33.3476V17.5924H87.6218V19.8794L87.3676 19.3077C87.7629 18.6865 88.2994 18.2065 88.977 17.8677C89.6547 17.5147 90.4382 17.3383 91.3276 17.3383C92.4147 17.3383 93.3958 17.6065 94.2711 18.143C95.1464 18.6794 95.8382 19.3994 96.3464 20.303C96.8688 21.2065 97.1299 22.2229 97.1299 23.3523C97.1299 24.4676 96.8758 25.4841 96.3676 26.4017C95.8594 27.3194 95.1676 28.0464 94.2923 28.5829C93.417 29.1052 92.4217 29.3664 91.3064 29.3664C90.4735 29.3664 89.7041 29.2041 88.9982 28.8794C88.3065 28.5405 87.7559 28.0605 87.3465 27.4394L87.7912 26.8888V33.3476H85.0171ZM90.9888 26.8253C91.6241 26.8253 92.1888 26.677 92.6829 26.3806C93.177 26.0841 93.5582 25.6747 93.8264 25.1523C94.1088 24.63 94.25 24.03 94.25 23.3523C94.25 22.6747 94.1088 22.0818 93.8264 21.5735C93.5582 21.0512 93.177 20.6418 92.6829 20.3453C92.1888 20.0347 91.6241 19.8794 90.9888 19.8794C90.3817 19.8794 89.8312 20.0277 89.337 20.3241C88.857 20.6206 88.4759 21.0371 88.1935 21.5735C87.9253 22.0959 87.7912 22.6888 87.7912 23.3523C87.7912 24.03 87.9253 24.63 88.1935 25.1523C88.4759 25.6747 88.857 26.0841 89.337 26.3806C89.8312 26.677 90.3817 26.8253 90.9888 26.8253ZM99.4779 29.1123V13.3359H106.127C107.172 13.3359 108.061 13.5195 108.795 13.8865C109.544 14.2395 110.115 14.7477 110.511 15.4112C110.92 16.0606 111.125 16.8512 111.125 17.783C111.125 18.503 110.927 19.1806 110.532 19.8159C110.151 20.4371 109.537 20.9524 108.69 21.3618V20.0277C109.466 20.3241 110.08 20.6912 110.532 21.1288C110.984 21.5665 111.301 22.0535 111.485 22.59C111.668 23.1265 111.76 23.6912 111.76 24.2841C111.76 25.7947 111.259 26.9806 110.257 27.8417C109.268 28.6888 107.892 29.1123 106.127 29.1123H99.4779ZM102.358 26.5711H106.424C107.172 26.5711 107.765 26.3664 108.203 25.957C108.654 25.5335 108.88 24.9759 108.88 24.2841C108.88 23.5923 108.654 23.0347 108.203 22.6112C107.765 22.1876 107.172 21.9759 106.424 21.9759H102.358V26.5711ZM102.358 19.4559H106.275C106.868 19.4559 107.341 19.2865 107.694 18.9477C108.047 18.5947 108.224 18.143 108.224 17.5924C108.224 17.0418 108.047 16.6042 107.694 16.2794C107.341 15.9547 106.868 15.7924 106.275 15.7924H102.358V19.4559ZM117.995 29.3664C117.105 29.3664 116.329 29.1688 115.665 28.7735C115.016 28.3782 114.515 27.8276 114.162 27.1217C113.823 26.4159 113.653 25.59 113.653 24.6441V17.5924H116.428V24.4112C116.428 24.8912 116.519 25.3147 116.703 25.6817C116.9 26.0347 117.176 26.317 117.529 26.5288C117.896 26.7264 118.305 26.8253 118.757 26.8253C119.209 26.8253 119.611 26.7264 119.964 26.5288C120.317 26.317 120.592 26.0276 120.79 25.6606C120.987 25.2935 121.086 24.8559 121.086 24.3476V17.5924H123.86V29.1123H121.235V26.8464L121.467 27.2488C121.199 27.9547 120.755 28.4841 120.133 28.837C119.526 29.19 118.813 29.3664 117.995 29.3664ZM126.439 29.1123V17.5924H129.213V29.1123H126.439ZM126.439 16.3006V13.3359H129.213V16.3006H126.439ZM131.775 29.1123V13.0818H134.549V29.1123H131.775ZM142.468 29.3664C141.352 29.3664 140.357 29.1052 139.482 28.5829C138.606 28.0464 137.915 27.3194 137.406 26.4017C136.898 25.4841 136.644 24.4676 136.644 23.3523C136.644 22.2229 136.898 21.2065 137.406 20.303C137.915 19.3994 138.606 18.6794 139.482 18.143C140.371 17.6065 141.359 17.3383 142.446 17.3383C143.322 17.3383 144.098 17.5147 144.776 17.8677C145.468 18.2065 146.011 18.6865 146.406 19.3077L145.983 19.8794V13.0818H148.757V29.1123H146.131V26.8888L146.428 27.4394C146.032 28.0605 145.482 28.5405 144.776 28.8794C144.07 29.2041 143.301 29.3664 142.468 29.3664ZM142.764 26.8253C143.399 26.8253 143.957 26.677 144.437 26.3806C144.917 26.0841 145.291 25.6747 145.559 25.1523C145.842 24.63 145.983 24.03 145.983 23.3523C145.983 22.6888 145.842 22.0959 145.559 21.5735C145.291 21.0371 144.917 20.6206 144.437 20.3241C143.957 20.0277 143.399 19.8794 142.764 19.8794C142.143 19.8794 141.585 20.0347 141.091 20.3453C140.597 20.6418 140.209 21.0512 139.926 21.5735C139.658 22.0818 139.524 22.6747 139.524 23.3523C139.524 24.03 139.658 24.63 139.926 25.1523C140.209 25.6747 140.597 26.0841 141.091 26.3806C141.585 26.677 142.143 26.8253 142.764 26.8253ZM156.801 29.3664C155.615 29.3664 154.578 29.0982 153.688 28.5617C152.799 28.0253 152.107 27.2982 151.613 26.3806C151.119 25.4629 150.872 24.4465 150.872 23.3312C150.872 22.1735 151.119 21.15 151.613 20.2606C152.121 19.3571 152.806 18.6441 153.667 18.1218C154.543 17.5994 155.517 17.3383 156.59 17.3383C157.493 17.3383 158.284 17.4865 158.961 17.783C159.653 18.0794 160.239 18.4888 160.719 19.0112C161.199 19.5335 161.566 20.1335 161.82 20.8112C162.074 21.4747 162.201 22.1947 162.201 22.9712C162.201 23.1688 162.187 23.3735 162.159 23.5853C162.145 23.797 162.11 23.9806 162.053 24.1359H153.159V22.0182H160.486L159.173 23.0135C159.3 22.3641 159.265 21.7853 159.067 21.2771C158.884 20.7688 158.573 20.3665 158.135 20.07C157.712 19.7735 157.197 19.6253 156.59 19.6253C156.011 19.6253 155.495 19.7735 155.044 20.07C154.592 20.3524 154.246 20.7759 154.006 21.3406C153.78 21.8912 153.695 22.5618 153.752 23.3523C153.695 24.0582 153.787 24.6865 154.027 25.237C154.281 25.7735 154.648 26.19 155.128 26.4864C155.623 26.7829 156.187 26.9311 156.823 26.9311C157.458 26.9311 157.994 26.797 158.432 26.5288C158.884 26.2606 159.237 25.9006 159.491 25.4488L161.735 26.55C161.51 27.1006 161.157 27.5876 160.677 28.0111C160.197 28.4347 159.625 28.7664 158.961 29.0064C158.312 29.2464 157.592 29.3664 156.801 29.3664ZM164.304 29.1123V17.5924H166.909V20.1547L166.697 19.7735C166.965 18.9124 167.382 18.3124 167.947 17.9736C168.525 17.6347 169.217 17.4653 170.022 17.4653H170.699V19.9218H169.704C168.914 19.9218 168.278 20.1688 167.798 20.6629C167.318 21.1429 167.078 21.8206 167.078 22.6959V29.1123H164.304Z" fill="#000719"/>
<path d="M33.7474 45.5831H4.01544C3.06824 45.5855 2.15836 45.2142 1.48362 44.5498C0.808873 43.8853 0.4238 42.9816 0.412109 42.035L5.6396 14.1907C5.6396 13.5923 5.87682 13.0183 6.29933 12.5944C6.72184 12.1704 7.29521 11.9311 7.89391 11.9287H30.5168C30.814 11.9287 31.1083 11.9872 31.3829 12.1009C31.6575 12.2146 31.9069 12.3812 32.1171 12.5912C32.3273 12.8013 32.494 13.0506 32.6077 13.3251C32.7214 13.5995 32.78 13.8936 32.78 14.1907L37.3507 41.9906C37.3507 42.4631 37.2574 42.931 37.0762 43.3675C36.895 43.8039 36.6295 44.2003 36.2948 44.534C35.9601 44.8678 35.5628 45.1322 35.1256 45.3122C34.6885 45.4922 34.2201 45.5843 33.7474 45.5831Z" fill="#004BFF"/>
<path d="M11.285 17.8979C12.1085 17.8979 12.776 17.2307 12.776 16.4077C12.776 15.5847 12.1085 14.9175 11.285 14.9175C10.4615 14.9175 9.79395 15.5847 9.79395 16.4077C9.79395 17.2307 10.4615 17.8979 11.285 17.8979Z" fill="white"/>
<path d="M26.4783 17.8979C27.3018 17.8979 27.9694 17.2307 27.9694 16.4077C27.9694 15.5847 27.3018 14.9175 26.4783 14.9175C25.6549 14.9175 24.9873 15.5847 24.9873 16.4077C24.9873 17.2307 25.6549 17.8979 26.4783 17.8979Z" fill="white"/>
<path fill-rule="evenodd" clip-rule="evenodd" d="M18.882 1.52327C16.9919 1.52327 15.1791 2.27373 13.8426 3.60954C12.5061 4.94535 11.7552 6.75711 11.7552 8.64623V16.1772C11.7552 16.4369 11.5446 16.6474 11.2848 16.6474C11.0251 16.6474 10.8145 16.4369 10.8145 16.1772V8.64623C10.8145 6.50773 11.6644 4.45682 13.1774 2.94467C14.6903 1.43252 16.7424 0.583008 18.882 0.583008C21.0217 0.583008 23.0737 1.43252 24.5866 2.94467C26.0996 4.45682 26.9496 6.50773 26.9496 8.64623V16.1772C26.9496 16.4369 26.739 16.6474 26.4792 16.6474C26.2194 16.6474 26.0088 16.4369 26.0088 16.1772V8.64623C26.0088 6.75711 25.2579 4.94535 23.9214 3.60954C22.5849 2.27373 20.7722 1.52327 18.882 1.52327Z" fill="#2C2C2C"/>
<path d="M22.3523 37.5369C22.2432 37.2541 22.0526 37.0099 21.8047 36.8351C21.5568 36.6604 21.2627 36.563 20.9595 36.5552C20.6563 36.5473 20.3575 36.6294 20.1009 36.7911C19.8444 36.9528 19.6414 37.1868 19.5178 37.4637C19.3941 37.7405 19.3553 38.0477 19.4062 38.3466C19.457 38.6455 19.5953 38.9226 19.8036 39.143C20.0119 39.3634 20.2808 39.5172 20.5765 39.585C20.8721 39.6527 21.1812 39.6315 21.4648 39.5239C21.8395 39.3696 22.1405 39.0774 22.3057 38.7076C22.4709 38.3378 22.4876 37.9187 22.3523 37.5369ZM28.565 35.2838C28.4619 34.9931 28.275 34.7395 28.0278 34.5548C27.7806 34.3702 27.4843 34.2629 27.1761 34.2464C26.868 34.2299 26.5619 34.305 26.2964 34.4622C26.0309 34.6194 25.818 34.8517 25.6845 35.1298C25.5509 35.4078 25.5028 35.7191 25.5461 36.0245C25.5894 36.3299 25.7223 36.6156 25.9279 36.8455C26.1335 37.0755 26.4026 37.2395 26.7014 37.3168C27.0001 37.394 27.315 37.3811 27.6065 37.2797C27.9976 37.141 28.318 36.8533 28.4976 36.4793C28.6772 36.1054 28.7014 35.6756 28.565 35.2838ZM29.1064 30.1478C28.7691 27.8415 28.4052 25.5441 28.0502 23.2378C28.0309 23.0839 27.9795 22.9359 27.8993 22.8031C27.7787 22.6289 27.5996 22.5035 27.3944 22.4498C27.1893 22.3961 26.9717 22.4176 26.7811 22.5104C22.6393 24.0006 18.5153 25.4997 14.409 27.0077L14.2315 27.0698C14.2107 27.0832 14.187 27.0916 14.1624 27.0943C14.1377 27.097 14.1128 27.0939 14.0895 27.0853C14.0663 27.0767 14.0454 27.0628 14.0284 27.0447C14.0115 27.0266 13.999 27.0048 13.9919 26.9811L13.4771 26.032C13.3732 25.787 13.2211 25.5653 13.0299 25.3802C12.8386 25.1951 12.6121 25.0502 12.3638 24.9542C12.1154 24.8583 11.8503 24.8131 11.5842 24.8215C11.3181 24.8299 11.0564 24.8916 10.8146 25.003C10.3708 25.1538 9.92705 25.3312 9.49217 25.4731C9.2748 25.5225 9.08145 25.6461 8.94539 25.8225C8.80932 25.999 8.73904 26.2173 8.74665 26.44L8.89753 26.8658C9.03153 27.0442 9.22316 27.1709 9.43992 27.2242C9.65667 27.2776 9.88522 27.2543 10.0868 27.1585L11.4447 26.6618C11.7376 26.5553 11.782 26.5819 11.924 26.8569C12.563 28.0455 13.202 29.2253 13.8321 30.4051L14.338 31.2921L14.7552 31.1413C14.9144 31.084 15.083 31.0569 15.2522 31.0615C15.5889 31.0636 15.9142 31.1838 16.1714 31.4011C16.4285 31.6184 16.6012 31.919 16.6593 32.2505C16.7174 32.5821 16.6572 32.9234 16.4893 33.2151C16.3213 33.5069 16.0563 33.7304 15.7403 33.8468C15.8646 34.0952 15.9977 34.3347 16.1308 34.5831C16.3998 35.1511 16.8762 35.5945 17.4623 35.8222C18.0483 36.0499 18.6993 36.0445 19.2815 35.8072L27.4112 32.8533C27.6176 32.7768 27.8166 32.6818 28.0058 32.5695C28.4143 32.3259 28.7385 31.9635 28.9352 31.5308C29.1319 31.098 29.1916 30.6155 29.1064 30.1478Z" fill="white"/>
<path opacity="0.5" fill-rule="evenodd" clip-rule="evenodd" d="M12.2692 29.9289C12.3856 30.2489 12.2205 30.6026 11.9003 30.719L6.23795 32.7769C5.91779 32.8933 5.56388 32.7282 5.44746 32.4082C5.33104 32.0883 5.4962 31.7345 5.81635 31.6182L11.4787 29.5602C11.7989 29.4439 12.1528 29.6089 12.2692 29.9289Z" fill="white"/>
<path opacity="0.5" fill-rule="evenodd" clip-rule="evenodd" d="M14.1275 36.1294C14.244 36.4493 14.079 36.8031 13.7589 36.9196L9.71178 38.3921C9.39167 38.5086 9.0377 38.3436 8.92117 38.0237C8.80464 37.7037 8.96967 37.35 9.28978 37.2335L13.3369 35.761C13.657 35.6445 14.011 35.8095 14.1275 36.1294Z" fill="white"/>
<path d="M11.1496 34.6451C11.0234 34.6437 10.9005 34.604 10.7975 34.5311C10.6944 34.4582 10.616 34.3556 10.5727 34.2371C10.5431 34.1615 10.5291 34.0807 10.5315 33.9996C10.5339 33.9185 10.5526 33.8387 10.5866 33.765C10.6206 33.6913 10.6691 33.6252 10.7292 33.5706C10.7894 33.5161 10.8599 33.4743 10.9366 33.4476L15.0281 31.9574C15.1822 31.895 15.3549 31.8965 15.508 31.9613C15.6611 32.0262 15.7822 32.1492 15.8446 32.3033C15.907 32.4574 15.9055 32.63 15.8406 32.783C15.7757 32.936 15.6526 33.0571 15.4985 33.1194L11.407 34.6008C11.3254 34.6339 11.2376 34.649 11.1496 34.6451Z" fill="white"/>
</svg>
