<svg width="410" height="250" viewBox="0 0 410 250" fill="none" xmlns="http://www.w3.org/2000/svg">
<rect x="-41.5781" y="-228.721" width="493.154" height="478.721" rx="239.36" fill="#004BFF"/>
<mask id="mask0_20_7435" style="mask-type:alpha" maskUnits="userSpaceOnUse" x="-42" y="-229" width="494" height="479">
<rect x="-41.5781" y="-228.721" width="493.154" height="478.721" rx="239.36" fill="#004BFF"/>
</mask>
<g mask="url(#mask0_20_7435)">
<path d="M375.977 65.606C386.481 62.5002 397.083 58.2861 408.198 58.2698C420.779 58.2598 434.476 61.7111 446.667 57.2039C452.729 54.959 456.627 50.5504 457.083 43.966C458.419 24.5669 430.593 16.8107 418.804 6.73787C412.562 1.4085 408.93 -5.68981 404.793 -12.6205C398.619 -22.9722 387.965 -37.1426 374.27 -35.8631C357.669 -34.3117 350.859 -16.1512 346.581 -2.49668C341.902 12.4184 336.994 28.7424 338.646 44.5463C339.547 53.1735 343.912 61.1557 351.846 65.1207C359.847 69.1213 367.923 67.9922 375.992 65.6037L375.977 65.606Z" fill="#2767FF"/>
<path d="M-63.042 127.615C-56.5955 140.701 -48.6719 153.666 -46.1426 168.251C-43.2905 184.762 -44.73 203.519 -36.0633 218.502C-31.7488 225.953 -25.0828 230.074 -16.3377 229.187C9.42628 226.564 13.3278 188.291 23.8889 170.545C29.4754 161.149 37.9729 154.78 46.1361 147.785C58.3302 137.347 74.5256 120.166 69.7559 102.478C63.9737 81.0383 38.6007 76.1986 19.7132 73.6648C-0.919551 70.8879 -23.4529 68.1302 -43.8237 73.8635C-54.944 76.9927 -64.4362 84.5232 -67.85 95.8325C-71.2956 107.237 -67.9912 117.582 -63.0357 127.634L-63.042 127.615Z" fill="#2767FF"/>
</g>
</svg>
