<svg width="172" height="46" viewBox="0 0 172 46" fill="none" xmlns="http://www.w3.org/2000/svg">
<path d="M46.7053 43.7886L44.81 36.3769H45.943L47.33 41.8139L48.7118 36.3769H49.7124L51.0994 41.8139L52.4865 36.3769H53.6194L51.7347 43.7886H50.4694L49.2147 38.881L47.96 43.7886H46.7053ZM56.5108 43.9262C56.0237 43.9262 55.579 43.8009 55.1767 43.5503C54.7779 43.2998 54.4584 42.9645 54.2185 42.5445C53.982 42.1209 53.8637 41.6533 53.8637 41.1415C53.8637 40.7533 53.9326 40.3915 54.0702 40.0562C54.2079 39.7174 54.3967 39.421 54.6367 39.1668C54.8802 38.9092 55.1626 38.708 55.4837 38.5633C55.8049 38.4186 56.1473 38.3463 56.5108 38.3463C56.9978 38.3463 57.4408 38.4716 57.8396 38.7221C58.242 38.9727 58.5614 39.3098 58.7978 39.7333C59.0378 40.1568 59.1578 40.6262 59.1578 41.1415C59.1578 41.5262 59.089 41.8862 58.9514 42.2215C58.8137 42.5568 58.6231 42.8533 58.3796 43.1109C58.1396 43.365 57.859 43.5645 57.5378 43.7092C57.2202 43.8539 56.8778 43.9262 56.5108 43.9262ZM56.5108 42.8251C56.8037 42.8251 57.0667 42.7474 57.2996 42.5921C57.5325 42.4368 57.7161 42.2321 57.8502 41.978C57.9878 41.7204 58.0567 41.4415 58.0567 41.1415C58.0567 40.8345 57.9861 40.5521 57.8449 40.2945C57.7073 40.0368 57.522 39.8321 57.289 39.6804C57.0561 39.5251 56.7967 39.4474 56.5108 39.4474C56.2214 39.4474 55.9584 39.5251 55.722 39.6804C55.489 39.8357 55.3037 40.0421 55.1661 40.2998C55.032 40.5574 54.9649 40.838 54.9649 41.1415C54.9649 41.4556 55.0355 41.7398 55.1767 41.9939C55.3179 42.248 55.5049 42.4509 55.7379 42.6027C55.9743 42.7509 56.232 42.8251 56.5108 42.8251ZM62.6499 43.9262C62.1628 43.9262 61.7181 43.8009 61.3157 43.5503C60.9169 43.2998 60.5975 42.9645 60.3575 42.5445C60.121 42.1209 60.0028 41.6533 60.0028 41.1415C60.0028 40.7533 60.0716 40.3915 60.2093 40.0562C60.3469 39.7174 60.5358 39.421 60.7758 39.1668C61.0193 38.9092 61.3016 38.708 61.6228 38.5633C61.944 38.4186 62.2863 38.3463 62.6499 38.3463C63.1369 38.3463 63.5798 38.4716 63.9787 38.7221C64.381 38.9727 64.7004 39.3098 64.9369 39.7333C65.1769 40.1568 65.2969 40.6262 65.2969 41.1415C65.2969 41.5262 65.2281 41.8862 65.0904 42.2215C64.9528 42.5568 64.7622 42.8533 64.5187 43.1109C64.2787 43.365 63.9981 43.5645 63.6769 43.7092C63.3593 43.8539 63.0169 43.9262 62.6499 43.9262ZM62.6499 42.8251C62.9428 42.8251 63.2057 42.7474 63.4387 42.5921C63.6716 42.4368 63.8551 42.2321 63.9893 41.978C64.1269 41.7204 64.1957 41.4415 64.1957 41.1415C64.1957 40.8345 64.1251 40.5521 63.984 40.2945C63.8463 40.0368 63.661 39.8321 63.4281 39.6804C63.1951 39.5251 62.9357 39.4474 62.6499 39.4474C62.3604 39.4474 62.0975 39.5251 61.861 39.6804C61.6281 39.8357 61.4428 40.0421 61.3052 40.2998C61.171 40.5574 61.104 40.838 61.104 41.1415C61.104 41.4556 61.1746 41.7398 61.3157 41.9939C61.4569 42.248 61.644 42.4509 61.8769 42.6027C62.1134 42.7509 62.371 42.8251 62.6499 42.8251ZM69.9935 43.9262C69.4923 43.9262 69.0211 43.8274 68.58 43.6298C68.1388 43.4286 67.7506 43.1533 67.4153 42.8039C67.0835 42.4509 66.8223 42.0415 66.6318 41.5756C66.4447 41.1098 66.3512 40.6121 66.3512 40.0827C66.3512 39.5533 66.4447 39.0557 66.6318 38.5898C66.8223 38.1239 67.0835 37.7163 67.4153 37.3669C67.7506 37.0139 68.1388 36.7386 68.58 36.541C69.0211 36.3398 69.4923 36.2392 69.9935 36.2392C70.5935 36.2392 71.1458 36.3786 71.6505 36.6574C72.1552 36.9363 72.5735 37.3069 72.9052 37.7692L71.9258 38.2933C71.6964 38.0039 71.4123 37.7727 71.0735 37.5998C70.7347 37.4269 70.3747 37.3404 69.9935 37.3404C69.6406 37.3404 69.3106 37.4127 69.0035 37.5574C68.6964 37.7021 68.4264 37.8998 68.1935 38.1504C67.9606 38.401 67.7788 38.6921 67.6482 39.0239C67.5176 39.3557 67.4523 39.7086 67.4523 40.0827C67.4523 40.4604 67.5176 40.8151 67.6482 41.1468C67.7788 41.4751 67.9606 41.7662 68.1935 42.0204C68.43 42.2709 68.7017 42.4686 69.0088 42.6133C69.3158 42.7545 69.6441 42.8251 69.9935 42.8251C70.3817 42.8251 70.7435 42.7386 71.0788 42.5656C71.4176 42.3892 71.7 42.1562 71.9258 41.8668L72.9052 42.4015C72.5735 42.8639 72.1552 43.2345 71.6505 43.5133C71.1458 43.7886 70.5935 43.9262 69.9935 43.9262ZM76.3032 43.9262C75.8162 43.9262 75.3715 43.8009 74.9691 43.5503C74.5703 43.2998 74.2509 42.9645 74.0109 42.5445C73.7744 42.1209 73.6562 41.6533 73.6562 41.1415C73.6562 40.7533 73.725 40.3915 73.8626 40.0562C74.0003 39.7174 74.1891 39.421 74.4291 39.1668C74.6726 38.9092 74.955 38.708 75.2762 38.5633C75.5973 38.4186 75.9397 38.3463 76.3032 38.3463C76.7903 38.3463 77.2332 38.4716 77.632 38.7221C78.0344 38.9727 78.3538 39.3098 78.5903 39.7333C78.8303 40.1568 78.9503 40.6262 78.9503 41.1415C78.9503 41.5262 78.8814 41.8862 78.7438 42.2215C78.6061 42.5568 78.4155 42.8533 78.172 43.1109C77.932 43.365 77.6514 43.5645 77.3303 43.7092C77.0126 43.8539 76.6703 43.9262 76.3032 43.9262ZM76.3032 42.8251C76.5961 42.8251 76.8591 42.7474 77.092 42.5921C77.325 42.4368 77.5085 42.2321 77.6426 41.978C77.7803 41.7204 77.8491 41.4415 77.8491 41.1415C77.8491 40.8345 77.7785 40.5521 77.6373 40.2945C77.4997 40.0368 77.3144 39.8321 77.0814 39.6804C76.8485 39.5251 76.5891 39.4474 76.3032 39.4474C76.0138 39.4474 75.7509 39.5251 75.5144 39.6804C75.2815 39.8357 75.0962 40.0421 74.9585 40.2998C74.8244 40.5574 74.7573 40.838 74.7573 41.1415C74.7573 41.4556 74.8279 41.7398 74.9691 41.9939C75.1103 42.248 75.2973 42.4509 75.5303 42.6027C75.7667 42.7509 76.0244 42.8251 76.3032 42.8251ZM80.1232 43.7886V38.4945H81.2244V39.0557C81.4079 38.8368 81.632 38.6639 81.8967 38.5368C82.165 38.4098 82.4544 38.3463 82.765 38.3463C83.1426 38.3463 83.4903 38.438 83.8079 38.6215C84.1255 38.8015 84.3779 39.0415 84.565 39.3415C84.752 39.0415 85.0008 38.8015 85.3114 38.6215C85.6255 38.438 85.9714 38.3463 86.3491 38.3463C86.7408 38.3463 87.0973 38.4416 87.4185 38.6321C87.7396 38.8227 87.9955 39.0786 88.1861 39.3998C88.3767 39.721 88.472 40.0774 88.472 40.4692V43.7886H87.3708V40.7498C87.3708 40.5168 87.3143 40.3033 87.2014 40.1092C87.0885 39.9151 86.9367 39.758 86.7461 39.638C86.5555 39.518 86.3438 39.458 86.1108 39.458C85.8779 39.458 85.6661 39.5145 85.4755 39.6274C85.285 39.7404 85.1332 39.8939 85.0202 40.088C84.9073 40.2821 84.8508 40.5027 84.8508 40.7498V43.7886H83.7497V40.7498C83.7497 40.5027 83.6932 40.2821 83.5803 40.088C83.4673 39.8939 83.3138 39.7404 83.1197 39.6274C82.9291 39.5145 82.7173 39.458 82.4844 39.458C82.255 39.458 82.0432 39.518 81.8491 39.638C81.6585 39.758 81.5067 39.9151 81.3938 40.1092C81.2809 40.3033 81.2244 40.5168 81.2244 40.7498V43.7886H80.1232ZM89.8503 43.7886V38.4945H90.9514V39.0557C91.135 38.8368 91.3591 38.6639 91.6238 38.5368C91.892 38.4098 92.1814 38.3463 92.492 38.3463C92.8697 38.3463 93.2173 38.438 93.535 38.6215C93.8526 38.8015 94.1049 39.0415 94.292 39.3415C94.4791 39.0415 94.7279 38.8015 95.0385 38.6215C95.3526 38.438 95.6985 38.3463 96.0761 38.3463C96.4679 38.3463 96.8243 38.4416 97.1455 38.6321C97.4667 38.8227 97.7226 39.0786 97.9132 39.3998C98.1037 39.721 98.199 40.0774 98.199 40.4692V43.7886H97.0979V40.7498C97.0979 40.5168 97.0414 40.3033 96.9285 40.1092C96.8155 39.9151 96.6638 39.758 96.4732 39.638C96.2826 39.518 96.0708 39.458 95.8379 39.458C95.6049 39.458 95.3932 39.5145 95.2026 39.6274C95.012 39.7404 94.8602 39.8939 94.7473 40.088C94.6344 40.2821 94.5779 40.5027 94.5779 40.7498V43.7886H93.4767V40.7498C93.4767 40.5027 93.4202 40.2821 93.3073 40.088C93.1944 39.8939 93.0408 39.7404 92.8467 39.6274C92.6561 39.5145 92.4444 39.458 92.2114 39.458C91.982 39.458 91.7703 39.518 91.5761 39.638C91.3856 39.758 91.2338 39.9151 91.1209 40.1092C91.0079 40.3033 90.9514 40.5168 90.9514 40.7498V43.7886H89.8503ZM101.803 43.9262C101.316 43.9262 100.872 43.8009 100.469 43.5503C100.07 43.2998 99.751 42.9645 99.511 42.5445C99.2745 42.1209 99.1563 41.6533 99.1563 41.1415C99.1563 40.7533 99.2251 40.3915 99.3627 40.0562C99.5004 39.7174 99.6892 39.421 99.9292 39.1668C100.173 38.9092 100.455 38.708 100.776 38.5633C101.097 38.4186 101.44 38.3463 101.803 38.3463C102.209 38.3463 102.582 38.431 102.92 38.6004C103.259 38.7663 103.549 38.9974 103.789 39.2939C104.029 39.5868 104.205 39.9257 104.318 40.3104C104.431 40.6915 104.464 41.0974 104.419 41.528H100.337C100.383 41.7715 100.471 41.9921 100.602 42.1898C100.736 42.3839 100.905 42.5374 101.11 42.6503C101.318 42.7633 101.549 42.8215 101.803 42.8251C102.072 42.8251 102.315 42.758 102.534 42.6239C102.756 42.4898 102.938 42.3045 103.079 42.068L104.196 42.3274C103.984 42.7968 103.665 43.1815 103.238 43.4815C102.811 43.778 102.333 43.9262 101.803 43.9262ZM100.3 40.6862H103.307C103.272 40.4321 103.182 40.2027 103.037 39.998C102.896 39.7898 102.717 39.6257 102.502 39.5057C102.29 39.3821 102.057 39.3204 101.803 39.3204C101.553 39.3204 101.32 39.3804 101.104 39.5004C100.893 39.6204 100.716 39.7845 100.575 39.9927C100.437 40.1974 100.346 40.4286 100.3 40.6862ZM105.613 43.7886V38.4945H106.714V39.0557C106.898 38.8368 107.124 38.6639 107.392 38.5368C107.66 38.4098 107.949 38.3463 108.26 38.3463C108.458 38.3463 108.654 38.3727 108.848 38.4257L108.408 39.5374C108.271 39.4845 108.133 39.458 107.995 39.458C107.762 39.458 107.549 39.5162 107.355 39.6327C107.161 39.7457 107.005 39.8992 106.889 40.0933C106.772 40.2874 106.714 40.5027 106.714 40.7392V43.7886H105.613ZM112.986 42.2851L113.971 42.8198C113.731 43.155 113.425 43.4233 113.055 43.6245C112.688 43.8256 112.289 43.9262 111.858 43.9262C111.371 43.9262 110.927 43.8009 110.524 43.5503C110.125 43.2998 109.806 42.9645 109.566 42.5445C109.33 42.1209 109.211 41.6533 109.211 41.1415C109.211 40.7533 109.28 40.3915 109.418 40.0562C109.555 39.7174 109.744 39.421 109.984 39.1668C110.228 38.9092 110.51 38.708 110.831 38.5633C111.152 38.4186 111.495 38.3463 111.858 38.3463C112.289 38.3463 112.688 38.4468 113.055 38.648C113.425 38.8492 113.731 39.1192 113.971 39.458L112.986 39.9927C112.838 39.8162 112.665 39.6821 112.467 39.5904C112.27 39.4951 112.067 39.4474 111.858 39.4474C111.569 39.4474 111.306 39.5268 111.07 39.6857C110.837 39.841 110.651 40.0474 110.514 40.3051C110.38 40.5592 110.312 40.838 110.312 41.1415C110.312 41.4415 110.381 41.7204 110.519 41.978C110.657 42.2321 110.842 42.4368 111.075 42.5921C111.311 42.7474 111.572 42.8251 111.858 42.8251C112.077 42.8251 112.285 42.7756 112.483 42.6768C112.681 42.578 112.848 42.4474 112.986 42.2851ZM117.449 43.9262C116.962 43.9262 116.518 43.8009 116.115 43.5503C115.716 43.2998 115.397 42.9645 115.157 42.5445C114.921 42.1209 114.802 41.6533 114.802 41.1415C114.802 40.7533 114.871 40.3915 115.009 40.0562C115.146 39.7174 115.335 39.421 115.575 39.1668C115.819 38.9092 116.101 38.708 116.422 38.5633C116.744 38.4186 117.086 38.3463 117.449 38.3463C117.855 38.3463 118.228 38.431 118.566 38.6004C118.905 38.7663 119.195 38.9974 119.435 39.2939C119.675 39.5868 119.851 39.9257 119.964 40.3104C120.077 40.6915 120.111 41.0974 120.065 41.528H115.983C116.029 41.7715 116.117 41.9921 116.248 42.1898C116.382 42.3839 116.551 42.5374 116.756 42.6503C116.964 42.7633 117.195 42.8215 117.449 42.8251C117.718 42.8251 117.961 42.758 118.18 42.6239C118.402 42.4898 118.584 42.3045 118.725 42.068L119.842 42.3274C119.631 42.7968 119.311 43.1815 118.884 43.4815C118.457 43.778 117.979 43.9262 117.449 43.9262ZM115.946 40.6862H118.953C118.918 40.4321 118.828 40.2027 118.683 39.998C118.542 39.7898 118.364 39.6257 118.148 39.5057C117.936 39.3821 117.704 39.3204 117.449 39.3204C117.199 39.3204 116.966 39.3804 116.751 39.5004C116.539 39.6204 116.362 39.7845 116.221 39.9927C116.084 40.1974 115.992 40.4286 115.946 40.6862ZM126.855 43.9262C126.449 43.9262 126.059 43.8627 125.685 43.7356C125.311 43.6086 124.985 43.4268 124.706 43.1903C124.427 42.9503 124.228 42.6662 124.108 42.338L125.14 41.9515C125.2 42.1209 125.315 42.2727 125.484 42.4068C125.657 42.5374 125.862 42.6398 126.098 42.7139C126.338 42.788 126.59 42.8251 126.855 42.8251C127.138 42.8251 127.402 42.7792 127.649 42.6874C127.9 42.5956 128.101 42.4686 128.253 42.3062C128.408 42.1439 128.486 41.9533 128.486 41.7345C128.486 41.5086 128.405 41.3233 128.242 41.1786C128.083 41.0339 127.879 40.9192 127.628 40.8345C127.381 40.7498 127.123 40.6862 126.855 40.6439C126.336 40.5592 125.87 40.4357 125.458 40.2733C125.048 40.111 124.723 39.8833 124.483 39.5904C124.247 39.2974 124.129 38.9163 124.129 38.4468C124.129 38.0057 124.254 37.621 124.505 37.2927C124.759 36.9645 125.092 36.7104 125.505 36.5304C125.922 36.3469 126.372 36.2551 126.855 36.2551C127.254 36.2551 127.639 36.3186 128.009 36.4457C128.383 36.5692 128.712 36.751 128.994 36.991C129.28 37.2274 129.485 37.5151 129.608 37.8539L128.565 38.2298C128.505 38.0568 128.39 37.9068 128.221 37.7798C128.052 37.6492 127.847 37.5469 127.607 37.4727C127.37 37.3986 127.12 37.3616 126.855 37.3616C126.573 37.358 126.308 37.4039 126.061 37.4992C125.818 37.591 125.618 37.718 125.463 37.8804C125.308 38.0427 125.23 38.2316 125.23 38.4468C125.23 38.7115 125.302 38.9127 125.447 39.0504C125.592 39.188 125.786 39.2904 126.029 39.3574C126.276 39.421 126.552 39.4792 126.855 39.5321C127.342 39.6098 127.792 39.7386 128.205 39.9186C128.622 40.0986 128.955 40.3386 129.206 40.6386C129.46 40.9351 129.587 41.3004 129.587 41.7345C129.587 42.1721 129.46 42.5568 129.206 42.8886C128.955 43.2168 128.622 43.4727 128.205 43.6562C127.792 43.8362 127.342 43.9262 126.855 43.9262ZM133.292 43.9262C132.805 43.9262 132.36 43.8009 131.958 43.5503C131.559 43.2998 131.24 42.9645 131 42.5445C130.763 42.1209 130.645 41.6533 130.645 41.1415C130.645 40.7533 130.714 40.3915 130.851 40.0562C130.989 39.7174 131.178 39.421 131.418 39.1668C131.661 38.9092 131.944 38.708 132.265 38.5633C132.586 38.4186 132.928 38.3463 133.292 38.3463C133.779 38.3463 134.222 38.4716 134.621 38.7221C135.023 38.9727 135.343 39.3098 135.579 39.7333C135.819 40.1568 135.939 40.6262 135.939 41.1415C135.939 41.5262 135.87 41.8862 135.733 42.2215C135.595 42.5568 135.404 42.8533 135.161 43.1109C134.921 43.365 134.64 43.5645 134.319 43.7092C134.001 43.8539 133.659 43.9262 133.292 43.9262ZM133.292 42.8251C133.585 42.8251 133.848 42.7474 134.081 42.5921C134.314 42.4368 134.497 42.2321 134.631 41.978C134.769 41.7204 134.838 41.4415 134.838 41.1415C134.838 40.8345 134.767 40.5521 134.626 40.2945C134.488 40.0368 134.303 39.8321 134.07 39.6804C133.837 39.5251 133.578 39.4474 133.292 39.4474C133.003 39.4474 132.74 39.5251 132.503 39.6804C132.27 39.8357 132.085 40.0421 131.947 40.2998C131.813 40.5574 131.746 40.838 131.746 41.1415C131.746 41.4556 131.817 41.7398 131.958 41.9939C132.099 42.248 132.286 42.4509 132.519 42.6027C132.755 42.7509 133.013 42.8251 133.292 42.8251ZM137.04 43.7886V35.8475H138.141V43.7886H137.04ZM139.513 41.8033V38.4945H140.614V41.5333C140.614 41.7698 140.673 41.9851 140.789 42.1792C140.906 42.3733 141.061 42.5286 141.255 42.6451C141.449 42.758 141.663 42.8145 141.896 42.8145C142.132 42.8145 142.346 42.758 142.536 42.6451C142.73 42.5286 142.884 42.3733 142.997 42.1792C143.113 41.9851 143.172 41.7698 143.172 41.5333V38.4945H144.273L144.278 43.7886H143.177L143.172 43.2168C142.992 43.4356 142.767 43.6086 142.499 43.7356C142.231 43.8627 141.943 43.9262 141.636 43.9262C141.244 43.9262 140.888 43.8309 140.567 43.6403C140.246 43.4498 139.99 43.1939 139.799 42.8727C139.609 42.5515 139.513 42.1951 139.513 41.8033ZM148.453 39.5957H147.341L147.336 43.7886H146.234L146.24 39.5957H145.398V38.4945H146.24L146.234 36.8322H147.336L147.341 38.4945H148.453V39.5957ZM149.646 38.4945H150.747V43.7886H149.646V38.4945ZM150.207 37.7268C150.037 37.7268 149.896 37.6721 149.783 37.5627C149.67 37.4533 149.614 37.3157 149.614 37.1498C149.614 36.9874 149.67 36.8516 149.783 36.7422C149.896 36.6292 150.036 36.5727 150.202 36.5727C150.364 36.5727 150.502 36.6292 150.615 36.7422C150.727 36.8516 150.784 36.9874 150.784 37.1498C150.784 37.3157 150.727 37.4533 150.615 37.5627C150.505 37.6721 150.369 37.7268 150.207 37.7268ZM154.568 43.9262C154.08 43.9262 153.636 43.8009 153.233 43.5503C152.835 43.2998 152.515 42.9645 152.275 42.5445C152.039 42.1209 151.92 41.6533 151.92 41.1415C151.92 40.7533 151.989 40.3915 152.127 40.0562C152.265 39.7174 152.453 39.421 152.693 39.1668C152.937 38.9092 153.219 38.708 153.54 38.5633C153.862 38.4186 154.204 38.3463 154.568 38.3463C155.055 38.3463 155.498 38.4716 155.896 38.7221C156.299 38.9727 156.618 39.3098 156.855 39.7333C157.095 40.1568 157.215 40.6262 157.215 41.1415C157.215 41.5262 157.146 41.8862 157.008 42.2215C156.87 42.5568 156.68 42.8533 156.436 43.1109C156.196 43.365 155.916 43.5645 155.595 43.7092C155.277 43.8539 154.935 43.9262 154.568 43.9262ZM154.568 42.8251C154.86 42.8251 155.123 42.7474 155.356 42.5921C155.589 42.4368 155.773 42.2321 155.907 41.978C156.045 41.7204 156.113 41.4415 156.113 41.1415C156.113 40.8345 156.043 40.5521 155.902 40.2945C155.764 40.0368 155.579 39.8321 155.346 39.6804C155.113 39.5251 154.853 39.4474 154.568 39.4474C154.278 39.4474 154.015 39.5251 153.779 39.6804C153.546 39.8357 153.36 40.0421 153.223 40.2998C153.089 40.5574 153.022 40.838 153.022 41.1415C153.022 41.4556 153.092 41.7398 153.233 41.9939C153.375 42.248 153.562 42.4509 153.795 42.6027C154.031 42.7509 154.289 42.8251 154.568 42.8251ZM163.152 40.4692V43.7886H162.051V40.7392C162.051 40.5027 161.993 40.2874 161.876 40.0933C161.763 39.8992 161.61 39.7457 161.416 39.6327C161.225 39.5162 161.01 39.458 160.77 39.458C160.537 39.458 160.323 39.5162 160.129 39.6327C159.935 39.7457 159.78 39.8992 159.663 40.0933C159.547 40.2874 159.489 40.5027 159.489 40.7392V43.7886H158.388V38.4945H159.489V39.0557C159.672 38.8368 159.898 38.6639 160.166 38.5368C160.435 38.4098 160.724 38.3463 161.035 38.3463C161.426 38.3463 161.783 38.4416 162.104 38.6321C162.425 38.8227 162.679 39.0786 162.866 39.3998C163.057 39.721 163.152 40.0774 163.152 40.4692ZM166.115 43.8892C165.836 43.8715 165.564 43.815 165.3 43.7198C165.035 43.6245 164.802 43.4956 164.601 43.3333C164.403 43.1674 164.255 42.9733 164.156 42.7509L165.093 42.3486C165.139 42.4439 165.218 42.5374 165.331 42.6292C165.448 42.7209 165.584 42.7968 165.739 42.8568C165.894 42.9133 166.057 42.9415 166.226 42.9415C166.392 42.9415 166.545 42.9186 166.687 42.8727C166.831 42.8233 166.95 42.7492 167.041 42.6503C167.133 42.5515 167.179 42.4333 167.179 42.2956C167.179 42.1403 167.126 42.0204 167.02 41.9356C166.918 41.8474 166.789 41.7804 166.634 41.7345C166.478 41.6886 166.323 41.6445 166.168 41.6021C165.822 41.5245 165.504 41.4186 165.215 41.2845C164.929 41.1468 164.701 40.9721 164.532 40.7604C164.362 40.5451 164.278 40.2821 164.278 39.9715C164.278 39.6327 164.37 39.3398 164.553 39.0927C164.737 38.8421 164.977 38.6498 165.273 38.5157C165.573 38.3816 165.892 38.3145 166.231 38.3145C166.655 38.3145 167.043 38.4045 167.396 38.5845C167.749 38.7645 168.019 39.0115 168.206 39.3257L167.332 39.8445C167.28 39.7386 167.2 39.6433 167.094 39.5586C166.988 39.4739 166.868 39.4068 166.734 39.3574C166.6 39.3045 166.461 39.2745 166.316 39.2674C166.136 39.2604 165.968 39.2815 165.813 39.331C165.661 39.3768 165.54 39.451 165.448 39.5533C165.356 39.6557 165.31 39.7862 165.31 39.9451C165.31 40.1004 165.365 40.2168 165.474 40.2945C165.584 40.3686 165.721 40.4286 165.887 40.4745C166.057 40.5204 166.23 40.5715 166.406 40.628C166.72 40.7268 167.015 40.8486 167.29 40.9933C167.565 41.1345 167.788 41.3092 167.957 41.5174C168.127 41.7256 168.208 41.9798 168.201 42.2798C168.201 42.6115 168.1 42.9027 167.899 43.1533C167.701 43.4039 167.444 43.5945 167.126 43.725C166.808 43.8556 166.471 43.9103 166.115 43.8892Z" fill="#CFDDFF"/>
<path d="M50.7142 28.8664C49.7119 28.8664 48.7801 28.6829 47.919 28.3158C47.0719 27.9488 46.3378 27.4405 45.7166 26.7911C45.1096 26.1276 44.6649 25.3582 44.3825 24.4829L46.7754 23.4453C47.1566 24.3488 47.7072 25.0617 48.4272 25.5841C49.1472 26.0923 49.959 26.3464 50.8625 26.3464C51.3707 26.3464 51.8084 26.2688 52.1754 26.1135C52.5566 25.9441 52.846 25.7182 53.0436 25.4359C53.2554 25.1535 53.3613 24.8147 53.3613 24.4194C53.3613 23.9535 53.2201 23.5723 52.9378 23.2759C52.6695 22.9653 52.2601 22.7253 51.7095 22.5559L48.6813 21.5818C47.4531 21.2006 46.5284 20.6288 45.9072 19.8665C45.286 19.1041 44.9755 18.2077 44.9755 17.1771C44.9755 16.2736 45.1943 15.4759 45.6319 14.7842C46.0837 14.0924 46.7049 13.5559 47.4954 13.1748C48.3001 12.7795 49.2178 12.5818 50.2484 12.5818C51.1942 12.5818 52.0625 12.7512 52.853 13.0901C53.6436 13.4148 54.3213 13.8736 54.886 14.4665C55.4648 15.0453 55.8954 15.73 56.1777 16.5206L53.806 17.5794C53.4954 16.7889 53.0295 16.1818 52.4083 15.7583C51.7872 15.3206 51.0672 15.1018 50.2484 15.1018C49.7684 15.1018 49.3448 15.1865 48.9778 15.3559C48.6107 15.5112 48.3213 15.7371 48.1096 16.0336C47.9119 16.3159 47.8131 16.6547 47.8131 17.05C47.8131 17.4877 47.9543 17.8759 48.2366 18.2147C48.519 18.5394 48.9495 18.7935 49.5284 18.9771L52.4295 19.8877C53.686 20.2971 54.6248 20.8618 55.246 21.5818C55.8813 22.3018 56.1989 23.1912 56.1989 24.25C56.1989 25.1535 55.966 25.9511 55.5001 26.6429C55.0342 27.3347 54.3919 27.8782 53.573 28.2735C52.7542 28.6688 51.8013 28.8664 50.7142 28.8664ZM58.5592 28.6123V12.5818H61.3333V19.3582L60.9522 18.9559C61.2204 18.2641 61.658 17.7418 62.2651 17.3888C62.8863 17.0218 63.6063 16.8383 64.4251 16.8383C65.2721 16.8383 66.0204 17.0218 66.6698 17.3888C67.3333 17.7559 67.8486 18.2712 68.2156 18.9347C68.5827 19.5841 68.7662 20.3394 68.7662 21.2006V28.6123H65.9921V21.8571C65.9921 21.3488 65.8933 20.9112 65.6957 20.5441C65.498 20.1771 65.2227 19.8947 64.8698 19.6971C64.531 19.4853 64.1286 19.3794 63.6627 19.3794C63.211 19.3794 62.8086 19.4853 62.4557 19.6971C62.1027 19.8947 61.8275 20.1771 61.6298 20.5441C61.4322 20.9112 61.3333 21.3488 61.3333 21.8571V28.6123H58.5592ZM76.7449 28.8664C75.6155 28.8664 74.5849 28.6052 73.6532 28.0829C72.7355 27.5605 72.0014 26.8476 71.4508 25.9441C70.9144 25.0406 70.6461 24.01 70.6461 22.8523C70.6461 21.6947 70.9144 20.6641 71.4508 19.7606C72.0014 18.8571 72.7355 18.1441 73.6532 17.6218C74.5708 17.0994 75.6014 16.8383 76.7449 16.8383C77.8743 16.8383 78.8978 17.0994 79.8155 17.6218C80.7331 18.1441 81.4602 18.8571 81.9966 19.7606C82.5472 20.65 82.8225 21.6806 82.8225 22.8523C82.8225 24.01 82.5472 25.0406 81.9966 25.9441C81.4461 26.8476 80.7119 27.5605 79.7943 28.0829C78.8767 28.6052 77.8602 28.8664 76.7449 28.8664ZM76.7449 26.3253C77.3661 26.3253 77.9096 26.177 78.3755 25.8806C78.8555 25.5841 79.2296 25.1747 79.4978 24.6523C79.7802 24.1159 79.9214 23.5159 79.9214 22.8523C79.9214 22.1747 79.7802 21.5818 79.4978 21.0735C79.2296 20.5512 78.8555 20.1418 78.3755 19.8453C77.9096 19.5347 77.3661 19.3794 76.7449 19.3794C76.1096 19.3794 75.552 19.5347 75.072 19.8453C74.592 20.1418 74.2108 20.5512 73.9285 21.0735C73.6602 21.5818 73.5261 22.1747 73.5261 22.8523C73.5261 23.5159 73.6602 24.1159 73.9285 24.6523C74.2108 25.1747 74.592 25.5841 75.072 25.8806C75.552 26.177 76.1096 26.3253 76.7449 26.3253ZM84.9263 32.8476V17.0924H87.5309V19.3794L87.2768 18.8077C87.6721 18.1865 88.2086 17.7065 88.8862 17.3677C89.5639 17.0147 90.3474 16.8383 91.2368 16.8383C92.3239 16.8383 93.305 17.1065 94.1803 17.643C95.0556 18.1794 95.7474 18.8994 96.2556 19.803C96.7779 20.7065 97.0391 21.7229 97.0391 22.8523C97.0391 23.9676 96.785 24.9841 96.2768 25.9017C95.7685 26.8194 95.0768 27.5464 94.2015 28.0829C93.3262 28.6052 92.3309 28.8664 91.2156 28.8664C90.3827 28.8664 89.6133 28.7041 88.9074 28.3794C88.2156 28.0405 87.6651 27.5605 87.2557 26.9394L87.7004 26.3888V32.8476H84.9263ZM90.898 26.3253C91.5333 26.3253 92.098 26.177 92.5921 25.8806C93.0862 25.5841 93.4674 25.1747 93.7356 24.6523C94.018 24.13 94.1591 23.53 94.1591 22.8523C94.1591 22.1747 94.018 21.5818 93.7356 21.0735C93.4674 20.5512 93.0862 20.1418 92.5921 19.8453C92.098 19.5347 91.5333 19.3794 90.898 19.3794C90.2909 19.3794 89.7403 19.5277 89.2462 19.8241C88.7662 20.1206 88.3851 20.5371 88.1027 21.0735C87.8345 21.5959 87.7004 22.1888 87.7004 22.8523C87.7004 23.53 87.8345 24.13 88.1027 24.6523C88.3851 25.1747 88.7662 25.5841 89.2462 25.8806C89.7403 26.177 90.2909 26.3253 90.898 26.3253ZM99.387 28.6123V12.8359H106.036C107.081 12.8359 107.971 13.0195 108.705 13.3865C109.453 13.7395 110.025 14.2477 110.42 14.9112C110.829 15.5606 111.034 16.3512 111.034 17.283C111.034 18.003 110.836 18.6806 110.441 19.3159C110.06 19.9371 109.446 20.4524 108.599 20.8618V19.5277C109.375 19.8241 109.989 20.1912 110.441 20.6288C110.893 21.0665 111.21 21.5535 111.394 22.09C111.578 22.6265 111.669 23.1912 111.669 23.7841C111.669 25.2947 111.168 26.4806 110.166 27.3417C109.178 28.1888 107.801 28.6123 106.036 28.6123H99.387ZM102.267 26.0711H106.333C107.081 26.0711 107.674 25.8664 108.112 25.457C108.563 25.0335 108.789 24.4759 108.789 23.7841C108.789 23.0923 108.563 22.5347 108.112 22.1112C107.674 21.6876 107.081 21.4759 106.333 21.4759H102.267V26.0711ZM102.267 18.9559H106.185C106.778 18.9559 107.251 18.7865 107.603 18.4477C107.956 18.0947 108.133 17.643 108.133 17.0924C108.133 16.5418 107.956 16.1042 107.603 15.7794C107.251 15.4547 106.778 15.2924 106.185 15.2924H102.267V18.9559ZM117.904 28.8664C117.014 28.8664 116.238 28.6688 115.574 28.2735C114.925 27.8782 114.424 27.3276 114.071 26.6217C113.732 25.9159 113.563 25.09 113.563 24.1441V17.0924H116.337V23.9112C116.337 24.3912 116.428 24.8147 116.612 25.1817C116.81 25.5347 117.085 25.817 117.438 26.0288C117.805 26.2264 118.214 26.3253 118.666 26.3253C119.118 26.3253 119.52 26.2264 119.873 26.0288C120.226 25.817 120.501 25.5276 120.699 25.1606C120.897 24.7935 120.996 24.3559 120.996 23.8476V17.0924H123.77V28.6123H121.144V26.3464L121.377 26.7488C121.108 27.4547 120.664 27.9841 120.043 28.337C119.436 28.69 118.723 28.8664 117.904 28.8664ZM126.348 28.6123V17.0924H129.122V28.6123H126.348ZM126.348 15.8006V12.8359H129.122V15.8006H126.348ZM131.684 28.6123V12.5818H134.458V28.6123H131.684ZM142.377 28.8664C141.262 28.8664 140.266 28.6052 139.391 28.0829C138.516 27.5464 137.824 26.8194 137.316 25.9017C136.807 24.9841 136.553 23.9676 136.553 22.8523C136.553 21.7229 136.807 20.7065 137.316 19.803C137.824 18.8994 138.516 18.1794 139.391 17.643C140.28 17.1065 141.269 16.8383 142.356 16.8383C143.231 16.8383 144.007 17.0147 144.685 17.3677C145.377 17.7065 145.92 18.1865 146.316 18.8077L145.892 19.3794V12.5818H148.666V28.6123H146.04V26.3888L146.337 26.9394C145.941 27.5605 145.391 28.0405 144.685 28.3794C143.979 28.7041 143.21 28.8664 142.377 28.8664ZM142.673 26.3253C143.309 26.3253 143.866 26.177 144.346 25.8806C144.826 25.5841 145.2 25.1747 145.469 24.6523C145.751 24.13 145.892 23.53 145.892 22.8523C145.892 22.1888 145.751 21.5959 145.469 21.0735C145.2 20.5371 144.826 20.1206 144.346 19.8241C143.866 19.5277 143.309 19.3794 142.673 19.3794C142.052 19.3794 141.494 19.5347 141 19.8453C140.506 20.1418 140.118 20.5512 139.836 21.0735C139.567 21.5818 139.433 22.1747 139.433 22.8523C139.433 23.53 139.567 24.13 139.836 24.6523C140.118 25.1747 140.506 25.5841 141 25.8806C141.494 26.177 142.052 26.3253 142.673 26.3253ZM156.711 28.8664C155.525 28.8664 154.487 28.5982 153.598 28.0617C152.708 27.5253 152.016 26.7982 151.522 25.8806C151.028 24.9629 150.781 23.9465 150.781 22.8312C150.781 21.6735 151.028 20.65 151.522 19.7606C152.031 18.8571 152.715 18.1441 153.576 17.6218C154.452 17.0994 155.426 16.8383 156.499 16.8383C157.402 16.8383 158.193 16.9865 158.871 17.283C159.562 17.5794 160.148 17.9888 160.628 18.5112C161.108 19.0335 161.475 19.6335 161.729 20.3112C161.983 20.9747 162.11 21.6947 162.11 22.4712C162.11 22.6688 162.096 22.8735 162.068 23.0853C162.054 23.297 162.019 23.4806 161.962 23.6359H153.068V21.5182H160.395L159.082 22.5135C159.209 21.8641 159.174 21.2853 158.976 20.7771C158.793 20.2688 158.482 19.8665 158.045 19.57C157.621 19.2735 157.106 19.1253 156.499 19.1253C155.92 19.1253 155.405 19.2735 154.953 19.57C154.501 19.8524 154.155 20.2759 153.915 20.8406C153.689 21.3912 153.605 22.0618 153.661 22.8523C153.605 23.5582 153.696 24.1865 153.936 24.737C154.191 25.2735 154.558 25.69 155.038 25.9864C155.532 26.2829 156.096 26.4311 156.732 26.4311C157.367 26.4311 157.903 26.297 158.341 26.0288C158.793 25.7606 159.146 25.4006 159.4 24.9488L161.645 26.05C161.419 26.6006 161.066 27.0876 160.586 27.5111C160.106 27.9347 159.534 28.2664 158.871 28.5064C158.221 28.7464 157.501 28.8664 156.711 28.8664ZM164.213 28.6123V17.0924H166.818V19.6547L166.606 19.2735C166.875 18.4124 167.291 17.8124 167.856 17.4736C168.435 17.1347 169.126 16.9653 169.931 16.9653H170.609V19.4218H169.613C168.823 19.4218 168.187 19.6688 167.707 20.1629C167.227 20.6429 166.988 21.3206 166.988 22.1959V28.6123H164.213Z" fill="white"/>
<path d="M33.6575 45.0831H3.9256C2.97839 45.0855 2.06852 44.7142 1.39377 44.0498C0.719029 43.3853 0.333956 42.4816 0.322266 41.535L5.54976 13.6907C5.54976 13.0923 5.78698 12.5183 6.20949 12.0944C6.632 11.6704 7.20537 11.4311 7.80406 11.4287H30.427C30.7242 11.4287 31.0185 11.4872 31.293 11.6009C31.5676 11.7146 31.8171 11.8812 32.0273 12.0912C32.2374 12.3013 32.4041 12.5506 32.5179 12.8251C32.6316 13.0995 32.6901 13.3936 32.6901 13.6907L37.2609 41.4906C37.2609 41.9631 37.1676 42.431 36.9864 42.8675C36.8052 43.3039 36.5396 43.7003 36.2049 44.034C35.8702 44.3678 35.4729 44.6322 35.0358 44.8122C34.5987 44.9922 34.1303 45.0843 33.6575 45.0831Z" fill="white"/>
<path d="M11.1942 17.3979C12.0176 17.3979 12.6852 16.7307 12.6852 15.9077C12.6852 15.0847 12.0176 14.4175 11.1942 14.4175C10.3707 14.4175 9.70312 15.0847 9.70312 15.9077C9.70312 16.7307 10.3707 17.3979 11.1942 17.3979Z" fill="#004BFF"/>
<path d="M26.3875 17.3979C27.211 17.3979 27.8786 16.7307 27.8786 15.9077C27.8786 15.0847 27.211 14.4175 26.3875 14.4175C25.564 14.4175 24.8965 15.0847 24.8965 15.9077C24.8965 16.7307 25.564 17.3979 26.3875 17.3979Z" fill="#004BFF"/>
<path fill-rule="evenodd" clip-rule="evenodd" d="M18.7922 1.02327C16.902 1.02327 15.0893 1.77373 13.7528 3.10954C12.4162 4.44535 11.6654 6.25711 11.6654 8.14623V15.6772C11.6654 15.9369 11.4548 16.1474 11.195 16.1474C10.9352 16.1474 10.7246 15.9369 10.7246 15.6772V8.14623C10.7246 6.00773 11.5746 3.95682 13.0875 2.44467C14.6005 0.932524 16.6525 0.0830078 18.7922 0.0830078C20.9318 0.0830078 22.9838 0.932523 24.4968 2.44467C26.0098 3.95682 26.8597 6.00773 26.8597 8.14623V15.6772C26.8597 15.9369 26.6491 16.1474 26.3893 16.1474C26.1296 16.1474 25.919 15.9369 25.919 15.6772V8.14623C25.919 6.25711 25.1681 4.44535 23.8316 3.10954C22.495 1.77373 20.6823 1.02327 18.7922 1.02327Z" fill="#92B2FF"/>
<path d="M22.2625 37.0369C22.1533 36.7541 21.9628 36.5099 21.7149 36.3351C21.467 36.1604 21.1729 36.063 20.8697 36.0552C20.5664 36.0473 20.2677 36.1294 20.0111 36.2911C19.7545 36.4528 19.5516 36.6868 19.4279 36.9636C19.3043 37.2405 19.2654 37.5477 19.3163 37.8466C19.3672 38.1455 19.5055 38.4226 19.7138 38.643C19.9221 38.8634 20.191 39.0172 20.4866 39.085C20.7823 39.1527 21.0914 39.1315 21.375 39.0239C21.7496 38.8696 22.0507 38.5774 22.2159 38.2076C22.3811 37.8378 22.3977 37.4187 22.2625 37.0369ZM28.4751 34.7838C28.3721 34.4931 28.1851 34.2395 27.938 34.0548C27.6908 33.8702 27.3944 33.7629 27.0863 33.7464C26.7782 33.7299 26.472 33.805 26.2066 33.9622C25.9411 34.1194 25.7282 34.3517 25.5946 34.6298C25.4611 34.9078 25.4129 35.2191 25.4563 35.5245C25.4996 35.8299 25.6324 36.1156 25.838 36.3455C26.0436 36.5755 26.3128 36.7395 26.6115 36.8168C26.9103 36.894 27.2252 36.8811 27.5166 36.7797C27.9078 36.641 28.2281 36.3533 28.4077 35.9793C28.5873 35.6054 28.6116 35.1756 28.4751 34.7838ZM29.0165 29.6478C28.6793 27.3415 28.3154 25.0441 27.9604 22.7378C27.941 22.5839 27.8896 22.4359 27.8095 22.3031C27.6888 22.1289 27.5097 22.0035 27.3046 21.9498C27.0995 21.8961 26.8819 21.9176 26.6912 22.0104C22.5495 23.5006 18.4254 24.9997 14.3192 26.5077L14.1417 26.5698C14.1208 26.5832 14.0972 26.5916 14.0725 26.5943C14.0479 26.597 14.0229 26.5939 13.9997 26.5853C13.9764 26.5767 13.9555 26.5628 13.9386 26.5447C13.9216 26.5266 13.9091 26.5048 13.9021 26.4811L13.3873 25.532C13.2834 25.287 13.1313 25.0653 12.94 24.8802C12.7488 24.6951 12.5222 24.5502 12.2739 24.4542C12.0256 24.3583 11.7605 24.3131 11.4944 24.3215C11.2283 24.3299 10.9665 24.3916 10.7247 24.503C10.281 24.6538 9.83721 24.8312 9.40233 24.9731C9.18496 25.0225 8.99161 25.1461 8.85554 25.3225C8.71948 25.499 8.6492 25.7173 8.65681 25.94L8.80769 26.3658C8.94169 26.5442 9.13332 26.6709 9.35007 26.7242C9.56683 26.7776 9.79538 26.7543 9.99696 26.6585L11.3549 26.1618C11.6478 26.0553 11.6921 26.0819 11.8341 26.3569C12.4731 27.5455 13.1122 28.7253 13.7423 29.9051L14.2482 30.7921L14.6653 30.6413C14.8246 30.584 14.9931 30.5569 15.1623 30.5615C15.4991 30.5636 15.8244 30.6838 16.0815 30.9011C16.3387 31.1184 16.5113 31.419 16.5694 31.7505C16.6275 32.0821 16.5674 32.4234 16.3994 32.7151C16.2315 33.0069 15.9664 33.2304 15.6505 33.3468C15.7747 33.5952 15.9078 33.8347 16.041 34.0831C16.3099 34.6511 16.7864 35.0945 17.3724 35.3222C17.9585 35.5499 18.6095 35.5445 19.1917 35.3072L27.3214 32.3533C27.5277 32.2768 27.7267 32.1818 27.916 32.0695C28.3244 31.8259 28.6487 31.4635 28.8454 31.0308C29.042 30.598 29.1018 30.1155 29.0165 29.6478Z" fill="#004BFF"/>
<path opacity="0.5" fill-rule="evenodd" clip-rule="evenodd" d="M12.1794 29.4289C12.2958 29.7489 12.1306 30.1026 11.8105 30.219L6.1481 32.2769C5.82795 32.3933 5.47404 32.2282 5.35762 31.9082C5.2412 31.5883 5.40636 31.2345 5.72651 31.1182L11.3889 29.0602C11.709 28.9439 12.063 29.1089 12.1794 29.4289Z" fill="#004BFF"/>
<path opacity="0.5" fill-rule="evenodd" clip-rule="evenodd" d="M14.0386 35.6294C14.1552 35.9493 13.9901 36.3031 13.67 36.4196L9.62292 37.8921C9.3028 38.0086 8.94883 37.8436 8.8323 37.5237C8.71577 37.2037 8.8808 36.85 9.20092 36.7335L13.248 35.261C13.5681 35.1445 13.9221 35.3095 14.0386 35.6294Z" fill="#004BFF"/>
<path d="M11.0598 34.1451C10.9335 34.1437 10.8107 34.104 10.7076 34.0311C10.6045 33.9582 10.5262 33.8556 10.4829 33.7371C10.4533 33.6615 10.4393 33.5807 10.4417 33.4996C10.4441 33.4185 10.4628 33.3387 10.4968 33.265C10.5307 33.1913 10.5793 33.1252 10.6394 33.0706C10.6995 33.0161 10.7701 32.9743 10.8468 32.9476L14.9382 31.4574C15.0924 31.395 15.265 31.3965 15.4182 31.4613C15.5713 31.5262 15.6924 31.6492 15.7547 31.8033C15.8171 31.9574 15.8157 32.13 15.7508 32.283C15.6859 32.436 15.5628 32.5571 15.4086 32.6194L11.3171 34.1008C11.2355 34.1339 11.1477 34.149 11.0598 34.1451Z" fill="#004BFF"/>
</svg>
