<svg width="101" height="28" viewBox="0 0 101 28" fill="none" xmlns="http://www.w3.org/2000/svg">
<g clip-path="url(#clip0_0_2372)">
<path d="M27.1986 8.49635C26.5103 6.81991 25.4925 5.29867 24.2055 4.02279C22.9208 2.75251 21.4014 1.74414 19.7319 1.05382C17.9778 0.338339 16.0986 -0.0199961 14.2043 -0.00019881C12.3121 -0.0174524 10.4355 0.343642 8.68478 1.06187C7.01866 1.74666 5.50422 2.75381 4.22839 4.02549C2.95257 5.29717 1.9405 6.80833 1.2503 8.47222C0.533803 10.2037 0.172628 12.0616 0.188229 13.9354C0.174195 15.8248 0.535189 17.6981 1.2503 19.4469C1.9279 21.1213 2.93477 22.6425 4.21122 23.9205C5.50072 25.2022 7.02869 26.219 8.70892 26.9136C10.4645 27.6464 12.3503 28.0159 14.2526 27.9998C16.1365 28.0137 18.0034 27.6441 19.74 26.9136C20.1575 26.739 20.5657 26.543 20.9629 26.3262L17.2779 22.609C16.2874 22.9402 15.2486 23.1033 14.2043 23.0918C13.009 23.1041 11.8228 22.8827 10.7124 22.44C9.67659 22.0216 8.74142 21.3881 7.96869 20.5814C7.18859 19.7504 6.58385 18.7708 6.19053 17.701C5.75376 16.4998 5.5384 15.2295 5.5549 13.9515C5.50893 12.2994 5.87679 10.662 6.62501 9.18831C7.32002 7.8511 8.37661 6.73596 9.67444 5.96992C11.0451 5.19606 12.5984 4.80427 14.1721 4.83543C15.3756 4.81947 16.5704 5.04094 17.6882 5.48716C18.7377 5.91986 19.6837 6.56973 20.4641 7.39405C21.2477 8.22539 21.8577 9.20464 22.2583 10.2745C22.6952 11.4449 22.9108 12.6863 22.894 13.9354C22.9037 14.935 22.7764 15.9313 22.5158 16.8964L23.0147 17.3952L26.4986 20.9193C27.6825 18.8043 28.2901 16.4154 28.2606 13.9918C28.2777 12.1074 27.9166 10.2387 27.1986 8.49635ZM21.9124 18.5538L18.9032 15.5446C18.6934 15.3305 18.443 15.1605 18.1667 15.0444C17.8904 14.9282 17.5937 14.8684 17.294 14.8684C16.9943 14.8684 16.6975 14.9282 16.4212 15.0444C16.1449 15.1605 15.8945 15.3305 15.6848 15.5446C15.4697 15.7538 15.2987 16.004 15.182 16.2804C15.0653 16.5568 15.0051 16.8538 15.0051 17.1538C15.0051 17.4539 15.0653 17.7509 15.182 18.0272C15.2987 18.3036 15.4697 18.5538 15.6848 18.763L22.4112 25.4895C23.0668 25.0355 23.6783 24.5209 24.2377 23.9527C24.7411 23.454 25.2038 22.9159 25.6216 22.3435L21.9124 18.5538Z" fill="#00030C"/>
<path d="M21.9124 18.554C21.2271 19.9258 20.167 21.0752 18.8549 21.8689L15.709 18.723C15.4939 18.5138 15.3229 18.2636 15.2062 17.9872C15.0894 17.7108 15.0293 17.4138 15.0293 17.1138C15.0293 16.8137 15.0894 16.5167 15.2062 16.2403C15.3229 15.9639 15.4939 15.7138 15.709 15.5046C15.9187 15.2905 16.1691 15.1204 16.4454 15.0043C16.7217 14.8882 17.0184 14.8284 17.3182 14.8284C17.6179 14.8284 17.9146 14.8882 18.1909 15.0043C18.4672 15.1204 18.7176 15.2905 18.9274 15.5046L21.9124 18.554Z" fill="#00030C"/>
<path d="M28.8238 25.4574C27.9668 26.3045 26.8104 26.7796 25.6054 26.7796C24.4005 26.7796 23.244 26.3045 22.3871 25.4574L15.6606 18.731C15.4455 18.5218 15.2746 18.2716 15.1578 17.9952C15.0411 17.7188 14.981 17.4218 14.981 17.1218C14.981 16.8218 15.0411 16.5248 15.1578 16.2484C15.2746 15.972 15.4455 15.7218 15.6606 15.5126C15.8704 15.2985 16.1208 15.1285 16.3971 15.0123C16.6734 14.8962 16.9701 14.8364 17.2698 14.8364C17.5695 14.8364 17.8662 14.8962 18.1426 15.0123C18.4189 15.1285 18.6692 15.2985 18.879 15.5126L21.9123 18.554L25.6457 22.2954L28.8238 25.4574Z" fill="#00030C"/>
<path d="M40.6191 27.9599C39.0948 27.9902 37.588 27.6301 36.2421 26.9139C34.9914 26.2497 33.9538 25.2456 33.249 24.0173C32.5061 22.7122 32.1308 21.2302 32.1628 19.7288V8.9231H37.2639V19.6162C37.2454 20.299 37.3773 20.9774 37.6501 21.6036C37.888 22.1378 38.2952 22.5789 38.8088 22.8587C39.3649 23.1557 39.9889 23.3027 40.6191 23.2852C41.0771 23.3101 41.5352 23.2369 41.9626 23.0704C42.39 22.9038 42.7769 22.6479 43.0973 22.3196C43.7248 21.5635 44.0412 20.597 43.9823 19.6162V8.9231H49.0432V19.7288C49.0772 21.2402 48.7108 22.7336 47.9812 24.0576C47.2864 25.284 46.2528 26.2841 45.0042 26.938C43.6495 27.6361 42.1428 27.9872 40.6191 27.9599Z" fill="#00030C"/>
<path d="M55.6088 5.90564C55.2298 5.92064 54.8518 5.85688 54.4986 5.7184C54.1455 5.57991 53.8249 5.3697 53.5571 5.10104C53.2911 4.828 53.0828 4.50421 52.9445 4.14895C52.8063 3.7937 52.741 3.41425 52.7525 3.03322C52.7447 2.65628 52.8118 2.28153 52.9499 1.93071C53.088 1.57989 53.2944 1.25999 53.5571 0.989544C53.8276 0.719014 54.1487 0.504415 54.5021 0.358002C54.8555 0.211589 55.2343 0.13623 55.6169 0.13623C55.9994 0.13623 56.3782 0.211589 56.7316 0.358002C57.0851 0.504415 57.4062 0.719014 57.6767 0.989544C58.202 1.5392 58.4909 2.27294 58.4812 3.03322C58.4896 3.41386 58.4229 3.79241 58.2848 4.14723C58.1467 4.50204 57.9401 4.82616 57.6767 5.10104C57.4073 5.37215 57.0841 5.58382 56.728 5.7224C56.3718 5.86098 55.9906 5.9234 55.6088 5.90564ZM53.0583 27.5735V8.92288H58.1594V27.5735H53.0583Z" fill="#00030C"/>
<path d="M80.2456 27.5817H74.2996L70.2284 21.8369L67.7583 18.3449L61.0881 8.9231H67.0743L70.8077 14.2093L72.6663 16.8403L80.2456 27.5817Z" fill="#00030C"/>
<path d="M80.2456 27.5817H74.2996L70.2284 21.8369L67.7583 18.3449L61.0881 8.9231H67.0743L70.8077 14.2093L72.6663 16.8403L80.2456 27.5817Z" fill="#00030C"/>
<path d="M69.2789 23.269L66.4226 27.5817H60.7019L66.5352 19.3989L68.9168 22.7621L69.2789 23.269Z" fill="#00030C"/>
<path d="M79.8996 8.9231L74.5088 16.6633L73.9778 15.907L71.749 12.753L74.2191 8.9231H79.8996Z" fill="#00030C"/>
<path d="M90.1343 27.9598C88.5133 27.9804 86.9198 27.5395 85.54 26.6885C84.1734 25.8413 83.0613 24.6403 82.3216 23.2127C81.5391 21.6819 81.1414 19.9834 81.163 18.2644C81.1378 16.5347 81.5356 14.8249 82.3216 13.2839C83.0587 11.8544 84.1713 10.6527 85.54 9.80807C86.9175 8.95094 88.512 8.50695 90.1343 8.52876C91.38 8.50724 92.613 8.78307 93.7308 9.33335C94.7572 9.85155 95.6287 10.6314 96.2572 11.5943C96.8909 12.5689 97.2444 13.699 97.2791 14.8609V21.5793C97.2494 22.7472 96.8956 23.8837 96.2572 24.8621C95.6195 25.817 94.7504 26.5948 93.7308 27.123C92.617 27.688 91.3831 27.9751 90.1343 27.9598ZM91.0595 23.2851C91.7008 23.3101 92.34 23.1974 92.9341 22.9545C93.5281 22.7117 94.0632 22.3442 94.5032 21.877C95.3979 20.8757 95.8681 19.5658 95.8147 18.2242C95.8308 17.3188 95.6235 16.4235 95.2113 15.6173C94.8272 14.8769 94.2414 14.2604 93.5216 13.8391C92.763 13.4054 91.901 13.1857 91.0274 13.2035C90.1805 13.1962 89.3471 13.4157 88.6136 13.8391C87.9075 14.2675 87.3339 14.8829 86.9561 15.6173C86.5466 16.4242 86.3422 17.3195 86.3607 18.2242C86.3375 19.1422 86.5421 20.0516 86.9561 20.8713C87.3318 21.6071 87.9059 22.2231 88.6136 22.6494C89.3549 23.0823 90.2013 23.3022 91.0595 23.2851ZM95.5412 27.5736V22.5288L96.3458 17.9667L95.5412 13.4931V8.92301H100.562V27.5736H95.5412Z" fill="#00030C"/>
</g>
<defs>
<clipPath id="clip0_0_2372">
<rect width="100.374" height="28" fill="white" transform="translate(0.188232)"/>
</clipPath>
</defs>
</svg>
