<svg width="109" height="30" viewBox="0 0 109 30" fill="none" xmlns="http://www.w3.org/2000/svg">
<g clip-path="url(#clip0_0_1433)">
<path d="M29.543 9.10331C28.8056 7.30711 27.7151 5.67722 26.3361 4.3102C24.9597 2.94919 23.3318 1.8688 21.543 1.12917C19.6636 0.362576 17.6502 -0.0213547 15.6206 -0.000143257C13.5932 -0.0186293 11.5826 0.368258 9.70681 1.13779C7.92169 1.87149 6.29906 2.95058 4.93211 4.31309C3.56516 5.67561 2.4808 7.29471 1.74129 9.07744C0.973622 10.9326 0.586649 12.9232 0.603363 14.9309C0.588328 16.9552 0.975107 18.9623 1.74129 20.8361C2.46729 22.63 3.54608 24.2599 4.91371 25.6292C6.29532 27.0024 7.93243 28.0919 9.73267 28.8361C11.6136 29.6213 13.6342 30.0172 15.6723 29.9999C17.6908 30.0147 19.6911 29.6188 21.5516 28.8361C21.999 28.649 22.4363 28.4389 22.862 28.2068L18.9137 24.224C17.8525 24.5788 16.7395 24.7536 15.6206 24.7412C14.3399 24.7545 13.0689 24.5173 11.8792 24.043C10.7695 23.5947 9.7675 22.9159 8.93957 22.0516C8.10375 21.1612 7.45581 20.1116 7.0344 18.9654C6.56644 17.6785 6.33569 16.3174 6.35336 14.9481C6.30412 13.178 6.69825 11.4236 7.49992 9.84469C8.24457 8.41196 9.37663 7.21717 10.7672 6.39641C12.2358 5.56727 13.9 5.1475 15.5861 5.18089C16.8756 5.16379 18.1557 5.40107 19.3534 5.87917C20.4778 6.34278 21.4913 7.03906 22.3275 7.92227C23.1671 8.81299 23.8206 9.86218 24.2499 11.0085C24.718 12.2625 24.9489 13.5925 24.931 14.9309C24.9413 16.0019 24.805 17.0693 24.5258 18.1033L25.0603 18.6378L28.793 22.4137C30.0615 20.1475 30.7125 17.588 30.681 14.9912C30.6992 12.9722 30.3123 10.9701 29.543 9.10331ZM23.8792 19.8792L20.6551 16.655C20.4303 16.4257 20.1621 16.2434 19.866 16.119C19.57 15.9946 19.2521 15.9305 18.931 15.9305C18.6098 15.9305 18.2919 15.9946 17.9959 16.119C17.6998 16.2434 17.4316 16.4257 17.2068 16.655C16.9764 16.8792 16.7932 17.1472 16.6681 17.4434C16.543 17.7395 16.4786 18.0577 16.4786 18.3792C16.4786 18.7006 16.543 19.0188 16.6681 19.315C16.7932 19.6111 16.9764 19.8792 17.2068 20.1033L24.4137 27.3102C25.1161 26.8238 25.7713 26.2725 26.3706 25.6637C26.91 25.1293 27.4058 24.5528 27.8534 23.9395L23.8792 19.8792Z" fill="white"/>
<path d="M23.8793 19.8794C23.145 21.3492 22.0092 22.5807 20.6034 23.4312L17.2327 20.0605C17.0023 19.8363 16.8191 19.5683 16.694 19.2721C16.569 18.976 16.5045 18.6578 16.5045 18.3363C16.5045 18.0149 16.569 17.6967 16.694 17.4005C16.8191 17.1044 17.0023 16.8363 17.2327 16.6122C17.4575 16.3828 17.7257 16.2006 18.0218 16.0762C18.3178 15.9518 18.6357 15.8877 18.9569 15.8877C19.278 15.8877 19.5959 15.9518 19.8919 16.0762C20.188 16.2006 20.4563 16.3828 20.681 16.6122L23.8793 19.8794Z" fill="white"/>
<path d="M31.2845 27.2759C30.3663 28.1835 29.1273 28.6925 27.8362 28.6925C26.5451 28.6925 25.3061 28.1835 24.3879 27.2759L17.181 20.069C16.9506 19.8449 16.7674 19.5768 16.6423 19.2807C16.5173 18.9845 16.4528 18.6663 16.4528 18.3449C16.4528 18.0234 16.5173 17.7052 16.6423 17.4091C16.7674 17.1129 16.9506 16.8449 17.181 16.6207C17.4058 16.3914 17.674 16.2091 17.9701 16.0847C18.2661 15.9603 18.584 15.8962 18.9052 15.8962C19.2263 15.8962 19.5442 15.9603 19.8403 16.0847C20.1363 16.2091 20.4046 16.3914 20.6293 16.6207L23.8793 19.8793L27.8793 23.888L31.2845 27.2759Z" fill="white"/>
<path d="M43.9224 29.9569C42.2892 29.9893 40.6748 29.6035 39.2328 28.8362C37.8927 28.1245 36.7811 27.0487 36.0259 25.7327C35.23 24.3344 34.8278 22.7465 34.8621 21.1379V9.5603H40.3276V21.0172C40.3078 21.7487 40.449 22.4757 40.7414 23.1465C40.9963 23.7189 41.4325 24.1915 41.9828 24.4913C42.5786 24.8096 43.2471 24.967 43.9224 24.9482C44.4131 24.975 44.9039 24.8965 45.3619 24.7181C45.8198 24.5397 46.2343 24.2654 46.5776 23.9138C47.2499 23.1036 47.5889 22.0681 47.5259 21.0172V9.5603H52.9483V21.1379C52.9847 22.7572 52.5921 24.3573 51.8103 25.7758C51.066 27.0898 49.9585 28.1614 48.6207 28.862C47.1693 29.6099 45.555 29.9861 43.9224 29.9569Z" fill="white"/>
<path d="M59.9828 6.3275C59.5766 6.34358 59.1716 6.27527 58.7933 6.12689C58.4149 5.97851 58.0714 5.75328 57.7845 5.46543C57.4995 5.17289 57.2762 4.82597 57.1281 4.44534C56.98 4.06471 56.9101 3.65816 56.9224 3.24992C56.914 2.84605 56.9859 2.44453 57.1339 2.06865C57.2819 1.69278 57.503 1.35002 57.7845 1.06026C58.0743 0.770407 58.4183 0.540479 58.797 0.383608C59.1756 0.226737 59.5815 0.145996 59.9914 0.145996C60.4012 0.145996 60.8071 0.226737 61.1858 0.383608C61.5644 0.540479 61.9085 0.770407 62.1983 1.06026C62.7611 1.64918 63.0707 2.43533 63.0603 3.24992C63.0693 3.65774 62.9978 4.06333 62.8499 4.44349C62.7019 4.82365 62.4805 5.17092 62.1983 5.46543C61.9097 5.75591 61.5634 5.98269 61.1818 6.13117C60.8002 6.27965 60.3918 6.34653 59.9828 6.3275ZM57.25 29.543V9.56026H62.7155V29.543H57.25Z" fill="white"/>
<path d="M86.3793 29.5517H80.0086L75.6466 23.3965L73 19.6551L65.8535 9.5603H72.2672L76.2672 15.2241L78.2586 18.0431L86.3793 29.5517Z" fill="white"/>
<path d="M86.3793 29.5517H80.0086L75.6466 23.3965L73 19.6551L65.8535 9.5603H72.2672L76.2672 15.2241L78.2586 18.0431L86.3793 29.5517Z" fill="white"/>
<path d="M74.6294 24.9312L71.569 29.5519H65.4397L71.6897 20.7847L74.2414 24.3881L74.6294 24.9312Z" fill="white"/>
<path d="M86.0086 9.5603L80.2328 17.8534L79.6638 17.0431L77.2759 13.6638L79.9224 9.5603H86.0086Z" fill="white"/>
<path d="M96.9742 29.9569C95.2374 29.9791 93.5301 29.5066 92.0518 28.5949C90.5875 27.6872 89.396 26.4004 88.6035 24.8707C87.7651 23.2306 87.339 21.4109 87.3621 19.569C87.3351 17.7157 87.7613 15.8839 88.6035 14.2328C89.3932 12.7012 90.5853 11.4137 92.0518 10.5087C93.5277 9.59031 95.236 9.1146 96.9742 9.13797C98.3089 9.11492 99.6299 9.41044 100.828 10C101.927 10.5552 102.861 11.3909 103.535 12.4225C104.213 13.4667 104.592 14.6775 104.629 15.9225V23.1207C104.598 24.372 104.219 25.5897 103.535 26.638C102.851 27.6611 101.92 28.4945 100.828 29.0604C99.6343 29.6657 98.3122 29.9733 96.9742 29.9569ZM97.9656 24.9483C98.6527 24.9752 99.3375 24.8544 99.974 24.5942C100.61 24.3339 101.184 23.9403 101.655 23.4397C102.614 22.3669 103.118 20.9634 103.06 19.5259C103.078 18.5559 102.856 17.5966 102.414 16.7328C102.002 15.9396 101.375 15.279 100.603 14.8276C99.7907 14.3629 98.8671 14.1276 97.9311 14.1466C97.0237 14.1388 96.1307 14.374 95.3449 14.8276C94.5884 15.2866 93.9738 15.946 93.569 16.7328C93.1303 17.5974 92.9112 18.5566 92.9311 19.5259C92.9062 20.5095 93.1254 21.4839 93.569 22.3621C93.9715 23.1505 94.5867 23.8104 95.3449 24.2673C96.1392 24.731 97.046 24.9667 97.9656 24.9483ZM102.767 29.5431V24.138L103.629 19.25L102.767 14.4569V9.56038H108.147V29.5431H102.767Z" fill="white"/>
</g>
<defs>
<clipPath id="clip0_0_1433">
<rect width="107.543" height="30" fill="white" transform="translate(0.603455)"/>
</clipPath>
</defs>
</svg>
