<svg width="151" height="19" viewBox="0 0 151 19" fill="none" xmlns="http://www.w3.org/2000/svg">
<rect x="101.41" y="1.08203" width="49" height="17" rx="1.5" fill="white"/>
<rect x="101.41" y="1.08203" width="49" height="17" rx="1.5" stroke="#C0C0C0"/>
<g clip-path="url(#clip0_46_1569)">
<path d="M121.173 6.54688H119.094C119.025 6.54683 118.958 6.57138 118.906 6.61609C118.853 6.6608 118.819 6.72274 118.808 6.79075L117.967 12.1234C117.963 12.1481 117.965 12.1734 117.971 12.1975C117.978 12.2216 117.99 12.2439 118.007 12.263C118.023 12.282 118.043 12.2972 118.066 12.3077C118.089 12.3181 118.113 12.3235 118.138 12.3235H119.131C119.2 12.3235 119.267 12.2989 119.319 12.2542C119.371 12.2094 119.406 12.1474 119.417 12.0793L119.644 10.641C119.654 10.573 119.689 10.511 119.741 10.4663C119.793 10.4215 119.86 10.3969 119.929 10.3968H120.587C121.957 10.3968 122.748 9.73394 122.954 8.42031C123.047 7.8456 122.958 7.39404 122.689 7.0778C122.393 6.73054 121.869 6.54688 121.173 6.54688ZM121.413 8.49451C121.299 9.24072 120.729 9.24072 120.178 9.24072H119.864L120.084 7.84712C120.091 7.80635 120.111 7.76922 120.143 7.7424C120.174 7.71559 120.214 7.70086 120.255 7.70086H120.399C120.775 7.70086 121.129 7.70086 121.312 7.91493C121.421 8.04265 121.455 8.23239 121.413 8.49451ZM127.389 8.47049H126.394C126.352 8.47049 126.312 8.48522 126.281 8.51203C126.25 8.53884 126.229 8.57598 126.222 8.61675L126.178 8.89529L126.109 8.79433C125.893 8.48143 125.412 8.37683 124.932 8.37683C123.832 8.37683 122.892 9.21031 122.709 10.3795C122.614 10.9627 122.749 11.5204 123.08 11.9093C123.384 12.2669 123.818 12.4159 124.334 12.4159C125.221 12.4159 125.713 11.8458 125.713 11.8458L125.668 12.1225C125.664 12.1472 125.666 12.1725 125.673 12.1967C125.679 12.2208 125.691 12.2432 125.708 12.2622C125.724 12.2813 125.744 12.2966 125.767 12.3072C125.789 12.3177 125.814 12.3231 125.839 12.3232H126.736C126.805 12.3232 126.872 12.2986 126.924 12.2538C126.977 12.2091 127.011 12.1471 127.022 12.079L127.56 8.67057C127.564 8.64589 127.563 8.62063 127.556 8.59656C127.549 8.57249 127.537 8.55017 127.521 8.53115C127.505 8.51212 127.485 8.49684 127.462 8.48637C127.439 8.4759 127.414 8.47048 127.389 8.47049ZM126.001 10.4087C125.905 10.9776 125.454 11.3596 124.878 11.3596C124.589 11.3596 124.357 11.2668 124.209 11.091C124.062 10.9165 124.006 10.6681 124.053 10.3914C124.142 9.82729 124.602 9.4329 125.169 9.4329C125.452 9.4329 125.681 9.52686 125.833 9.70414C125.985 9.88324 126.045 10.1332 126.001 10.4087ZM132.693 8.47049H131.692C131.645 8.47056 131.599 8.48215 131.557 8.50425C131.515 8.52634 131.48 8.55828 131.453 8.59729L130.073 10.6304L129.488 8.67665C129.47 8.61706 129.433 8.56484 129.383 8.52771C129.333 8.49058 129.273 8.47052 129.211 8.47049H128.227C128.2 8.47041 128.172 8.47693 128.148 8.48951C128.123 8.50208 128.102 8.52034 128.086 8.54277C128.07 8.5652 128.059 8.59114 128.055 8.61845C128.051 8.64576 128.054 8.67364 128.063 8.69976L129.165 11.9346L128.129 13.3975C128.11 13.4234 128.099 13.4539 128.097 13.4857C128.095 13.5174 128.101 13.5491 128.116 13.5774C128.131 13.6057 128.153 13.6294 128.18 13.6459C128.207 13.6624 128.238 13.6712 128.27 13.6712H129.27C129.316 13.6712 129.362 13.66 129.404 13.6384C129.445 13.6168 129.48 13.5854 129.507 13.5471L132.836 8.74264C132.854 8.71664 132.864 8.68621 132.866 8.65463C132.868 8.62305 132.861 8.59153 132.847 8.5635C132.832 8.53546 132.81 8.51197 132.783 8.49557C132.756 8.47918 132.725 8.4705 132.693 8.47049Z" fill="#253B80"/>
<path d="M136.007 6.54523H133.927C133.858 6.54525 133.792 6.56983 133.74 6.61454C133.687 6.65925 133.653 6.72114 133.642 6.7891L132.801 12.1218C132.797 12.1465 132.799 12.1717 132.805 12.1958C132.812 12.2199 132.824 12.2422 132.84 12.2612C132.857 12.2802 132.877 12.2955 132.899 12.3059C132.922 12.3164 132.947 12.3218 132.972 12.3218H134.039C134.087 12.3218 134.134 12.3045 134.17 12.2732C134.207 12.2419 134.231 12.1985 134.239 12.1509L134.477 10.6394C134.488 10.5714 134.523 10.5094 134.575 10.4646C134.627 10.4198 134.694 10.3952 134.763 10.3952H135.421C136.791 10.3952 137.581 9.73229 137.788 8.41866C137.881 7.84395 137.792 7.39239 137.522 7.07615C137.227 6.72889 136.703 6.54523 136.007 6.54523ZM136.247 8.49286C136.134 9.23907 135.564 9.23907 135.012 9.23907H134.698L134.919 7.84547C134.925 7.8047 134.946 7.76754 134.977 7.74071C135.009 7.71388 135.049 7.69916 135.09 7.69921H135.234C135.609 7.69921 135.963 7.69921 136.146 7.91328C136.256 8.041 136.289 8.23074 136.247 8.49286ZM142.223 8.46884H141.228C141.187 8.46872 141.147 8.48342 141.115 8.51026C141.084 8.5371 141.063 8.5743 141.057 8.6151L141.013 8.89364L140.943 8.79268C140.727 8.47978 140.247 8.37518 139.767 8.37518C138.667 8.37518 137.727 9.20866 137.544 10.3779C137.449 10.9611 137.584 11.5188 137.915 11.9077C138.219 12.2653 138.652 12.4143 139.169 12.4143C140.056 12.4143 140.547 11.8441 140.547 11.8441L140.503 12.1208C140.499 12.1456 140.501 12.171 140.507 12.1952C140.514 12.2193 140.526 12.2417 140.542 12.2608C140.559 12.2799 140.579 12.2952 140.602 12.3057C140.625 12.3162 140.649 12.3216 140.675 12.3215H141.571C141.64 12.3215 141.707 12.2969 141.759 12.2521C141.811 12.2073 141.846 12.1454 141.856 12.0774L142.395 8.66892C142.399 8.64416 142.397 8.61886 142.39 8.59477C142.383 8.57068 142.371 8.54836 142.355 8.52935C142.339 8.51035 142.319 8.49509 142.296 8.48465C142.273 8.4742 142.248 8.46881 142.223 8.46884ZM140.835 10.407C140.74 10.976 140.287 11.3579 139.711 11.3579C139.423 11.3579 139.191 11.2652 139.043 11.0894C138.896 10.9149 138.84 10.6664 138.887 10.3897C138.977 9.82564 139.435 9.43125 140.002 9.43125C140.285 9.43125 140.515 9.52521 140.667 9.70249C140.819 9.88159 140.879 10.1315 140.835 10.407ZM143.397 6.69149L142.544 12.1218C142.54 12.1465 142.541 12.1717 142.548 12.1958C142.555 12.2199 142.567 12.2422 142.583 12.2612C142.599 12.2802 142.619 12.2955 142.642 12.3059C142.665 12.3164 142.69 12.3218 142.715 12.3218H143.573C143.715 12.3218 143.836 12.2184 143.858 12.0777L144.7 6.74531C144.704 6.72059 144.702 6.69532 144.696 6.67124C144.689 6.64715 144.677 6.62482 144.661 6.60578C144.644 6.58674 144.624 6.57144 144.601 6.56093C144.579 6.55043 144.554 6.54497 144.529 6.54492H143.568C143.527 6.54507 143.487 6.5599 143.456 6.58675C143.424 6.61361 143.404 6.65074 143.397 6.69149Z" fill="#179BD7"/>
<path d="M109.33 13.3585L109.489 12.3483L109.135 12.3401H107.443L108.619 4.88618C108.622 4.86341 108.634 4.84265 108.652 4.82769C108.669 4.81273 108.691 4.80457 108.714 4.80469H111.567C112.514 4.80469 113.167 5.00173 113.508 5.39065C113.668 5.5731 113.77 5.76376 113.819 5.97357C113.871 6.19373 113.872 6.45676 113.821 6.77756L113.818 6.80097V7.00653L113.978 7.09715C114.1 7.15901 114.21 7.24269 114.302 7.34406C114.438 7.50006 114.527 7.69832 114.564 7.93337C114.603 8.17511 114.59 8.46277 114.527 8.78844C114.454 9.16307 114.336 9.48935 114.177 9.75633C114.036 9.9955 113.847 10.2027 113.622 10.3645C113.41 10.5147 113.159 10.6287 112.874 10.7017C112.599 10.7735 112.285 10.8097 111.94 10.8097H111.718C111.559 10.8097 111.405 10.8668 111.284 10.9693C111.163 11.0729 111.083 11.216 111.058 11.3731L111.041 11.464L110.76 13.2444L110.747 13.3098C110.744 13.3305 110.738 13.3408 110.73 13.3478C110.722 13.3546 110.711 13.3583 110.701 13.3585H109.33Z" fill="#253B80"/>
<path d="M114.131 6.82422C114.122 6.87865 114.112 6.9343 114.101 6.99146C113.725 8.92268 112.438 9.58983 110.795 9.58983H109.958C109.757 9.58983 109.588 9.73579 109.556 9.93405L109.128 12.6513L109.007 13.4215C109.002 13.4521 109.004 13.4833 109.012 13.5131C109.02 13.5429 109.035 13.5705 109.055 13.594C109.075 13.6175 109.1 13.6364 109.128 13.6494C109.156 13.6623 109.187 13.669 109.218 13.6691H110.702C110.878 13.6691 111.027 13.5413 111.055 13.368L111.069 13.2926L111.349 11.5192L111.367 11.4219C111.394 11.248 111.544 11.1203 111.72 11.1203H111.942C113.38 11.1203 114.505 10.5364 114.834 8.84696C114.972 8.14119 114.901 7.55188 114.537 7.13742C114.422 7.00921 114.284 6.90308 114.131 6.82422Z" fill="#179BD7"/>
<path d="M113.735 6.66832C113.615 6.63358 113.493 6.60646 113.37 6.58713C113.126 6.54962 112.879 6.53163 112.632 6.53331H110.396C110.311 6.53325 110.229 6.56362 110.164 6.61894C110.1 6.67427 110.057 6.75089 110.044 6.83496L109.568 9.84718L109.555 9.93506C109.57 9.83916 109.618 9.75174 109.692 9.68861C109.766 9.62547 109.859 9.59079 109.956 9.59084H110.793C112.437 9.59084 113.724 8.92338 114.1 6.99247C114.111 6.93531 114.12 6.87966 114.129 6.82523C114.03 6.77318 113.926 6.72954 113.82 6.69478C113.792 6.68551 113.764 6.67669 113.735 6.66832Z" fill="#222D65"/>
<path d="M110.044 6.83525C110.057 6.75116 110.1 6.6745 110.165 6.61921C110.229 6.56391 110.312 6.53365 110.397 6.53391H112.633C112.897 6.53391 113.145 6.55124 113.37 6.58773C113.523 6.61173 113.673 6.64762 113.821 6.69507C113.932 6.73187 114.035 6.77535 114.13 6.82552C114.242 6.11185 114.129 5.62593 113.743 5.18592C113.318 4.70152 112.55 4.49414 111.567 4.49414H108.715C108.514 4.49414 108.343 4.6401 108.312 4.83866L107.124 12.3692C107.119 12.4042 107.121 12.4399 107.13 12.474C107.14 12.5081 107.157 12.5396 107.18 12.5666C107.203 12.5935 107.231 12.6151 107.263 12.63C107.295 12.6448 107.33 12.6526 107.366 12.6526H109.127L109.569 9.84747L110.044 6.83525Z" fill="#253B80"/>
</g>
<rect x="66.9102" y="0.582031" width="28" height="18" rx="2" fill="#0077A6"/>
<g clip-path="url(#clip1_46_1569)">
<path fill-rule="evenodd" clip-rule="evenodd" d="M66.2168 -5.62891H95.5595V23.7138H66.2168V-5.62891Z" fill="white"/>
<path fill-rule="evenodd" clip-rule="evenodd" d="M67.5079 21.4227H67.424C67.424 21.3809 67.403 21.3179 67.403 21.2967C67.403 21.2758 67.403 21.234 67.34 21.234H67.2139V21.4227H67.1509V20.9819H67.34C67.424 20.9819 67.4869 21.0031 67.4869 21.0868C67.4869 21.1498 67.4659 21.171 67.445 21.1917C67.466 21.2128 67.4869 21.2338 67.4869 21.2758V21.3597C67.4869 21.3809 67.4869 21.3809 67.5079 21.3809V21.4227ZM67.424 21.1079C67.424 21.0449 67.382 21.0449 67.361 21.0449H67.2139V21.171H67.34C67.382 21.171 67.424 21.1498 67.424 21.1079ZM67.781 21.1918C67.781 20.94 67.571 20.7298 67.2979 20.7298C67.046 20.7298 66.8359 20.94 66.8359 21.1918C66.8359 21.4648 67.046 21.675 67.2979 21.675C67.5709 21.6748 67.781 21.4648 67.781 21.1918ZM67.7179 21.1918C67.7179 21.4229 67.529 21.5908 67.2979 21.5908C67.0669 21.5908 66.899 21.4227 66.899 21.1918C66.899 20.9819 67.067 20.7928 67.2979 20.7928C67.5289 20.7928 67.7179 20.9819 67.7179 21.1918ZM93.5896 12.708C93.5896 13.3381 93.1906 13.6318 92.4765 13.6318H91.1118V13.0017H92.4765C92.6025 13.0017 92.7076 12.9808 92.7497 12.939C92.7916 12.8968 92.8336 12.8338 92.8336 12.7499C92.8336 12.6657 92.7918 12.5818 92.7497 12.54C92.7076 12.4978 92.6237 12.477 92.4977 12.477C91.8469 12.4558 91.0277 12.4978 91.0277 11.5739C91.0277 11.1538 91.3007 10.6918 92.0356 10.6918H93.4425V11.3219H92.1405C92.0148 11.3219 91.9306 11.3219 91.8676 11.3637C91.8046 11.4267 91.7627 11.4898 91.7627 11.5948C91.7627 11.6998 91.8257 11.7629 91.9096 11.805C91.9938 11.8259 92.0778 11.8469 92.1828 11.8469H92.5607C92.9597 11.8469 93.2118 11.9308 93.3798 12.078C93.5055 12.2249 93.5896 12.4141 93.5896 12.708ZM90.6286 12.078C90.4605 11.9308 90.2085 11.8469 89.8095 11.8469H89.4316C89.3268 11.8469 89.2426 11.8257 89.1587 11.805C89.0745 11.7629 89.0118 11.6998 89.0118 11.5948C89.0118 11.4898 89.0327 11.4267 89.1167 11.3637C89.1797 11.3219 89.2636 11.3219 89.3896 11.3219H90.6916V10.6918H89.2847C88.5286 10.6918 88.2765 11.1538 88.2765 11.5739C88.2765 12.4977 89.0957 12.4558 89.7468 12.477C89.8725 12.477 89.9567 12.4978 89.9985 12.54C90.0404 12.5818 90.0827 12.6657 90.0827 12.7499C90.0827 12.8338 90.0406 12.8968 89.9985 12.939C89.9355 12.9808 89.8516 13.0017 89.7256 13.0017H88.3606V13.6318H89.7256C90.4394 13.6318 90.8385 13.338 90.8385 12.708C90.8385 12.4141 90.7546 12.2249 90.6286 12.078ZM87.9406 13.023H86.2819V12.4349H87.8987V11.8472H86.2819V11.301H87.9406V10.6921H85.5888V13.6319H87.9406V13.023ZM84.8327 10.8391C84.6016 10.7131 84.3287 10.6919 83.9717 10.6919H82.3549V13.6318H83.0687V12.5608H83.8248C84.0766 12.5608 84.2238 12.582 84.3288 12.6869C84.4549 12.8338 84.4549 13.0859 84.4549 13.2749V13.6318H85.1477V13.0647C85.1477 12.7918 85.1268 12.6657 85.0428 12.5188C84.9798 12.4346 84.854 12.3298 84.686 12.2667C84.8747 12.204 85.19 11.9519 85.19 11.4898C85.1898 11.1539 85.0638 10.9649 84.8327 10.8391ZM80.8428 10.6919H78.5958L77.6928 11.658L76.8318 10.6919H73.9969V13.6318H76.7899L77.6929 12.6657L78.5539 13.6318H79.919V12.645H80.801C81.4099 12.645 82.0191 12.477 82.0191 11.658C82.0189 10.86 81.3889 10.6919 80.8428 10.6919ZM84.2657 11.9101C84.1608 11.9519 84.0557 11.9519 83.9297 11.9519L83.0687 11.9731V11.3008H83.9297C84.0557 11.3008 84.1818 11.3008 84.2657 11.3639C84.3498 11.406 84.4126 11.4899 84.4126 11.616C84.4126 11.742 84.3498 11.847 84.2657 11.9101ZM80.8428 12.057H79.9188V11.3008H80.8428C81.0949 11.3008 81.2628 11.406 81.2628 11.658C81.2628 11.9101 81.0948 12.057 80.8428 12.057ZM78.1338 12.1618L79.2257 11.007V13.38L78.1338 12.1618ZM76.4328 13.023H74.6898V12.4349H76.2437V11.8472H74.6898V11.301H76.4538L77.2308 12.162L76.4328 13.023ZM91.6365 8.57096H90.6286L89.3056 6.36594V8.57096H87.8779L87.6046 7.91988H86.1347L85.8618 8.57096H85.0426C84.7067 8.57096 84.2657 8.48693 84.0139 8.23484C83.7828 7.9829 83.6567 7.64694 83.6567 7.12191C83.6567 6.6809 83.7198 6.28192 84.0346 5.96696C84.2445 5.73588 84.6226 5.63099 85.1055 5.63099H85.7774V6.26106H85.1055C84.8537 6.26106 84.7065 6.30308 84.5596 6.42912C84.4336 6.55516 84.3705 6.78609 84.3705 7.10105C84.3705 7.41601 84.4336 7.64709 84.5596 7.79414C84.6645 7.89902 84.8537 7.94104 85.0425 7.94104H85.3576L86.3655 5.63114H87.4155L88.5915 8.40305V5.63099H89.6836L90.9226 7.66794V5.63099H91.6363V8.57096H91.6365ZM83.2998 5.63099H82.586V8.57096H83.2998V5.63099ZM81.8087 5.75704C81.5776 5.63099 81.3258 5.63099 80.9689 5.63099H79.3518V8.57096H80.0447V7.49989H80.8007C81.0527 7.49989 81.2208 7.52089 81.3257 7.62593C81.4517 7.77298 81.4306 8.02507 81.4306 8.19298V8.57096H82.1444V7.9829C82.1444 7.73097 82.1235 7.60492 82.0186 7.45787C81.9556 7.37384 81.8296 7.2688 81.6827 7.20593C81.8714 7.12191 82.1867 6.89098 82.1867 6.42897C82.1868 6.093 82.0396 5.90394 81.8087 5.75704ZM78.8477 7.96205H77.2098V7.37399H78.8267V6.76509H77.2098V6.24005H78.8477V5.63114H76.4958V8.57111H78.8477V7.96205ZM75.9708 5.63099H74.8158L73.9548 7.62593L73.0308 5.63099H71.8969V8.4029L70.6999 5.63099H69.65L68.39 8.57096H69.146L69.4189 7.91988H70.8888L71.1618 8.57096H72.5898V6.26106L73.6187 8.57096H74.2276L75.2567 6.26106V8.57096H75.9706L75.9708 5.63099ZM87.3528 7.28996L86.8697 6.13502L86.3868 7.28996H87.3528ZM81.2628 6.82811C81.1579 6.89113 81.0529 6.89113 80.9058 6.89113H80.0447V6.2402H80.9057C81.0317 6.2402 81.1785 6.2402 81.2627 6.28222C81.3465 6.34524 81.3887 6.42927 81.3887 6.55516C81.3887 6.68106 81.3467 6.78594 81.2628 6.82811ZM69.6709 7.28996L70.1539 6.13502L70.6369 7.28996H69.6709ZM93.4217 -3.58789H68.3689V6.99601L69.2299 5.04309H71.0567L71.3088 5.52611V5.04309H73.4508L73.9338 6.093L74.3958 5.04309H81.2208C81.5356 5.04309 81.8086 5.10611 82.0188 5.27402V5.04309H83.8877V5.27402C84.2025 5.10596 84.6015 5.04309 85.0636 5.04309H87.7725L88.0246 5.52611V5.04309H90.0195L90.3136 5.52611V5.04309H92.2664V9.15901H90.2926L89.9148 8.52909V9.15901H87.4577L87.1848 8.48708H86.5756L86.3026 9.15901H85.0218C84.5177 9.15901 84.1396 9.03297 83.8878 8.90707V9.15901H80.8428V8.21398C80.8428 8.08794 80.8218 8.06693 80.7378 8.06693H80.6329V9.15886H74.7528V8.63383L74.5429 9.15886H73.3039L73.094 8.65483V9.15886H70.7209L70.469 8.48693H69.8599L69.587 9.15886H68.3689V21.5698H93.4217V14.0307C93.1487 14.1568 92.7706 14.2198 92.3926 14.2198H90.5656V13.9677C90.3557 14.1359 89.9775 14.2198 89.6207 14.2198H83.8667V13.2749C83.8667 13.1489 83.8458 13.1489 83.7406 13.1489H83.6357V14.2198H81.7457V13.1069C81.4309 13.2538 81.0738 13.2538 80.7588 13.2538H80.5487V14.2198H78.2388L77.6929 13.5897L77.084 14.2198H73.3668V10.104H77.1467L77.6928 10.7338L78.2808 10.104H80.8218C81.1156 10.104 81.5988 10.1459 81.8087 10.3558V10.104H84.0766C84.3077 10.104 84.7488 10.1459 85.0426 10.3558V10.104H88.4656V10.356C88.6547 10.1879 89.0118 10.1042 89.3266 10.1042H91.2375V10.356C91.4477 10.2091 91.7415 10.1042 92.1197 10.1042H93.4217V-3.58789Z" fill="#0077A6"/>
</g>
<rect x="34.4102" y="1.08203" width="27" height="17" rx="1.5" fill="white"/>
<rect x="34.4102" y="1.08203" width="27" height="17" rx="1.5" stroke="#C0C0C0"/>
<path fill-rule="evenodd" clip-rule="evenodd" d="M36.5984 1.96484C36.1556 1.96484 35.8774 2.02497 35.723 2.15397C35.5891 2.3001 35.5273 2.54073 35.5273 2.89311V5.29103H60.5352V2.89311C60.5352 2.26572 60.1641 1.96484 59.4226 1.96484H36.5984Z" fill="#315881"/>
<path fill-rule="evenodd" clip-rule="evenodd" d="M35.5273 16.283C35.5273 16.9333 35.8878 17.2676 36.5984 17.2676H59.4226C60.1641 17.2676 60.5352 16.9335 60.5352 16.283V13.8301H35.5273V16.283Z" fill="#DFA43B"/>
<path fill-rule="evenodd" clip-rule="evenodd" d="M43.6587 7.43227C43.6587 7.55695 43.6394 7.65277 43.5916 7.71998L41.9135 10.6448L41.8079 7.07748H39.123L40.0244 7.50898C40.2832 7.67201 40.4175 7.88288 40.4175 8.15148L40.6667 11.9394H41.9804L45.1258 7.07748H43.5149C43.6107 7.16381 43.6587 7.29797 43.6587 7.43227ZM54.5137 7.22127L54.619 7.07735H52.9792C53.0366 7.13481 53.0559 7.16367 53.0559 7.18278C53.0365 7.25935 52.9982 7.30746 52.9792 7.36492L50.5915 11.7184C50.534 11.7951 50.4763 11.8623 50.4094 11.9391H51.7614L51.6942 11.7952C51.6942 11.6705 51.7614 11.4406 51.9052 11.1145L52.1929 10.5774H53.5833C53.6411 11.0282 53.6794 11.4022 53.6985 11.6804L53.5833 11.9393H55.2614L55.0121 11.5749L54.5137 7.22127ZM53.5162 9.89671H52.519L53.3723 8.25692L53.5162 9.89671ZM49.3737 6.82812C48.8561 6.82812 48.4148 6.97205 48.0217 7.25962C47.5901 7.50898 47.3792 7.82542 47.3792 8.2187C47.3792 8.66944 47.5326 9.06259 47.8394 9.35978L48.7697 10.0021C49.1054 10.242 49.2684 10.4529 49.2684 10.6448C49.2684 10.8269 49.1818 10.99 49.0191 11.1146C48.8561 11.2393 48.6737 11.2968 48.4437 11.2968C48.108 11.2968 47.5327 11.0572 46.7368 10.6161V11.5078C47.3601 11.8818 47.9644 12.0737 48.5491 12.0737C49.1054 12.0737 49.5753 11.9202 49.9782 11.575C50.4096 11.2584 50.6205 10.8847 50.6205 10.4723C50.6205 10.1268 50.467 9.81052 50.1218 9.47484L49.2298 8.83234C48.9329 8.5926 48.7697 8.3816 48.7697 8.2187C48.7697 7.8448 48.9902 7.6529 49.441 7.6529C49.7478 7.6529 50.1985 7.82556 50.8025 8.18997L50.9849 7.25976C50.4764 6.97191 49.9492 6.82812 49.3737 6.82812ZM45.8066 11.9393C45.7874 11.7379 45.749 11.5558 45.7298 11.3639L46.9477 7.43227L47.2354 7.07748H45.4806C45.4998 7.16381 45.5189 7.27887 45.5382 7.36519C45.5382 7.45152 45.5382 7.55709 45.5189 7.6529L44.3012 11.5461L44.0518 11.9394L45.8066 11.9393Z" fill="#315881"/>
<g clip-path="url(#clip2_46_1569)">
<rect x="0.910156" y="0.582031" width="28" height="18" rx="2" fill="white"/>
<g clip-path="url(#clip3_46_1569)">
<path fill-rule="evenodd" clip-rule="evenodd" d="M2.41016 -2.91797H27.4102V22.082H2.41016V-2.91797Z" fill="white"/>
<path fill-rule="evenodd" clip-rule="evenodd" d="M14.9154 14.3363C16.0395 15.3721 17.5491 16.0004 19.191 16.0004C22.7174 16.0004 25.5715 13.1242 25.5715 9.58668C25.5715 6.03841 22.7174 3.16211 19.191 3.16211C17.5491 3.16211 16.0395 3.79024 14.9154 4.82613C13.6261 6.00521 12.8105 7.70231 12.8105 9.58668C12.8107 11.4711 13.6261 13.1683 14.9154 14.3363Z" fill="#E9B040"/>
<path fill-rule="evenodd" clip-rule="evenodd" d="M24.7227 13.1573C24.7227 13.047 24.8109 12.959 24.921 12.959C25.0421 12.959 25.1302 13.0472 25.1302 13.1573C25.1302 13.2787 25.042 13.3668 24.921 13.3668C24.8109 13.3668 24.7227 13.2787 24.7227 13.1573ZM24.921 13.3228C25.0092 13.3228 25.0861 13.2455 25.0861 13.1574C25.0861 13.0694 25.009 13.0032 24.921 13.0032C24.8437 13.0032 24.7668 13.0694 24.7668 13.1574C24.7668 13.2455 24.8438 13.3228 24.921 13.3228ZM24.8989 13.2566H24.8548V13.0692H24.9319C24.943 13.0692 24.9651 13.0692 24.976 13.0804C24.998 13.0913 24.998 13.1024 24.998 13.1245C24.998 13.1465 24.9871 13.1686 24.9651 13.1686L25.0092 13.2568H24.9539L24.9319 13.1795H24.8989V13.2566V13.1464H24.943C24.9539 13.1464 24.9539 13.1352 24.9539 13.1243C24.9539 13.1132 24.9539 13.1132 24.943 13.1023H24.8989V13.2566Z" fill="#E9B040"/>
<path fill-rule="evenodd" clip-rule="evenodd" d="M16.9759 8.90357C16.9539 8.67218 16.9098 8.45183 16.8657 8.22032H12.9646C13.0087 7.98894 13.0749 7.76858 13.1409 7.5481H16.6784C16.6016 7.31611 16.5134 7.08808 16.4139 6.86485H13.4165C13.5268 6.63143 13.6481 6.40342 13.7802 6.1816H16.0394C15.894 5.94625 15.732 5.7216 15.5546 5.50938H14.2651C14.4646 5.2658 14.6819 5.03742 14.9153 4.82613C13.7803 3.80126 12.2815 3.16211 10.6285 3.16211C7.1132 3.16211 4.24805 6.03841 4.24805 9.58668C4.24805 13.1242 7.1132 16.0004 10.6285 16.0004C12.2815 16.0004 13.7802 15.3721 14.9153 14.3363C15.1451 14.1288 15.3588 13.904 15.5546 13.664H14.2651C14.0887 13.4436 13.9345 13.2233 13.7802 12.9807H16.0394C16.1814 12.7628 16.3067 12.5344 16.4141 12.2975H13.4165C13.3173 12.0771 13.2182 11.8568 13.1409 11.6251H16.6784C16.7554 11.4048 16.8107 11.1735 16.8656 10.9419C16.9096 10.7215 16.9537 10.4903 16.9758 10.2586C16.9981 10.0352 17.0092 9.81083 17.009 9.58629C17.009 9.3553 16.998 9.12392 16.9759 8.90357Z" fill="#CC2131"/>
<path fill-rule="evenodd" clip-rule="evenodd" d="M24.7227 11.0744C24.7227 10.9533 24.8109 10.8652 24.921 10.8652C25.0421 10.8652 25.1302 10.9534 25.1302 11.0744C25.1302 11.1847 25.042 11.2839 24.921 11.2839C24.8109 11.2839 24.7227 11.1845 24.7227 11.0744ZM24.921 11.2286C25.0092 11.2286 25.0861 11.1625 25.0861 11.0744C25.0861 10.9864 25.009 10.9202 24.921 10.9202C24.8437 10.9202 24.7668 10.9864 24.7668 11.0744C24.7668 11.1625 24.8438 11.2286 24.921 11.2286ZM24.8989 11.1625H24.8548V10.9862H24.976C24.998 10.9974 24.998 11.0194 24.998 11.0415C24.998 11.0524 24.9871 11.0744 24.9651 11.0856L25.0092 11.1626H24.9539L24.9319 11.0965H24.8989V11.1625V11.0634H24.921C24.9319 11.0634 24.943 11.0634 24.943 11.0523C24.9539 11.0523 24.9539 11.0414 24.9539 11.0302C24.9539 11.0302 24.9539 11.0193 24.943 11.0193C24.943 11.0082 24.9319 11.0193 24.921 11.0193H24.8989V11.1625Z" fill="white"/>
<path fill-rule="evenodd" clip-rule="evenodd" d="M12.7448 11.4396C12.5355 11.4946 12.3812 11.5278 12.227 11.5278C11.8964 11.5278 11.6979 11.3184 11.6979 10.9437C11.6979 10.8666 11.7089 10.7895 11.72 10.7013L11.7641 10.448L11.7971 10.2385L12.0947 8.43129H12.7559L12.6787 8.82804H13.0975L12.9983 9.48924H12.5795L12.4032 10.5691C12.3922 10.6244 12.3922 10.6573 12.3922 10.6793C12.3922 10.8227 12.4583 10.8776 12.6236 10.8776C12.7007 10.8776 12.7668 10.8668 12.8329 10.8556L12.7448 11.4396ZM14.8828 11.4176C14.6404 11.4837 14.42 11.5167 14.1775 11.5167C13.4281 11.5167 12.9983 11.1199 12.9983 10.3377C12.9983 9.42296 13.5053 8.76176 14.2104 8.76176C14.7724 8.76176 15.1361 9.13646 15.1361 9.72036C15.1361 9.91892 15.114 10.1062 15.059 10.3707H13.6815C13.6705 10.4148 13.6705 10.4368 13.6705 10.4589C13.6705 10.7674 13.8798 10.9216 14.2766 10.9216C14.53 10.9216 14.7504 10.8666 14.9929 10.7565L14.8828 11.4176ZM14.475 9.84175V9.70946C14.475 9.48911 14.3537 9.36784 14.1444 9.36784C13.9239 9.36784 13.7697 9.53307 13.7036 9.84162L14.475 9.84175ZM7.45525 11.4726H6.77201L7.16875 8.97122L6.27617 11.4726H5.80239L5.74727 8.98225L5.32847 11.4726H4.65625L5.19618 8.22183H6.199L6.22105 10.2276L6.89327 8.22183H7.99532L7.45525 11.4726ZM9.11941 10.2936C9.05326 10.2825 9.03121 10.2825 8.98711 10.2825C8.59037 10.2825 8.39206 10.4367 8.39206 10.6792C8.39206 10.8446 8.49128 10.9548 8.64549 10.9548C8.97609 10.9548 9.10825 10.6792 9.11941 10.2936ZM9.67036 11.4726H9.07531L9.08633 11.1972C8.93199 11.4064 8.72266 11.5167 8.35899 11.5167C8.02839 11.5167 7.74189 11.2193 7.74189 10.7895C7.74189 10.6683 7.76394 10.5582 7.79701 10.448C7.90712 10.0401 8.31489 9.78676 8.94302 9.77561C9.02019 9.77561 9.14132 9.77561 9.25157 9.78676C9.27349 9.69857 9.27349 9.66537 9.27349 9.61037C9.27349 9.43399 9.1303 9.37886 8.81072 9.37886C8.61242 9.37886 8.39193 9.41194 8.23772 9.46706L8.1385 9.48911L8.0944 9.5L8.19362 8.90495C8.5132 8.80573 8.74458 8.76176 8.99814 8.76176C9.59319 8.76176 9.91277 9.03724 9.91277 9.5441C9.91277 9.67639 9.92379 9.77561 9.87969 10.0621L9.72548 11.0098L9.70343 11.1752L9.69241 11.3075L9.68139 11.3957L9.67036 11.4726ZM18.2108 8.84996C18.4091 8.84996 18.5855 8.90508 18.8279 9.02622L18.9491 8.32092C18.8829 8.28785 18.8609 8.28785 18.7728 8.25477L18.4975 8.1776C18.4093 8.15556 18.2991 8.14453 18.1777 8.14453C17.836 8.14453 17.6377 8.15556 17.4285 8.27682C17.3182 8.35399 17.1749 8.45321 17.0206 8.62947L16.9324 8.60742L16.2271 9.10326L16.2603 8.82778H15.5328L15.1033 11.4724H15.7977L16.051 10.0511C16.051 10.0511 16.1503 9.85252 16.1943 9.78663C16.3266 9.62127 16.4367 9.62127 16.5799 9.62127H16.6351C16.612 9.78921 16.6009 9.9586 16.6019 10.1281C16.6019 10.9876 17.0867 11.5277 17.8361 11.5277C18.0235 11.5277 18.189 11.5056 18.4423 11.4395L18.5637 10.6902C18.3434 10.8114 18.1449 10.8665 17.9796 10.8665C17.5719 10.8665 17.3293 10.5579 17.3293 10.0731C17.329 9.35681 17.6928 8.84996 18.2108 8.84996ZM24.0621 8.22183L23.908 9.14748C23.7427 8.89405 23.5442 8.77279 23.2798 8.77279C22.916 8.77279 22.5745 8.98212 22.365 9.37886V9.36797L21.9243 9.10339L21.9684 8.82791H21.2301L20.8113 11.4726H21.4945L21.726 10.0512C21.726 10.0512 21.9023 9.85265 21.9464 9.78676C22.0566 9.65447 22.1667 9.63229 22.2549 9.6214C22.1779 9.84175 22.1338 10.1062 22.1338 10.4039C22.1338 11.0651 22.4753 11.5058 22.9821 11.5058C23.2357 11.5058 23.434 11.4176 23.6213 11.2081L23.5883 11.4726H24.2386L24.7676 8.22183H24.0621ZM23.2138 10.8446C22.9823 10.8446 22.8611 10.6683 22.8611 10.3266C22.8611 9.80855 23.0815 9.43399 23.4009 9.43399C23.6433 9.43399 23.7647 9.6214 23.7647 9.952C23.7647 10.4809 23.5444 10.8446 23.2138 10.8446ZM20.0292 10.2936C19.963 10.2825 19.941 10.2825 19.8969 10.2825C19.4999 10.2825 19.3016 10.4367 19.3016 10.6792C19.3016 10.8446 19.4009 10.9548 19.5551 10.9548C19.8857 10.9548 20.018 10.6792 20.0292 10.2936ZM20.5801 11.4726H19.9739L19.996 11.1972C19.8418 11.4064 19.6322 11.5167 19.2688 11.5167C18.927 11.5167 18.6296 11.2302 18.6296 10.7895C18.6296 10.1615 19.1033 9.77574 19.8527 9.77574C19.93 9.77574 20.051 9.77574 20.1503 9.78689C20.1724 9.6987 20.1835 9.6655 20.1835 9.6105C20.1835 9.43412 20.0402 9.37899 19.7096 9.37899C19.5222 9.37899 19.2908 9.41207 19.1366 9.46719L19.0484 9.48924L19.0043 9.50013L19.1034 8.90508C19.4231 8.80586 19.6546 8.76189 19.9079 8.76189C20.503 8.76189 20.8115 9.03737 20.8115 9.54423C20.8115 9.67652 20.8336 9.77574 20.7786 10.0622L20.6353 11.0099L20.6132 11.1753L20.5912 11.3076L20.5803 11.3958V11.4726H20.5801ZM11.1139 9.38989C11.2462 9.38989 11.4335 9.40091 11.6319 9.43399L11.7311 8.81688C11.5327 8.79483 11.2682 8.76176 11.1139 8.76176C10.3426 8.76176 10.0892 9.18056 10.0892 9.66537C10.0892 9.98507 10.2323 10.2163 10.607 10.3926C10.8825 10.5249 10.9266 10.5468 10.9266 10.6682C10.9266 10.8333 10.7834 10.9326 10.5188 10.9326C10.3095 10.9326 10.1111 10.8994 9.89072 10.8224L9.81355 11.4283L9.82444 11.4395L9.95673 11.4615C10.0008 11.4724 10.056 11.4836 10.1331 11.4945C10.2984 11.5056 10.4417 11.5165 10.5299 11.5165C11.3013 11.5165 11.6209 11.2191 11.6209 10.635C11.6209 10.2714 11.4445 10.0511 11.1029 9.89688C10.8053 9.76445 10.7723 9.74267 10.7723 9.62127C10.7723 9.50013 10.9046 9.38989 11.1139 9.38989Z" fill="#1B3771"/>
<path fill-rule="evenodd" clip-rule="evenodd" d="M19.136 8.11055L19.0146 8.81584C18.7722 8.69458 18.5958 8.63958 18.3975 8.63958C17.8795 8.63958 17.5159 9.14644 17.5159 9.86276C17.5159 10.3587 17.7583 10.6561 18.1662 10.6561C18.3314 10.6561 18.5298 10.6011 18.7501 10.491L18.629 11.2291C18.3755 11.2953 18.2102 11.3285 18.0228 11.3285C17.2735 11.3285 16.8106 10.7884 16.8106 9.91801C16.8106 8.76085 17.4498 7.94531 18.3644 7.94531C18.4856 7.94531 18.5957 7.95634 18.6839 7.97839L18.9595 8.04453C19.0478 8.0776 19.0699 8.08863 19.136 8.11055ZM16.9099 8.59549H16.8437C16.6125 8.59549 16.4802 8.70573 16.2707 9.02517L16.3369 8.61741H15.7086L15.279 11.2622H15.9734C16.2267 9.64228 16.2929 9.3668 16.6235 9.3668H16.6676C16.7337 9.04722 16.8218 8.81571 16.932 8.60638L16.9099 8.59549ZM12.9208 11.2291C12.7335 11.2953 12.5791 11.3173 12.4249 11.3173C12.0723 11.3173 11.8738 11.119 11.8738 10.7334C11.8738 10.6673 11.8849 10.5792 11.8959 10.5019L11.94 10.2375L11.9731 10.0283L12.2706 8.22079H12.9538L12.8767 8.61754H13.2293L13.1411 9.26771H12.7885L12.6012 10.3698C12.5902 10.4138 12.5902 10.4471 12.5902 10.48C12.5902 10.6123 12.6563 10.6674 12.8215 10.6674C12.8987 10.6674 12.9647 10.6674 13.0088 10.6454L12.9208 11.2291ZM10.2649 9.45499C10.2649 9.78572 10.4191 10.017 10.7828 10.1934C11.0693 10.3257 11.1134 10.3696 11.1134 10.4799C11.1134 10.6452 10.9922 10.7223 10.7167 10.7223C10.5073 10.7223 10.3199 10.6893 10.0996 10.6232L10.0004 11.2291L10.0334 11.2403L10.1547 11.2623C10.1987 11.2732 10.2539 11.2844 10.342 11.2844C10.4962 11.3064 10.6285 11.3064 10.7167 11.3064C11.4439 11.3064 11.7856 11.0308 11.7856 10.4249C11.7856 10.0611 11.6425 9.85161 11.3008 9.6865C11.0033 9.55421 10.9702 9.52127 10.9702 9.4C10.9702 9.25681 11.0915 9.19067 11.3119 9.19067C11.4441 9.19067 11.6314 9.20169 11.8078 9.22374L11.9069 8.61766C11.7306 8.58459 11.4552 8.56254 11.3008 8.56254C10.5294 8.56241 10.2539 8.97018 10.2649 9.45499ZM24.4146 11.2623H23.7643L23.7975 11.0088C23.61 11.2071 23.4116 11.2953 23.158 11.2953C22.6512 11.2953 22.3206 10.8657 22.3206 10.2045C22.3206 9.32283 22.8386 8.57344 23.4446 8.57344C23.7202 8.57344 23.9185 8.6947 24.106 8.93711L24.2602 8.01146H24.9435L24.4146 11.2623ZM23.4006 10.6452C23.7203 10.6452 23.9406 10.2705 23.9406 9.75252C23.9406 9.4109 23.8192 9.23451 23.5768 9.23451C23.2683 9.23451 23.037 9.59818 23.037 10.1162C23.037 10.469 23.1582 10.6452 23.4006 10.6452ZM15.0365 11.2071C14.794 11.2844 14.5736 11.3173 14.3202 11.3173C13.5488 11.3173 13.152 10.9097 13.152 10.1272C13.152 9.22361 13.659 8.55139 14.3533 8.55139C14.9263 8.55139 15.2898 8.92609 15.2898 9.51011C15.2898 9.70855 15.2678 9.89597 15.2016 10.1713H13.8354C13.8244 10.2045 13.8244 10.2266 13.8244 10.2486C13.8244 10.5572 14.0338 10.7114 14.4304 10.7114C14.6839 10.7114 14.9042 10.6673 15.1468 10.546L15.0365 11.2071ZM14.6508 9.63125V9.49909C14.6508 9.27873 14.5295 9.15747 14.3202 9.15747C14.0998 9.15747 13.9455 9.32283 13.8794 9.63125H14.6508ZM7.63117 11.2623H6.94792L7.34466 8.76072L6.45209 11.2623H5.97817L5.92305 8.78277L5.50438 11.2623H4.86523L5.40517 8.01146H6.39696L6.43004 10.0281L7.09111 8.01146H8.1711L7.63117 11.2623ZM9.33928 10.0831C9.27314 10.0831 9.24007 10.0722 9.18494 10.0722C8.79922 10.0722 8.60092 10.2154 8.60092 10.4799C8.60092 10.6452 8.68911 10.7443 8.84332 10.7443C9.12982 10.7443 9.32826 10.4799 9.33928 10.0831ZM9.84614 11.2623H9.27301L9.28403 10.9867C9.10764 11.2071 8.87626 11.3064 8.55669 11.3064C8.18199 11.3064 7.92856 11.0199 7.92856 10.5901C7.92856 9.94006 8.36928 9.56537 9.14072 9.56537C9.21789 9.56537 9.31711 9.57639 9.42722 9.58728C9.44927 9.49922 9.44927 9.46615 9.44927 9.42205C9.44927 9.24579 9.328 9.17964 9.00843 9.17964C8.81012 9.17964 8.58963 9.20169 8.43542 9.24579L8.3362 9.27886L8.27006 9.28989L8.36928 8.69484C8.7109 8.59562 8.94228 8.56254 9.19584 8.56254C9.79089 8.56254 10.1105 8.827 10.1105 9.33386C10.1105 9.46615 10.0994 9.56537 10.0553 9.86289L9.901 10.7997L9.87896 10.9648L9.86793 11.0971L9.85691 11.1964L9.84614 11.2623ZM20.2491 10.0831C20.1718 10.0831 20.1388 10.0722 20.0949 10.0722C19.6981 10.0722 19.4995 10.2154 19.4995 10.4799C19.4995 10.6452 19.5989 10.7443 19.7531 10.7443C20.0287 10.7443 20.2379 10.4799 20.2491 10.0831ZM20.7559 11.2623H20.1829L20.1938 10.9867C20.0176 11.2071 19.7862 11.3064 19.4666 11.3064C19.0919 11.3064 18.8383 11.0199 18.8383 10.5901C18.8383 9.94006 19.2791 9.56537 20.0505 9.56537C20.1278 9.56537 20.227 9.57639 20.3261 9.58728C20.3482 9.49922 20.3593 9.46615 20.3593 9.42205C20.3593 9.24579 20.2379 9.17964 19.9186 9.17964C19.72 9.17964 19.4888 9.20169 19.3344 9.24579L19.2462 9.27886L19.1801 9.28989L19.2792 8.69484C19.6209 8.59562 19.8522 8.56254 20.1057 8.56254C20.7008 8.56254 21.0093 8.827 21.0093 9.33386C21.0093 9.46615 21.0093 9.56537 20.9544 9.86289L20.811 10.7997L20.789 10.9648L20.7669 11.0971L20.756 11.1964L20.7559 11.2623ZM22.6072 8.59549H22.5411C22.3098 8.59549 22.1775 8.70573 21.9681 9.02517L22.0342 8.61741H21.406L20.9872 11.2622H21.6704C21.924 9.64228 21.9901 9.3668 22.3207 9.3668H22.3648C22.431 9.04722 22.519 8.81571 22.6293 8.60638L22.6072 8.59549Z" fill="white"/>
</g>
</g>
<rect x="1.41016" y="1.08203" width="27" height="17" rx="1.5" stroke="#C0C0C0"/>
<defs>
<clipPath id="clip0_46_1569">
<rect width="37.594" height="10" fill="white" transform="translate(107.113 4.08203)"/>
</clipPath>
<clipPath id="clip1_46_1569">
<rect width="25.0235" height="10" fill="white" transform="translate(68.3984 4.58203)"/>
</clipPath>
<clipPath id="clip2_46_1569">
<rect x="0.910156" y="0.582031" width="28" height="18" rx="2" fill="white"/>
</clipPath>
<clipPath id="clip3_46_1569">
<rect width="25" height="18" fill="white" transform="translate(1.91016 0.582031)"/>
</clipPath>
</defs>
</svg>
