<svg width="608" height="451" viewBox="0 0 608 451" fill="none" xmlns="http://www.w3.org/2000/svg">
<path d="M566.835 94.5745L566.833 94.574C566.092 94.2747 565.282 93.9475 564.407 93.5936L564.698 92.8743C563.249 92.2884 561.621 91.6293 559.828 90.9031L559.537 91.6222C558.018 91.007 556.382 90.3437 554.636 89.6358L554.927 88.9168C553.375 88.2876 551.737 87.6232 550.019 86.9263L549.727 87.6453L544.826 85.6572L545.118 84.9383C544.115 84.5315 543.091 84.116 542.046 83.6921C541.445 83.4483 540.837 83.2018 540.223 82.9525L539.931 83.6715L535.036 81.686L535.328 80.967C533.732 80.3194 532.098 79.6566 530.429 78.9798L530.137 79.6988L525.23 77.7088L525.522 76.9898C523.91 76.3362 522.271 75.6715 520.605 74.9965L520.314 75.7155L515.427 73.7349L515.719 73.0158C514.109 72.3634 512.479 71.7027 510.829 71.0345L510.538 71.7536C508.921 71.0984 507.285 70.4359 505.634 69.767L505.925 69.0479C504.302 68.3904 502.663 67.7266 501.009 67.0573L500.718 67.7764C499.103 67.1226 497.475 66.4634 495.834 65.7996L496.125 65.0804C494.503 64.424 492.87 63.7631 491.226 63.0982L490.935 63.8175C489.308 63.1593 487.671 62.4973 486.026 61.8319L486.317 61.1126C484.693 60.456 483.061 59.7963 481.422 59.1339L481.131 59.8533C479.504 59.1958 477.871 58.5359 476.232 57.8739L476.522 57.1545C474.892 56.4959 473.256 55.8353 471.616 55.1733L471.325 55.8928C469.696 55.235 468.062 54.5758 466.426 53.9157L466.717 53.1962C465.085 52.5378 463.45 51.8786 461.814 51.219L461.524 51.9386C459.89 51.28 458.256 50.621 456.621 49.9624L456.911 49.2427C455.276 48.5841 453.641 47.9257 452.008 47.2681L451.718 47.9879C450.081 47.3288 448.446 46.6706 446.813 46.0137L447.102 45.2939C445.466 44.6355 443.832 43.9784 442.202 43.3233L441.912 44.0432C440.272 43.3839 438.636 42.7266 437.005 42.0717L437.294 41.3518C435.652 40.6923 434.015 40.0353 432.385 39.3814L432.096 40.1014C430.456 39.4434 428.822 38.7885 427.197 38.1372L427.486 37.4171C425.84 36.7576 424.203 36.1019 422.576 35.4506L422.288 36.1709C420.639 35.5109 419 34.8554 417.373 34.2051L417.661 33.4847C416.014 32.8264 414.38 32.1734 412.759 31.5264L412.471 32.2469C410.822 31.5889 409.188 30.937 407.569 30.2919L407.857 29.5711C406.198 28.91 404.555 28.2559 402.931 27.6098L402.644 28.3307C400.986 27.6712 399.348 27.0199 397.73 26.3776L398.016 25.6565C396.359 24.9988 394.725 24.3505 393.114 23.7125L392.828 24.4338C391.168 23.7761 389.533 23.1294 387.926 22.4946L388.212 21.773C386.536 21.1108 384.89 20.4616 383.277 19.8264L382.993 20.5483C381.313 19.8869 379.669 19.2407 378.064 18.6107L378.347 17.8885C376.662 17.2271 375.018 16.5837 373.421 15.9597L373.138 16.6823C372.32 16.3627 371.514 16.0481 370.72 15.7389L371.001 15.0159L370.72 15.7388C369.887 15.4144 369.057 15.0949 368.231 14.7804L368.506 14.0553C366.831 13.418 365.167 12.8011 363.512 12.205L363.249 12.9349C361.569 12.3294 359.899 11.7455 358.239 11.1837L358.487 10.4487C356.789 9.87397 355.099 9.32216 353.418 8.79381L353.186 9.53397C351.482 8.99856 349.787 8.48741 348.1 8.00104L348.315 7.25552C346.596 6.76006 344.884 6.29013 343.178 5.84632L342.982 6.5972C341.26 6.14922 339.544 5.72802 337.833 5.33418L338.007 4.57808C336.265 4.17723 334.528 3.80453 332.794 3.4606L332.643 4.22164C330.901 3.87619 329.162 3.55994 327.425 3.27352L327.552 2.508C325.794 2.21823 324.039 1.95881 322.282 1.73037L322.182 2.49974C320.427 2.27141 318.672 2.07421 316.915 1.90879L316.987 1.13635C315.219 0.969868 313.449 0.835395 311.675 0.733588L311.631 1.50817C309.869 1.40709 308.105 1.33838 306.335 1.30271L306.35 0.527003C304.581 0.491328 302.806 0.488501 301.024 0.519166L301.037 1.29491C299.28 1.32516 297.515 1.38817 295.743 1.48458L295.701 0.709868C293.937 0.805776 292.166 0.934552 290.385 1.09681L290.455 1.86947C288.709 2.02857 286.953 2.22005 285.186 2.44449L285.088 1.67481C283.342 1.89651 281.587 2.15018 279.819 2.4364L279.943 3.20228C278.215 3.48199 276.476 3.79296 274.723 4.13572L274.575 3.37429C272.849 3.71185 271.111 4.08007 269.359 4.47944L269.532 5.23589C267.825 5.62502 266.105 6.04391 264.371 6.49303L264.176 5.74195C262.479 6.18148 260.768 6.64979 259.043 7.14732L259.258 7.8928C257.58 8.37668 255.888 8.88835 254.18 9.42824L253.947 8.68849C252.275 9.21712 250.589 9.77264 248.888 10.3554L249.14 11.0894C247.487 11.6557 245.819 12.248 244.136 12.8665L243.868 12.1383C242.223 12.743 240.563 13.3728 238.887 14.0277L239.17 14.7504C238.345 15.0726 237.517 15.4011 236.685 15.7357L236.685 15.7359L234.279 16.7021L233.99 15.9822C232.407 16.6179 230.77 17.2757 229.082 17.9537L229.371 18.6737L224.46 20.6467L224.17 19.9268C222.568 20.5705 220.928 21.2294 219.252 21.9025L219.541 22.6225L214.623 24.5984L214.334 23.8784C212.732 24.5217 211.104 25.176 209.45 25.8404L209.739 26.5603L204.84 28.5284L204.551 27.8085C202.933 28.4584 201.295 29.1166 199.638 29.7823L199.927 30.5023L195.008 32.4787L194.718 31.7588C193.104 32.4074 191.474 33.0622 189.831 33.7225L190.12 34.4424L185.215 36.4131L184.926 35.6932C183.298 36.3473 181.658 37.0059 180.009 37.6686L180.298 38.3885L175.402 40.3558L175.113 39.6359C173.485 40.2896 171.85 40.9466 170.209 41.6061L170.498 42.3261L165.587 44.2995L165.298 43.5795C163.668 44.2341 162.034 44.8907 160.397 45.5487L160.686 46.2686L155.781 48.2396L155.492 47.5196C153.858 48.1762 152.222 48.8336 150.585 49.4913L150.875 50.2112L145.971 52.1817L145.681 51.4618C144.045 52.1195 142.409 52.7769 140.775 53.4335L141.064 54.1534L136.164 56.1229L135.874 55.403C134.234 56.0621 132.598 56.7198 130.966 57.3756L131.255 58.0955L126.348 60.0677L126.059 59.3478C124.42 60.0064 122.788 60.6624 121.163 61.3153L121.453 62.0352L116.54 64.0097L116.251 63.2898C114.604 63.9516 112.967 64.6095 111.342 65.2629L111.631 65.9828L106.737 67.95L106.448 67.2301C104.798 67.8934 103.161 68.5513 101.54 69.203L101.83 69.9229L96.9144 71.8988L96.625 71.1789C94.9722 71.8434 93.3379 72.5005 91.7241 73.1493L92.0136 73.8692L87.1295 75.8329L86.8401 75.113C85.1747 75.7827 83.5345 76.4422 81.922 77.0906L82.2115 77.8105L77.2944 79.7879L77.0049 79.068C75.3331 79.7404 73.696 80.3988 72.0965 81.0422L72.386 81.762L67.4835 83.734L67.194 83.0142C65.5088 83.6921 63.8736 84.35 62.2925 84.9862L62.5821 85.706L57.6764 87.6801L57.3867 86.9603C55.6666 87.6526 54.0271 88.3126 52.4748 88.9376L52.7646 89.6573C51.0166 90.361 49.3791 91.0205 47.8613 91.6319L47.5714 90.9122C45.7743 91.6362 44.1449 92.2928 42.6984 92.8761L42.9885 93.5957C42.1118 93.9492 41.3024 94.2757 40.5635 94.574L40.5622 94.5745C39.7815 94.8879 39.0147 95.2062 38.2617 95.5293L37.9558 94.8163C36.3942 95.4863 34.8905 96.1769 33.4431 96.8877L33.785 97.5841C32.2685 98.3288 30.815 99.0953 29.4225 99.8829L29.0406 99.2075C27.5555 100.047 26.1382 100.912 24.7864 101.799L25.2122 102.448C23.8081 103.37 22.4764 104.316 21.2141 105.287L20.7412 104.672C19.3901 105.711 18.1167 106.777 16.9176 107.871L17.4403 108.444C16.2053 109.57 15.051 110.724 13.9736 111.904L13.4005 111.381C12.2618 112.629 11.2069 113.907 10.2318 115.213L10.8536 115.678C9.86323 117.004 8.95666 118.361 8.12929 119.746L7.46324 119.348C6.60566 120.783 5.83168 122.249 5.13645 123.742L5.83985 124.07C5.14922 125.554 4.53731 127.066 3.99931 128.607L3.26685 128.351C2.72081 129.914 2.24999 131.504 1.84944 133.12L2.6025 133.306C2.21121 134.884 1.88764 136.488 1.6272 138.116L0.861085 137.994C0.601259 139.618 0.403686 141.264 0.263748 142.932L1.03689 142.996C0.900974 144.616 0.819934 146.256 0.789592 147.916L0.0138616 147.902C-0.0161382 149.544 0.00297933 151.203 0.0671084 152.878L0.842401 152.849C0.904634 154.474 1.00964 156.117 1.15371 157.774L0.38076 157.842C0.523012 159.478 0.702996 161.129 0.917084 162.792L1.68659 162.693C1.89505 164.312 2.13613 165.944 2.4065 167.587L1.64093 167.713C1.90794 169.336 2.20324 170.969 2.52362 172.611L3.28513 172.463C3.44282 173.271 3.60663 174.082 3.77619 174.895C3.94153 175.684 4.11455 176.515 4.29486 177.385L3.53515 177.542C3.85782 179.099 4.20392 180.781 4.57123 182.578L5.33137 182.423C5.65668 184.014 5.99862 185.695 6.35564 187.457L5.59523 187.611C5.92281 189.228 6.26311 190.913 6.61494 192.661L7.37555 192.508C7.70397 194.139 8.04244 195.825 8.38999 197.559L7.62925 197.712C7.95786 199.352 8.29459 201.036 8.63864 202.759L9.39949 202.607C9.72823 204.254 10.0636 205.937 10.405 207.653L9.64408 207.804C9.97291 209.457 10.3073 211.139 10.6465 212.848L11.4075 212.697C11.7366 214.354 12.0702 216.037 12.4079 217.741L11.6468 217.892C11.9761 219.554 12.3091 221.237 12.6455 222.938L13.4066 222.787C13.7361 224.454 14.0688 226.137 14.4041 227.835L13.643 227.986C13.9727 229.656 14.3051 231.34 14.6395 233.035L15.4007 232.885C15.7306 234.559 16.0626 236.243 16.3962 237.936L15.635 238.086C15.9651 239.762 16.2967 241.446 16.6295 243.137L17.3907 242.987C17.7207 244.664 18.0517 246.346 18.3834 248.033L17.6221 248.182C17.9523 249.862 18.2832 251.545 18.6143 253.229L19.3756 253.08L20.3676 258.129L19.6063 258.278C19.9372 259.963 20.2679 261.647 20.598 263.328L21.3593 263.178L22.3503 268.226L21.589 268.376C21.9203 270.063 22.2505 271.746 22.5792 273.42L23.3405 273.271L24.331 278.318L23.5696 278.468C23.5971 278.607 23.6245 278.747 23.6519 278.887C23.9569 280.441 24.2601 281.986 24.5612 283.52L25.3225 283.371L26.3141 288.423L25.5527 288.572C25.8867 290.274 26.2174 291.958 26.5444 293.623L27.3057 293.474L28.2975 298.524L27.5362 298.673C27.8719 300.382 28.2029 302.066 28.5284 303.722L29.2897 303.573C29.6267 305.287 29.958 306.971 30.2827 308.621L29.5215 308.771C29.8603 310.492 30.192 312.177 30.5159 313.82L31.2771 313.67C31.618 315.401 31.9503 317.085 32.273 318.72L31.5119 318.87C31.8556 320.611 32.1885 322.295 32.5094 323.917L33.2705 323.766C33.6173 325.518 33.9502 327.197 34.2677 328.796L33.5067 328.947C33.8625 330.738 34.199 332.427 34.5143 334.005L35.2751 333.853C35.4476 334.716 35.6137 335.545 35.7731 336.34C35.948 337.205 36.1293 338.06 36.3169 338.905L35.5596 339.073C35.9469 340.816 36.3618 342.515 36.8049 344.173L37.5545 343.973C38.0126 345.686 38.5009 347.354 39.0203 348.978L38.2814 349.215C38.8248 350.914 39.4023 352.566 40.0149 354.173L40.7399 353.897C41.3677 355.544 42.0325 357.143 42.7353 358.697L42.0284 359.016C42.7613 360.636 43.5354 362.207 44.3522 363.732L45.0361 363.366C45.8632 364.91 46.7341 366.405 47.6502 367.856L46.9943 368.27C47.9354 369.76 48.924 371.202 49.9616 372.601L50.5847 372.139C51.6184 373.532 52.7013 374.881 53.8348 376.188L53.2486 376.696C54.3927 378.016 55.5877 379.293 56.8352 380.532L57.3818 379.981C58.6021 381.192 59.8735 382.366 61.1975 383.506L60.6915 384.094C62.0046 385.224 63.3686 386.32 64.7847 387.384L65.2508 386.764C66.6203 387.793 68.0396 388.793 69.5102 389.766L69.082 390.413C70.5177 391.363 72.0011 392.287 73.5334 393.187L73.9264 392.518C75.4 393.384 76.9198 394.228 78.487 395.053L78.1258 395.739C79.6477 396.54 81.2134 397.322 82.8238 398.087L83.1567 397.386C84.701 398.119 86.2872 398.838 87.9163 399.542L87.6084 400.254C89.1858 400.936 90.8026 401.605 92.4595 402.262L92.7455 401.541C94.3404 402.173 95.973 402.795 97.6441 403.407L97.3772 404.136C98.9894 404.726 100.637 405.308 102.32 405.882L102.57 405.148C103.393 405.428 104.225 405.707 105.065 405.984L105.066 405.985C105.813 406.232 106.651 406.5 107.574 406.786L107.344 407.527C108.844 407.993 110.563 408.507 112.477 409.063L112.694 408.318C114.284 408.781 116.011 409.273 117.859 409.793L117.649 410.54C119.275 410.996 120.995 411.473 122.8 411.969L123.005 411.221C124.665 411.677 126.397 412.148 128.193 412.633L127.991 413.382C129.658 413.833 131.38 414.295 133.151 414.768L133.351 414.018C135.034 414.467 136.762 414.926 138.53 415.393L138.331 416.143C140.026 416.591 141.757 417.047 143.52 417.509L143.717 416.759C145.419 417.205 147.15 417.657 148.908 418.115L148.712 418.866C150.419 419.311 152.15 419.76 153.902 420.214L154.096 419.463C155.806 419.906 157.535 420.353 159.281 420.803L159.087 421.554C160.802 421.996 162.533 422.441 164.277 422.889L164.47 422.137C166.189 422.579 167.92 423.022 169.66 423.467L169.468 424.219C171.191 424.66 172.923 425.102 174.661 425.545L174.853 424.794C176.58 425.234 178.312 425.675 180.047 426.116L179.856 426.868C181.586 427.308 183.319 427.748 185.052 428.187L185.242 427.435C186.975 427.875 188.708 428.314 190.438 428.752L190.248 429.504C191.984 429.943 193.718 430.382 195.445 430.818L195.635 430.066C197.375 430.505 199.108 430.943 200.833 431.378L200.643 432.13C202.386 432.569 204.12 433.006 205.841 433.44L206.031 432.688C207.777 433.127 209.511 433.564 211.229 433.996L211.04 434.749C212.79 435.189 214.523 435.625 216.238 436.056L216.427 435.303C218.181 435.744 219.914 436.18 221.623 436.609L221.434 437.362C223.086 437.777 224.717 438.186 226.321 438.589C226.422 438.615 226.524 438.641 226.625 438.666L226.814 437.913L232.015 439.22L231.826 439.973C233.604 440.419 235.342 440.856 237.035 441.282L237.225 440.53L239.803 441.178C240.612 441.382 241.418 441.581 242.223 441.778L242.039 442.532C243.664 442.928 245.28 443.311 246.889 443.679L247.062 442.923C248.688 443.294 250.306 443.652 251.917 443.994L251.755 444.753C253.391 445.101 255.02 445.434 256.644 445.751L256.793 444.99C258.428 445.309 260.057 445.613 261.682 445.901L261.546 446.665C263.189 446.957 264.828 447.232 266.462 447.492L266.583 446.725C268.226 446.986 269.864 447.23 271.499 447.457L271.392 448.226C273.044 448.455 274.692 448.668 276.339 448.863L276.43 448.093C278.079 448.289 279.726 448.467 281.371 448.628L281.296 449.4C282.952 449.562 284.607 449.707 286.262 449.833L286.321 449.06C287.974 449.186 289.626 449.295 291.28 449.385L291.237 450.16C292.896 450.251 294.556 450.323 296.218 450.378L296.243 449.602C297.897 449.656 299.553 449.692 301.211 449.71L301.203 450.486C302.862 450.503 304.524 450.502 306.19 450.483L306.181 449.707C307.832 449.688 309.487 449.65 311.147 449.595L311.173 450.37C312.828 450.314 314.488 450.24 316.153 450.148L316.11 449.373C317.757 449.282 319.41 449.172 321.07 449.044L321.13 449.818C322.779 449.691 324.434 449.546 326.098 449.383L326.022 448.611C327.66 448.45 329.306 448.271 330.961 448.075L331.052 448.846C332.692 448.651 334.339 448.439 335.996 448.209L335.89 447.441C337.52 447.215 339.159 446.971 340.808 446.711L340.929 447.477C342.56 447.22 344.2 446.945 345.85 446.653L345.715 445.889C347.334 445.603 348.964 445.301 350.604 444.981L350.752 445.743C352.369 445.428 353.997 445.097 355.635 444.75L355.474 443.991C357.082 443.651 358.7 443.294 360.33 442.922L360.503 443.679C362.109 443.312 363.726 442.93 365.354 442.533L365.17 441.779C365.975 441.582 366.783 441.382 367.594 441.178L367.594 441.178L566.835 94.5745ZM566.835 94.5745C567.615 94.8879 568.382 95.2062 569.135 95.5293M566.835 94.5745L569.135 95.5293M569.135 95.5293L569.441 94.8163L569.135 95.5293Z" stroke="#DDDDDD" stroke-width="1.55172" stroke-dasharray="5.17 5.17"/>
<path d="M560.088 97.3726C534.247 86.9429 422.753 41.4992 369.204 20.6398C324.751 3.31911 288.67 0.339193 238.194 20.6398C187.657 40.9405 73.1504 86.9429 47.3097 97.3726C6.95244 113.576 4.12141 143.189 11.0484 176.402C17.4333 206.884 35.6242 300.814 42.1897 333.531C49.7793 371.09 69.6568 388.535 110.135 401.882C128.325 407.904 200.125 425.784 241.326 436.151C283.55 446.767 319.932 447.761 366.072 436.151C412.151 424.542 479.072 407.904 497.263 401.882C537.801 388.535 557.678 371.09 565.208 333.531C571.773 300.814 590.024 206.946 596.349 176.402C603.276 143.251 600.445 113.576 560.088 97.3726Z" fill="#F6F6F6"/>
<path d="M159.73 398.503C160.059 398.771 160.394 399.029 160.734 399.287L216.77 343.251C216.518 342.916 216.255 342.581 215.987 342.246L159.73 398.503Z" fill="url(#paint0_linear_20_21948)"/>
<path d="M173.418 405.698C173.881 405.837 174.35 405.961 174.819 406.084L223.568 357.336C223.449 356.867 223.32 356.398 223.181 355.934L173.418 405.698Z" fill="url(#paint1_linear_20_21948)"/>
<path d="M163.801 401.389C164.172 401.616 164.543 401.838 164.919 402.054L219.543 347.441C219.326 347.065 219.105 346.694 218.878 346.323L163.801 401.389Z" fill="url(#paint2_linear_20_21948)"/>
<path d="M168.346 403.806C168.759 403.992 169.176 404.172 169.594 404.348L221.831 352.11C221.661 351.693 221.48 351.275 221.295 350.863L168.346 403.806Z" fill="url(#paint3_linear_20_21948)"/>
<path d="M179.133 406.945C179.664 407.022 180.195 407.084 180.725 407.141L224.624 363.242C224.568 362.711 224.506 362.18 224.428 361.65L179.133 406.945Z" fill="url(#paint4_linear_20_21948)"/>
<path d="M156.534 395.633C156.684 395.782 156.833 395.926 156.988 396.071L213.554 339.499C213.41 339.35 213.26 339.195 213.116 339.046C212.972 338.896 212.817 338.752 212.663 338.608L156.091 395.179C156.235 395.329 156.385 395.483 156.529 395.633H156.534Z" fill="url(#paint5_linear_20_21948)"/>
<path d="M185.699 407.342C186.322 407.326 186.946 407.301 187.57 407.259L224.738 370.091C224.779 369.468 224.81 368.844 224.82 368.22L185.699 407.342Z" fill="url(#paint6_linear_20_21948)"/>
<path d="M223.856 376.147L193.63 406.373C194.434 406.193 195.238 405.986 196.032 405.754L223.238 378.548C223.47 377.755 223.676 376.951 223.856 376.147Z" fill="url(#paint7_linear_20_21948)"/>
<path d="M144.908 364.597C144.866 365.221 144.836 365.845 144.825 366.468L183.946 327.342C183.323 327.357 182.699 327.383 182.076 327.424L144.908 364.597Z" fill="url(#paint8_linear_20_21948)"/>
<path d="M145.026 371.442C145.083 371.972 145.145 372.503 145.222 373.034L190.517 327.739C189.987 327.661 189.456 327.599 188.925 327.543L145.026 371.442Z" fill="url(#paint9_linear_20_21948)"/>
<path d="M205.143 401.817C207.988 400.137 210.668 398.076 213.111 395.633C215.554 393.19 217.615 390.51 219.295 387.665L205.143 401.817Z" fill="url(#paint10_linear_20_21948)"/>
<path d="M146.413 356.135C146.181 356.929 145.974 357.733 145.794 358.537L176.02 328.311C175.216 328.491 174.412 328.697 173.619 328.929L146.413 356.135Z" fill="url(#paint11_linear_20_21948)"/>
<path d="M164.502 332.867C161.657 334.547 158.977 336.608 156.534 339.051C154.091 341.494 152.03 344.174 150.35 347.018L164.502 332.867Z" fill="url(#paint12_linear_20_21948)"/>
<path d="M150.108 387.243C150.324 387.619 150.546 387.99 150.772 388.361L205.844 333.289C205.473 333.062 205.102 332.841 204.726 332.624L150.108 387.243Z" fill="url(#paint13_linear_20_21948)"/>
<path d="M152.88 391.433C153.133 391.767 153.396 392.102 153.664 392.437L209.921 336.18C209.591 335.912 209.256 335.655 208.916 335.397L152.88 391.433Z" fill="url(#paint14_linear_20_21948)"/>
<path d="M146.083 377.348C146.201 377.817 146.33 378.286 146.469 378.749L196.228 328.986C195.764 328.847 195.295 328.723 194.826 328.599L146.083 377.348Z" fill="url(#paint15_linear_20_21948)"/>
<path d="M147.819 382.573C147.99 382.991 148.17 383.408 148.361 383.821L201.299 330.872C200.887 330.687 200.469 330.506 200.052 330.331L147.819 382.573Z" fill="url(#paint16_linear_20_21948)"/>
<path d="M459.315 86.9382L453.074 93.9982C452.363 94.8019 451.215 94.8018 450.505 93.998L445.55 88.3917C444.84 87.5879 443.691 87.5878 442.981 88.3915L438.024 93.9985C437.314 94.802 436.166 94.802 435.455 93.9985L430.499 88.3913C429.788 87.5877 428.64 87.5877 427.929 88.3913L422.973 93.9985C422.262 94.802 421.114 94.802 420.404 93.9985L415.447 88.3911C414.736 87.5876 413.588 87.5875 412.878 88.3908L407.919 93.9989C407.208 94.8023 406.06 94.8022 405.35 93.9987L400.45 88.4557C399.718 87.6273 398.526 87.6567 397.826 88.5203L392.096 95.5906M392.096 81.4845L398.334 74.4249C399.045 73.621 400.194 73.621 400.904 74.4248L405.858 80.0309C406.569 80.8347 407.717 80.8348 408.427 80.0311L413.384 74.4242C414.094 73.6206 415.243 73.6206 415.953 74.4242L420.91 80.0314C421.62 80.8349 422.769 80.8349 423.479 80.0314L428.436 74.4242C429.146 73.6206 430.294 73.6206 431.005 74.4242L435.962 80.0316C436.672 80.8351 437.82 80.8352 438.531 80.0318L443.49 74.4237C444.2 73.6204 445.348 73.6205 446.058 74.424L450.959 79.9672C451.691 80.7955 452.882 80.7662 453.582 79.9028L459.315 72.832" stroke="url(#paint17_linear_20_21948)" stroke-width="2.06896" stroke-miterlimit="10"/>
<defs>
<linearGradient id="paint0_linear_20_21948" x1="150.619" y1="340.322" x2="213.577" y2="407.342" gradientUnits="userSpaceOnUse">
<stop stop-color="#AE01FF"/>
<stop offset="1" stop-color="#315AFE"/>
</linearGradient>
<linearGradient id="paint1_linear_20_21948" x1="150.619" y1="340.322" x2="213.577" y2="407.342" gradientUnits="userSpaceOnUse">
<stop stop-color="#AE01FF"/>
<stop offset="1" stop-color="#315AFE"/>
</linearGradient>
<linearGradient id="paint2_linear_20_21948" x1="150.619" y1="340.322" x2="213.577" y2="407.342" gradientUnits="userSpaceOnUse">
<stop stop-color="#AE01FF"/>
<stop offset="1" stop-color="#315AFE"/>
</linearGradient>
<linearGradient id="paint3_linear_20_21948" x1="150.619" y1="340.322" x2="213.577" y2="407.342" gradientUnits="userSpaceOnUse">
<stop stop-color="#AE01FF"/>
<stop offset="1" stop-color="#315AFE"/>
</linearGradient>
<linearGradient id="paint4_linear_20_21948" x1="150.619" y1="340.322" x2="213.577" y2="407.342" gradientUnits="userSpaceOnUse">
<stop stop-color="#AE01FF"/>
<stop offset="1" stop-color="#315AFE"/>
</linearGradient>
<linearGradient id="paint5_linear_20_21948" x1="150.619" y1="340.322" x2="213.577" y2="407.342" gradientUnits="userSpaceOnUse">
<stop stop-color="#AE01FF"/>
<stop offset="1" stop-color="#315AFE"/>
</linearGradient>
<linearGradient id="paint6_linear_20_21948" x1="150.619" y1="340.322" x2="213.577" y2="407.342" gradientUnits="userSpaceOnUse">
<stop stop-color="#AE01FF"/>
<stop offset="1" stop-color="#315AFE"/>
</linearGradient>
<linearGradient id="paint7_linear_20_21948" x1="150.619" y1="340.322" x2="213.577" y2="407.342" gradientUnits="userSpaceOnUse">
<stop stop-color="#AE01FF"/>
<stop offset="1" stop-color="#315AFE"/>
</linearGradient>
<linearGradient id="paint8_linear_20_21948" x1="150.619" y1="340.322" x2="213.577" y2="407.342" gradientUnits="userSpaceOnUse">
<stop stop-color="#AE01FF"/>
<stop offset="1" stop-color="#315AFE"/>
</linearGradient>
<linearGradient id="paint9_linear_20_21948" x1="150.619" y1="340.322" x2="213.577" y2="407.342" gradientUnits="userSpaceOnUse">
<stop stop-color="#AE01FF"/>
<stop offset="1" stop-color="#315AFE"/>
</linearGradient>
<linearGradient id="paint10_linear_20_21948" x1="150.619" y1="340.322" x2="213.577" y2="407.342" gradientUnits="userSpaceOnUse">
<stop stop-color="#AE01FF"/>
<stop offset="1" stop-color="#315AFE"/>
</linearGradient>
<linearGradient id="paint11_linear_20_21948" x1="150.619" y1="340.322" x2="213.577" y2="407.342" gradientUnits="userSpaceOnUse">
<stop stop-color="#AE01FF"/>
<stop offset="1" stop-color="#315AFE"/>
</linearGradient>
<linearGradient id="paint12_linear_20_21948" x1="150.619" y1="340.322" x2="213.577" y2="407.342" gradientUnits="userSpaceOnUse">
<stop stop-color="#AE01FF"/>
<stop offset="1" stop-color="#315AFE"/>
</linearGradient>
<linearGradient id="paint13_linear_20_21948" x1="150.619" y1="340.322" x2="213.577" y2="407.342" gradientUnits="userSpaceOnUse">
<stop stop-color="#AE01FF"/>
<stop offset="1" stop-color="#315AFE"/>
</linearGradient>
<linearGradient id="paint14_linear_20_21948" x1="150.619" y1="340.322" x2="213.577" y2="407.342" gradientUnits="userSpaceOnUse">
<stop stop-color="#AE01FF"/>
<stop offset="1" stop-color="#315AFE"/>
</linearGradient>
<linearGradient id="paint15_linear_20_21948" x1="150.619" y1="340.322" x2="213.577" y2="407.342" gradientUnits="userSpaceOnUse">
<stop stop-color="#AE01FF"/>
<stop offset="1" stop-color="#315AFE"/>
</linearGradient>
<linearGradient id="paint16_linear_20_21948" x1="150.619" y1="340.322" x2="213.577" y2="407.342" gradientUnits="userSpaceOnUse">
<stop stop-color="#AE01FF"/>
<stop offset="1" stop-color="#315AFE"/>
</linearGradient>
<linearGradient id="paint17_linear_20_21948" x1="405.77" y1="72.832" x2="454.148" y2="95.5906" gradientUnits="userSpaceOnUse">
<stop stop-color="#AE00FF"/>
<stop offset="1" stop-color="#2264FE"/>
</linearGradient>
</defs>
</svg>
