<?xml version="1.0" standalone="no"?>
<!DOCTYPE svg PUBLIC "-//W3C//DTD SVG 1.1//EN" "http://www.w3.org/Graphics/SVG/1.1/DTD/svg11.dtd">
<svg xmlns="http://www.w3.org/2000/svg">
<metadata>Copyright (C) 2024 by original authors @ fontello.com</metadata>
<defs>
<font id="rt-fontello" horiz-adv-x="1000" >
<font-face font-family="rt-fontello" font-weight="400" font-stretch="normal" units-per-em="1000" ascent="850" descent="-150" />
<missing-glyph horiz-adv-x="1000" />
<glyph glyph-name="rt-warning-empty" unicode="&#xe800;" d="M514 701q-49 0-81-55l-308-513q-32-55-11-95t87-40l625 0q65 0 87 40t-12 95l-307 513q-33 55-80 55z m0 105q106 0 169-107l308-513q63-105 12-199-52-93-177-93l-625 0q-123 0-177 93-53 92 11 199l309 513q62 107 170 107z m-69-652q0 69 69 69 67 0 67-69 0-67-67-67-69 0-69 67z m146 313q0-14-6-29l-71-179q-44 108-73 179-6 15-6 29 0 32 23 55t56 24 55-24 22-55z" horiz-adv-x="1026" />

<glyph glyph-name="rt-tag" unicode="&#xe801;" d="M365 792q-109 0-185-76t-76-184 76-184l159-155 286-286 365 365q-369 369-441 444-76 76-184 76z m0 105q151 0 259-107 109-113 440-444 30-31 30-74t-30-74l-365-365q-30-30-74-30t-74 30l-270 270q-8 7-18 15l-157 157q-106 106-106 257t106 258q108 107 259 107z m0-286q-32 0-56-23t-23-56 23-55 56-22 55 22 23 55-23 56-55 23z m0 51q54 0 92-38t38-92-38-92-92-38-92 38-38 92 38 92 92 38z" horiz-adv-x="1094" />

<glyph glyph-name="rt-filter" unicode="&#xe802;" d="M320-77c-29 0-53 8-78 23-25 15-41 39-50 66l-4 15h-82c-8 0-17 4-21 8-4 7-8 15-8 23 0 7 4 15 8 19 4 4 13 8 21 8h82l4 15c9 27 25 50 50 65 25 16 49 24 78 24 29 0 54-8 78-24 25-15 42-38 50-65l4-15h404c8 0 16-4 20-8 5-4 9-12 9-19 0-8-4-16-9-19-4-4-12-8-20-8h-404l-4-19c-8-27-25-51-50-66-24-11-49-23-78-23z m0 208c-21 0-41-8-58-23-12-12-20-31-20-50 0-19 8-39 20-54 17-16 33-23 58-23 21 0 41 7 58 23 16 15 20 35 20 54 0 19-8 38-20 54-17 11-37 19-58 19z m322 104c-29 0-54 7-79 23-24 15-41 38-49 65l-4 16h-404c-8 0-17 3-21 7-4 8-8 16-8 23 0 8 4 16 8 20 4 3 13 7 21 7h404l4 16c8 27 25 50 49 65 25 15 50 23 79 23 28 0 53-8 78-23 25-15 41-38 49-65l4-16h83c8 0 16-4 20-7 5-4 9-12 9-20 0-7-4-15-9-19-4-4-12-8-20-8h-83l-4-15c-8-27-24-50-49-65-25-20-50-27-78-27z m0 207c-21 0-42-7-58-23-17-15-21-34-21-54 0-19 8-38 21-53 16-16 33-23 58-23 24 0 41 7 57 23 17 15 21 34 21 53 0 20-8 39-21 54-16 16-37 23-57 23z m-322 104c-29 0-53 8-78 23-25 16-41 39-50 66l-4 15h-82c-8 0-17 4-21 8-4 7-8 15-8 23 0 8 4 15 8 19 4 4 13 8 21 8h82l4 15c9 27 25 50 50 66 25 15 49 23 78 23 29 0 54-8 78-23 25-16 42-39 50-66l4-15h404c8 0 16-4 20-8 5-4 9-11 9-19 0-8-4-16-9-19-4-4-12-8-20-8h-404l-4-19c-8-27-25-50-50-66-24-15-49-23-78-23z m0 208c-21 0-41-8-58-23-12-12-20-31-20-50 0-19 8-39 20-54 17-15 33-23 58-23 21 0 41 8 58 23 12 15 20 31 20 54 0 19-8 38-20 54-17 11-37 19-58 19z" horiz-adv-x="1000" />

<glyph glyph-name="rt-tags" unicode="&#xe803;" d="M1011 502q30-32 30-74t-30-73l-56-56 5-5q30-31 29-74t-30-73l-364-366q-30-30-74-30t-73 30q-227 227-342 338-106 106-106 258 0 102 54 188-8 165 105 278 106 106 257 106 153 0 259-106z m-490-647l364 365-336 340q-76 77-184 77-109 0-185-77t-76-183 76-184q115-111 341-338z m102 779l258-261 57 56-337 340q-76 76-185 76-107 0-183-76-35-35-54-79 86 52 186 52 150 0 258-108z m-258-179q-32 0-56-23t-23-55 23-55 56-23 55 23 23 55-23 55-55 23z m0 52q54 0 92-39t38-91-38-92-92-38-92 38-38 92 38 91 92 39z" horiz-adv-x="1041" />

<glyph glyph-name="rt-flower" unicode="&#xe804;" d="M337-50c-38 0-76 10-109 36-43 31-71 73-76 120-5 46 5 98 33 134 5 5 5 11 10 11-5 0-10 5-16 5-98 31-152 140-119 238 21 78 97 125 179 125 22 0 38-6 60-11 5 0 11-5 16-5 0 5 0 10 0 16 0 103 82 181 185 181 103 0 180-78 180-181 0-6 0-11 0-16 5 0 10 5 16 5 22 5 38 11 60 11 81 0 157-52 185-125 16-46 10-98-11-145-22-47-66-78-115-93-5 0-10-5-16-5 6-6 6-11 11-11 60-83 44-197-43-254-33-21-71-36-109-36-60 0-109 26-147 78-6 5-6 10-11 15-5-10-5-15-11-15-38-52-92-78-152-78z m201 213c6-37 16-73 33-94 22-26 54-46 87-46 22 0 43 5 60 20 27 16 38 42 43 73 6 31 0 57-22 83-27 36-65 52-87 62-5 0-11 5-11 5l-32 11-6-6 55-72c5-11 11-16 5-26 0-10-5-21-16-26-6-5-16-5-22-5-11 0-22 5-32 15l-55 73c-5 0-5 0-11-5v-62h11z m-201 93c-16-5-60-26-87-62-16-26-27-52-22-83 6-31 22-52 44-73 21-15 43-21 65-21 33 0 65 16 87 47 16 26 33 62 33 99v51c-6 0-6 0-11 6l-55-73c-5-10-21-16-32-16-11 0-17 0-22 6-11 5-16 15-16 26 0 10 0 20 5 25l54 73-5 5-38-10c5 5 0 5 0 0z m163 155c-33 0-65-26-65-62 0-31 27-62 65-62 33 0 65 26 65 62-5 31-32 62-65 62z m-261 135c-49 0-92-31-109-72-16-63 17-125 76-146 17-5 33-5 49-5 17 0 33 0 49 5l55 16c0 5 0 5 0 10l-93 26c-5 5-16 11-22 21-5 10-5 21 0 26 6 15 22 26 39 26 5 0 10 0 10 0l87-26c0 5 6 5 6 10l-33 57c-22 21-54 37-76 47-11 5-22 5-38 5z m451-218c17 0 28-5 44-5 22 0 38 0 49 5 60 21 92 83 71 140-6 47-49 78-98 78-11 0-22 0-33-5-27-5-54-26-76-47l-33-57c6-5 6-5 6-10l87 26c5 0 5 0 11 0 16 0 32-11 38-26 5-21-6-42-28-47l-87-26c0-5 0-5 0-10l49-16z m-239 151h6v88c0 21 16 36 38 36 27 0 43-15 43-36v-88h6l21 31c0 5 0 10 6 15 22 31 32 68 32 99 0 62-43 109-103 109-60 0-103-47-103-109 0-31 11-68 32-99 0-5 0-10 0-15l22-31z" horiz-adv-x="1000" />

<glyph glyph-name="rt-grid" unicode="&#xe805;" d="M125 769c-24 0-44-20-44-44v-292c0-24 20-43 44-43h292c24 0 43 19 43 43v292c0 24-19 44-43 44h-292z m44-292v204h204v-204h-204z m414 292c-24 0-43-20-43-44v-292c0-24 19-43 43-43h292c24 0 44 19 44 43v292c0 24-20 44-44 44h-292z m44-292v204h204v-204h-204z m-87-210c0 24 19 43 43 43h292c24 0 44-19 44-43v-292c0-24-20-44-44-44h-292c-24 0-43 20-43 44v292z m87-44v-204h204v204h-204z m-502 87c-24 0-44-19-44-43v-292c0-24 20-44 44-44h292c24 0 43 20 43 44v292c0 24-19 43-43 43h-292z m44-291v204h204v-204h-204z" horiz-adv-x="1000" />

<glyph glyph-name="rt-minus" unicode="&#xe806;" d="M625 256h281c52 0 94 42 94 94 0 52-42 94-94 94h-281-125-406c-52 0-94-42-94-94 0-52 42-94 94-94h406 125z" horiz-adv-x="1000" />

<glyph glyph-name="rt-up-angle-bar" unicode="&#xe807;" d="M500 426l-375-374 53-52 322 321 323-321 52 52-375 374z m-450 224h900v-75h-900v75z" horiz-adv-x="1000" />

<glyph glyph-name="rt-paper-plane" unicode="&#xe808;" d="M923 798c-284-89-587-210-891-322-38-14-38-65 1-76 88-26 177-54 266-81 5-2 12-1 17 2 142 89 285 180 424 266 7 5 15-5 8-11-112-104-230-211-345-317-8-7-9-18-3-27 74-113 148-227 218-338 17-29 59-23 72 9 108 282 222 560 304 823 13 41-31 84-71 72z m-638-567c1-79 2-157 4-236 1-34 41-52 65-30 24 23 50 47 75 71 12 11 15 30 5 45-35 54-71 108-107 163-12 19-42 10-42-13h0z" horiz-adv-x="1000" />

<glyph glyph-name="rt-plus" unicode="&#xe809;" d="M594 756v-281-31h31 281c52 0 94-42 94-94 0-52-42-94-94-94h-281-31v-312c0-52-42-94-94-94-52 0-94 42-94 94v312h-312c-52 0-94 42-94 94 0 52 42 94 94 94h312v31 281c0 52 42 94 94 94 52 0 94-42 94-94z" horiz-adv-x="1000" />

<glyph glyph-name="rt-quote" unicode="&#xe80a;" d="M299 688c6 5 13 8 20 10 7 2 15 3 22 1 7-1 14-3 20-7 7-4 12-9 17-15 4-6 7-13 9-21 2-7 2-15 1-23-1-7-3-14-7-21-4-7-9-12-14-17-88-68-138-135-167-193 39 11 81 8 119-7 38-15 71-43 93-78 23-35 34-77 33-119-1-43-15-84-40-118-25-33-59-58-98-71-39-12-81-12-120 1-38 13-72 39-96 73-25 34-38 75-39 118-7 71 3 144 29 211 33 87 99 183 218 276z m505 0c6 5 13 8 20 10 7 2 14 3 22 1 7-1 14-3 20-7 7-4 12-9 17-15 4-6 7-13 9-21 2-7 2-15 1-23-1-7-3-14-7-21-4-7-9-12-14-17-88-68-138-135-167-193 39 11 81 8 119-7 38-15 71-43 93-78 23-35 34-77 33-119-1-43-15-84-40-118-25-33-59-58-98-71-39-12-81-12-120 1-38 13-72 39-96 73-25 34-38 75-39 118-7 71 3 144 29 211 33 87 99 183 218 276z" horiz-adv-x="1000" />

<glyph glyph-name="rt-reply" unicode="&#xe80b;" d="M969-67c-6 0-11 2-16 5-5 3-9 7-12 12l0 1c-46 83-114 152-195 201-82 48-175 73-270 73h-59v-177c0-6-2-12-5-17-4-5-9-9-14-12-6-2-12-3-18-2-6 1-12 4-16 9l-354 343c-3 3-6 7-7 11-2 3-3 8-3 12 0 4 1 8 3 12 1 4 4 7 7 10l354 344c4 4 10 7 16 8 6 1 12 1 18-2 5-2 10-6 14-11 3-5 5-11 5-18v-177c322-5 583-269 583-593 0-9-3-17-9-23-6-5-14-9-22-9z m-584 355h91c174 0 337-77 448-205-54 236-265 413-518 413h-21c-8 0-16 3-22 9-5 6-9 14-9 22v135l-278-270 278-270v134c0 9 4 17 9 22 6 6 14 10 22 10z" horiz-adv-x="1000" />

<glyph glyph-name="rt-search" unicode="&#xe80c;" d="M925-10l-150 150c50 65 80 145 80 235 0 210-170 375-375 375-210 5-380-165-380-370 0-210 170-375 375-375 90 0 170 30 235 80l150-150c15-15 45-15 60 0 20 10 20 40 5 55z m-240 185c-5-5-5-5-10-10-50-50-125-80-200-80-160 0-290 130-290 290 0 160 130 290 290 290 160 0 290-130 290-290 0-75-30-145-80-200z" horiz-adv-x="1000" />

<glyph glyph-name="rt-list" unicode="&#xe80d;" d="M98 672c-30 0-54-24-54-53 0-30 24-54 54-54h0c30 0 54 24 54 54 0 29-24 53-54 53h0z m223-6c-26 0-47-21-47-47 0-26 21-47 47-47h582c26 0 47 21 47 47 0 26-21 47-47 47h-582z m0-269c-26 0-47-21-47-47 0-26 21-47 47-47h582c26 0 47 21 47 47 0 26-21 47-47 47h-582z m-47-315c0 25 21 47 47 47h582c26 0 47-22 47-47 0-26-21-47-47-47h-582c-26 0-47 21-47 47z m-230 268c0 30 24 54 54 54h0c30 0 54-24 54-54 0-30-24-54-54-54h0c-30 0-54 24-54 54z m54-215c-30 0-54-24-54-53 0-30 24-54 54-54h0c30 0 54 24 54 54 0 29-24 53-54 53h0z" horiz-adv-x="1000" />

<glyph glyph-name="rt-calendar" unicode="&#xe80e;" d="M810 715h-80v40c0 25-20 45-45 45-25 0-45-20-45-45v-40h-245v40c0 25-20 45-45 45-20 0-40-20-40-45v-40h-85c-70 0-125-55-125-125v-585c0-70 55-125 125-125h585c70 0 125 55 125 125v585c5 70-55 125-125 125z m40-710c0-20-20-40-40-40h-585c-20 0-40 20-40 40v375h665v-375z m0 460h-660v125c0 20 20 40 40 40h80v-40c0-25 20-45 45-45 25 0 45 20 45 45v40h245v-40c0-25 20-45 45-45 25 0 45 20 45 45v40h80c20 0 40-20 40-40v-125h-5z" horiz-adv-x="1000" />

<glyph glyph-name="rt-chevron-right-1" unicode="&#xe80f;" d="M300-50l400 400-400 400" horiz-adv-x="1000" />

<glyph glyph-name="rt-location-4" unicode="&#xe810;" d="M266 668c62 62 146 97 234 97 88 0 172-35 234-97 62-63 97-147 97-235 0-128-83-253-175-350-45-47-91-86-125-114-12-9-22-17-31-24-9 7-19 15-31 24-34 28-80 67-125 114-92 97-175 222-175 350 0 88 35 172 97 235z m210-813c0 0 0 0 24 37l-24-37c14-10 34-10 48 0l-24 37c24-37 24-37 24-37l0 0 0 0 1 1 1 0c1 1 2 2 3 3 3 2 7 5 13 8 11 8 26 20 44 34 36 29 85 71 133 122 96 101 200 247 200 410 0 111-44 218-123 296-78 79-185 123-296 123-111 0-218-44-296-123-79-78-123-185-123-296 0-163 104-309 200-410 48-51 97-93 133-122 18-14 34-26 44-34 6-3 10-6 13-8 1-1 3-2 3-3l1 0 1-1 0 0 0 0z m-57 578c0 45 36 82 81 82 45 0 81-37 81-82 0-44-36-81-81-81-45 0-81 37-81 81z m81 169c-93 0-169-75-169-169 0-93 76-168 169-168 93 0 169 75 169 168 0 94-76 169-169 169z" horiz-adv-x="1000" />

<glyph glyph-name="rt-user-1" unicode="&#xe811;" d="M353 599c0 81 66 147 147 147 81 0 147-66 147-147 0-81-66-147-147-147-81 0-147 66-147 147z m147 251c-139 0-251-112-251-251 0-139 112-251 251-251 139 0 251 112 251 251 0 139-112 251-251 251z m-199-597c-67 0-130-26-178-74-47-47-73-111-73-177v-100c0-29 23-52 52-52 29 0 52 23 52 52v100c0 39 16 76 43 104 28 27 65 43 104 43h398c39 0 76-16 104-43 27-28 43-65 43-104v-100c0-29 23-52 52-52 29 0 52 23 52 52v100c0 66-26 130-73 177-47 48-111 74-178 74h-398z" horiz-adv-x="1000" />

<glyph glyph-name="rt-user" unicode="&#xe812;" d="M500 321c29 0 59 6 86 18 27 11 52 27 73 48 21 21 37 46 49 73 11 28 17 57 17 86 0 30-6 59-17 87-12 27-28 52-49 72-21 21-46 38-73 49-27 12-57 17-86 17-60 0-117-23-159-66-43-42-66-99-66-159 0-59 23-117 66-159 42-42 99-66 159-66z m0 529c66 0 130-22 182-62 53-40 90-96 108-159 17-64 13-131-12-192-25-61-69-112-126-146 184-55 323-211 348-404 2-18-12-35-31-37-19-2-36 11-39 29-27 210-208 368-428 368-221 0-405-158-432-368-3-18-20-31-39-29-19 2-33 19-31 37 25 193 164 348 349 404-57 33-101 84-126 145-25 61-30 129-13 192 18 64 55 120 108 160 52 40 116 62 182 62z" horiz-adv-x="1000" />

<glyph glyph-name="rt-down-arrow" unicode="&#xe813;" d="M534 142l335 345c21 22 8 63-19 63h-670c-28 0-40-41-20-63l335-345c11-11 28-11 39 0z" horiz-adv-x="1000" />

<glyph glyph-name="rt-tree" unicode="&#xe814;" d="M464-100v235c-34-17-67-22-107-22-139 0-257 114-257 251 0 98 56 185 146 229 11 54 39 103 78 142 50 43 112 65 179 65 67 0 129-22 173-65 39-39 67-88 79-142 89-44 145-131 145-229 0-137-117-251-257-251-34 0-73 5-107 22v-235h-72z m78 322c28-22 67-33 106-33 101 0 179 77 179 175 0 71-44 136-117 163l-23 11v28c-5 43-22 81-55 114-40 27-84 44-129 44-45 0-90-17-123-49-34-28-51-71-56-115v-27l-28-6c-67-21-118-87-118-163 0-98 79-175 179-175 40 0 73 11 107 33v33l-123 60 39 71 84-44v202h78v-93l84 44 39-71-123-60v-142z" horiz-adv-x="1000" />

<glyph glyph-name="rt-email" unicode="&#xe815;" d="M845 750h-670c-70 0-125-55-125-125v-500c0-70 55-125 125-125h665c70 0 125 55 125 125v500c5 70-50 125-120 125z m-670-90h665c15 0 30-10 35-20l-25-15-340-240-340 240-30 15c10 15 20 20 35 20z m710-535c0-20-20-40-40-40h-670c-20 0-40 20-40 40v415l350-245c15-10 35-10 50 0l350 245v-415z" horiz-adv-x="1000" />

<glyph glyph-name="rt-play" unicode="&#xe816;" d="M742 434c29-18 48-51 48-84 0-35-19-68-48-84l-592-362c-31-19-70-21-101-2-30 16-49 49-49 86v724c0 35 19 68 49 84 31 19 70 19 101-2l592-360z m0 0c29-18 48-51 48-84 0-35-19-68-48-84l-592-362c-31-19-70-21-101-2-30 16-49 49-49 86v724c0 35 19 68 49 84 31 19 70 19 101-2l592-360z" horiz-adv-x="789" />

<glyph glyph-name="rt-cart" unicode="&#xe817;" d="M0 814c0 10 4 19 11 26 6 6 15 10 25 10h31c52 0 82-34 99-67 12-24 20-52 27-76h736c11 0 22-3 31-8 10-4 19-12 26-20 6-9 11-19 13-30 2-11 1-22-2-33l-106-377c-9-29-27-56-52-75-25-18-55-28-86-28h-363c-31 0-61 10-86 29-25 19-43 46-51 76l-46 168c0 1-1 2-1 2l-74 250-7 24c-7 25-13 47-23 65-11 22-21 29-35 29h-31c-10 0-19 3-25 10-7 7-11 16-11 25l0 0z m275-383l47-172c4-15 13-28 25-37 13-10 28-15 43-15h363c16 0 31 5 43 14 13 10 22 23 26 38l107 377h-714l60-205z m225-474c0-28-11-56-31-76-20-20-48-31-76-31-28 0-56 11-76 31-20 20-31 48-31 76 0 28 11 56 31 76 20 20 48 31 76 31 28 0 56-11 76-31 20-20 31-48 31-76z m-71 0c0 10-4 19-11 25-6 7-15 11-25 11-9 0-18-4-25-11-7-6-11-15-11-25 0-9 4-18 11-25 7-7 16-11 25-11 10 0 19 4 25 11 7 7 11 16 11 25z m428 0c0-28-11-56-31-76-20-20-47-31-76-31-28 0-56 11-76 31-20 20-31 48-31 76 0 28 11 56 31 76 20 20 48 31 76 31 29 0 56-11 76-31 20-20 31-48 31-76z m-71 0c0 10-4 19-11 25-6 7-15 11-25 11-9 0-18-4-25-11-7-6-11-15-11-25 0-9 4-18 11-25 7-7 16-11 25-11 10 0 19 4 25 11 7 7 11 16 11 25z" horiz-adv-x="1000" />

<glyph glyph-name="rt-clock" unicode="&#xe818;" d="M127 350c0 206 167 373 373 373 206 0 373-167 373-373 0-206-167-373-373-373-206 0-373 167-373 373z m373 460c-254 0-460-206-460-460 0-254 206-460 460-460 254 0 460 206 460 460 0 254-206 460-460 460z m44-210c0 24-20 44-44 44-24 0-44-20-44-44v-250c0-17 10-32 24-39l167-83c22-11 48-2 59 19 11 22 2 48-20 59l-142 71v223z" horiz-adv-x="1000" />

<glyph glyph-name="rt-arrow-circle" unicode="&#xe819;" d="M525-154c-282 0-510 222-510 498 0 275 228 497 510 497 282 0 510-222 510-497 0-276-228-498-510-498z m0 937c-249 0-450-197-450-439 0-243 201-439 450-439 249 0 450 196 450 439 0 242-201 439-450 439z m-9-723l-42 41 249 243-249 242 42 41 291-283-291-284z m-261 313h510v-59h-510v59z" horiz-adv-x="1067" />

<glyph glyph-name="rt-phone" unicode="&#xe81a;" d="M917-122c-113 0-223 25-330 75-107 51-202 117-284 200-83 82-149 177-200 284-50 107-75 217-75 330 0 16 5 29 16 39 10 11 23 16 39 16h212c13 0 24-4 33-12 10-8 16-18 17-30l34-183c2-13 2-24 0-34-2-10-8-19-15-27l-126-128c36-63 82-122 137-177 56-55 116-103 183-143l123 123c8 8 18 14 31 18 12 4 25 5 37 3l181-37c12-2 22-8 30-17 8-10 12-20 12-33v-212c0-16-5-29-16-39-10-11-23-16-39-16z" horiz-adv-x="1000" />

<glyph glyph-name="rt-user-2" unicode="&#xe81b;" d="M978 350c0 80-20 158-58 228-37 70-92 129-159 173-66 43-143 69-222 76-79 6-159-7-232-39-73-33-136-82-185-145-49-63-81-137-94-216-13-78-6-159 20-234 26-75 71-142 130-196l5-5c88-77 200-120 317-120 117 0 230 43 317 120l6 5c49 45 88 99 115 160 26 61 40 127 40 193z m-900 0c0 69 17 137 49 198 32 61 79 113 136 151 57 39 122 63 191 71 68 8 137-2 201-27 64-26 121-66 166-119 45-52 76-115 91-182 15-67 13-137-5-203-18-67-53-128-100-178-44 69-110 120-187 147 38 26 67 63 83 107 16 43 17 91 3 135-13 44-40 83-77 111-38 27-83 42-129 42-46 0-91-15-128-42-38-28-65-67-78-111-14-44-13-92 3-135 16-44 45-81 84-107-78-27-144-78-188-147-74 78-115 182-115 289z m263 38c0 31 9 62 27 88 17 26 42 47 71 59 29 12 61 15 92 9 31-6 59-21 82-44 22-22 37-50 43-81 7-31 3-63-9-92-12-30-32-54-58-72-27-17-57-27-89-27-42 0-83 17-113 47-29 30-46 70-46 113z m-106-366c27 46 66 83 113 110 46 26 99 40 152 40 53 0 106-14 152-40 47-27 86-64 113-110-75-61-168-94-265-94-97 0-190 33-265 94z" horiz-adv-x="1000" />

<glyph glyph-name="rt-comment" unicode="&#xe81c;" d="M500 491c-9 0-18-3-26-8-8-5-14-13-17-21-4-9-5-18-3-27 2-9 6-18 13-24 6-7 15-11 24-13 9-2 18-1 27 2 9 4 16 10 21 18 5 7 8 17 8 26 0 12-5 24-14 33-9 9-21 14-33 14z m328 328h-656c-37 0-73-15-100-41-26-27-41-63-41-100v-469c0-37 15-73 41-99 27-26 63-41 100-41h543l174-174c4-5 9-8 15-10 6-3 12-4 18-4 6 0 12 1 18 4 8 3 16 9 21 17 5 8 8 17 8 26v750c0 37-15 73-41 100-27 26-63 41-100 41z m47-778l-107 108c-5 4-10 8-16 10-5 2-11 4-18 4h-562c-13 0-24 4-33 13-9 9-14 21-14 33v469c0 13 5 25 14 33 9 9 20 14 33 14h656c13 0 25-5 33-14 9-8 14-20 14-33v-637z m-562 450c-10 0-19-3-26-8-8-5-14-13-18-21-3-9-4-18-2-27 1-9 6-18 12-24 7-7 15-11 24-13 9-2 19-1 27 2 9 4 16 10 22 18 5 7 7 17 7 26 0 12-5 24-13 33-9 9-21 14-33 14z m375 0c-10 0-19-3-26-8-8-5-14-13-18-21-3-9-4-18-2-27 1-9 6-18 12-24 7-7 15-11 24-13 10-2 19-1 27 2 9 4 16 10 22 18 5 7 7 17 7 26 0 12-5 24-13 33-9 9-21 14-33 14z" horiz-adv-x="1000" />

<glyph glyph-name="rt-medicine" unicode="&#xe81d;" d="M223 90h-5c-43 1-85 14-121 38-35 24-63 58-80 98-17 40-22 83-15 126 8 42 27 81 57 113l162 162 164 161c42 40 98 62 156 62 43 0 86-14 122-38 35-24 64-58 80-97 17-40 22-84 15-127-8-42-28-81-57-113-6-5-14-7-21-7-8 0-15 3-20 8-6 5-10 12-10 20-1 7 1 15 5 21 21 23 36 51 41 82 6 30 2 62-10 91-12 28-33 53-59 70-25 18-56 27-87 28-41 0-81-15-112-43l-139-139 155-155c6-6 9-14 9-23 0-8-3-16-9-22-6-6-14-9-22-9-9 0-17 3-23 9l-155 155-140-140c-27-30-42-70-41-111 0-41 17-81 46-110 29-30 69-47 110-47 42-1 82 14 113 42 6 4 14 6 21 5 8 0 15-4 20-9 5-6 8-13 8-21 0-7-2-15-7-21-41-38-95-59-151-59z m490-234h-6c-78 17-148 60-198 123-50 62-77 140-77 220v94c0 25 10 49 27 66 18 18 42 28 67 28h375c25 0 48-10 66-28 17-17 27-41 27-66v-94c1-79-26-157-76-220-50-62-120-105-198-123l-7 0z m-187 468c-4 0-8 0-12-2-4-2-7-4-10-7-6-6-9-14-10-22v-94c0-65 22-129 63-180 39-50 94-85 155-100 61 15 116 50 156 100 41 51 63 115 62 180v94c0 8-3 16-9 22-3 3-6 5-10 7-4 2-8 2-12 2h-373z m187-312c-8 0-16 3-22 9-6 6-9 14-9 22v63h-63c-8 0-16 3-22 9-6 6-9 14-9 22 0 8 3 16 9 22 6 6 14 9 22 9h63v63c0 8 3 16 9 22 6 6 14 9 22 9 8 0 16-3 22-9 6-6 9-14 9-22v-63h63c8 0 16-3 22-9 6-6 9-14 9-22 0-8-3-16-9-22-6-6-14-9-22-9h-63v-63c0-8-3-16-9-22-6-6-14-9-22-9z" horiz-adv-x="1000" />

<glyph glyph-name="rt-ei_user" unicode="&#xe81e;" d="M515-150c-268 0-485 217-485 485 0 268 217 485 485 485 268 0 485-217 485-485 0-268-220-485-485-485z m0 913c-237 0-428-191-428-428 0-237 191-428 428-428 237 0 428 191 428 428 0 237-194 428-428 428z m-280-779l-51 23c14 34 60 54 109 77 48 23 108 48 108 80v43c-17 14-46 45-51 91-15 14-37 40-37 74 0 20 8 37 14 49-6 22-12 65-12 99 0 112 77 186 200 186 34 0 77-9 100-34 54-12 100-74 100-152 0-48-9-88-14-108 5-8 11-23 11-40 0-37-20-63-37-74-6-46-32-74-49-88v-46c0-26 52-46 97-63 55-20 112-43 132-88l-55-20c-8 23-54 40-97 54-62 23-134 48-134 114v74l15 9c0 0 34 23 34 68v20l17 9c3 0 17 8 17 31 0 6-6 14-9 17l-11 12 6 14c0 0 14 46 14 103 0 54-31 94-57 94h-17l-9 14c0 11-20 23-54 23-88 0-143-49-143-129 0-37 15-99 15-99l3-15-12-14c-3 0-8-8-8-20 0-14 17-31 25-37l12-9v-14c0-43 37-65 37-68l14-9v-74c0-68-74-103-143-131-31-12-74-32-80-46z" horiz-adv-x="1000" />

<glyph glyph-name="rt-marketing" unicode="&#xe81f;" d="M891 719c-11 7-23 11-36 12-13 1-26-1-37-6l-386-152c-9-4-19-5-29-5h-247c-20 0-40-9-55-23-15-15-23-35-23-56v-6h-78v-187h78v-8c1-21 9-40 24-54 14-15 34-23 54-23l94-198c6-14 16-25 29-33 12-8 27-12 42-13h39c21 1 40 9 55 24 14 14 23 34 23 55v158l380-152c9-4 19-6 29-6 16 1 31 5 44 14 10 7 18 16 24 27 6 11 10 23 10 36v531c0 13-3 26-9 37-6 11-15 21-25 28z m-532-230v-201h-203v201h203z m0-443h-39l-77 165h116v-165z m102 232c-8 4-15 7-23 10v206c7 1 15 4 23 7l386 153v-530l-386 154z m466 190v-157c21 0 41 9 55 23 15 15 23 35 23 55 0 21-8 41-23 56-14 14-34 23-55 23z" horiz-adv-x="1000" />

<glyph glyph-name="rt-education" unicode="&#xe820;" d="M1135 394c0 45-11 89-33 129-21 40-52 74-89 100-38 25-81 41-126 45-45 5-90-2-132-19-42-17-79-44-108-79-29-35-49-76-58-120-10-45-8-90 5-134 13-43 36-83 68-115v-280c0-7 1-14 5-20 3-5 8-10 13-14 6-3 13-5 19-6 7 0 14 1 20 4l140 70 140-70c6-3 12-4 19-4 7 1 13 3 19 6 6 4 11 9 14 14 3 6 5 13 5 20v280c50 51 79 120 79 193z m-276 197c39 0 77-12 109-34 33-21 58-52 73-88 15-36 19-76 11-114-8-38-26-73-54-101-27-27-63-46-101-54-38-7-78-3-114 12-36 14-66 40-88 72-22 32-33 71-33 110 0 52 20 102 57 139 37 37 87 58 140 58z m17-556c-5 3-11 4-17 4-6 0-12-1-18-4l-100-51v160c36-17 77-26 118-26 41 0 81 9 118 26v-160l-101 51z m-293 43c0-10-4-20-12-28-7-7-17-11-27-11h-434c-21 0-41 8-56 23-14 15-23 35-23 56v630c0 21 9 41 23 56 15 15 35 23 56 23h867c21 0 41-8 56-23 14-15 23-35 23-56 0-10-4-20-12-28-7-7-17-11-28-11-10 0-20 4-28 11-7 8-11 18-11 28h-867v-630h434c10 0 20-4 27-12 8-7 12-17 12-28z m-79 276c0-10-4-20-11-28-8-7-18-11-28-11h-197c-11 0-21 4-28 11-8 8-12 18-12 28 0 11 4 21 12 28 7 7 17 12 28 12h197c10 0 20-5 28-12 7-7 11-17 11-28z m0 158c0-11-4-21-11-28-8-8-18-12-28-12h-197c-11 0-21 4-28 12-8 7-12 17-12 28 0 10 4 20 12 28 7 7 17 11 28 11h197c10 0 20-4 28-11 7-8 11-18 11-28z" horiz-adv-x="1174" />

<glyph glyph-name="rt-round-border-tick" unicode="&#xe821;" d="M741 476l-321-322-193 193 64 64 129-128 257 257 64-64z m-64 64l64-64-321-322-193 193 64 64 129-128 257 257z m-177 310c-99 0-196-29-278-84-82-55-146-133-184-225-38-91-48-192-28-288 19-97 67-187 136-257 70-70 160-117 257-136 96-20 197-10 288 28 92 38 170 102 225 184 55 82 84 179 84 278 0 133-53 260-146 354-94 93-221 146-354 146z m289-789c-77-77-180-120-289-120-54 0-107 10-156 31-101 42-180 121-222 222-20 49-31 102-31 156 0 54 11 107 31 156 42 101 121 180 222 222 49 21 102 31 156 31 81 0 160-24 227-69 67-45 120-109 151-183 31-75 39-157 23-237-16-79-55-152-112-209z m-48 415l-321-322-193 193 64 64 129-128 257 257 64-64z" horiz-adv-x="1000" />

<glyph glyph-name="rt-award" unicode="&#xe822;" d="M720 782v68h-482v-68h-238v-105c0-32 6-63 18-93 12-29 30-56 53-78 11-11 23-21 37-30l13-7c9-6 19-11 29-15 6 0 13-4 19-6 8-3 17-5 26-7 6-1 13-1 20 0 9-2 18-3 27-3 0 0 0-4 0-6 0-2 0-8 3-13 2-10 5-20 9-29l6-13c4-10 8-19 14-27l7-12c8-12 17-23 27-33 36-36 83-60 133-67v-269h-132v-75h341v75h-134v267c50 7 97 29 134 64 10 10 20 21 28 34 2 3 5 7 7 11 5 9 10 19 15 29 0 5 4 9 6 14 1 4 6 19 9 29l3 13v6c9 0 18 1 27 3 6-1 13-1 19 0 9 3 18 7 26 11 6 0 13 3 19 6 8 4 17 8 26 14 5 3 10 5 15 8 13 9 25 19 37 30 22 22 40 48 52 78 12 29 18 60 18 92v104h-237z m-482-271h-17-14l-18 6-12 4-18 10-9 8c-9 6-17 13-25 20-16 15-28 34-37 54-8 20-13 42-13 64v30h163v-196z m407-38c-1-22-5-44-14-64-8-20-21-38-36-53-32-30-74-47-118-47-44 0-86 17-117 47-32 31-50 73-50 117v300h332l3-300z m237 204c0-22-5-44-13-64-9-20-21-39-37-54-8-7-16-14-25-20l-10-5-18-10-13-4c-6 0-11-4-18-5h-14c-5 0-10 0-16 0v192h163l1-30z" horiz-adv-x="1000" />

<glyph glyph-name="rt-image" unicode="&#xe823;" d="M318 645c-62 0-113-51-113-113 0-61 51-113 113-113 62 0 113 52 113 113 5 62-46 113-113 113z m0-154c-21 0-36 15-36 41 0 21 15 41 41 41 21-5 36-20 36-41 0-26-15-41-41-41z m0 154c-62 0-113-51-113-113 0-61 51-113 113-113 62 0 113 52 113 113 5 62-46 113-113 113z m0-154c-21 0-36 15-36 41 0 21 15 41 41 41 21-5 36-20 36-41 0-26-15-41-41-41z m544 359h-718c-82 0-144-61-144-144v-718c0-77 62-143 144-143h718c77 0 143 61 143 143v718c-5 83-66 144-143 144z m61-862c0-35-31-61-61-61h-626l472 472 215-216v-195z m0 303l-190 190c-15 15-41 15-56 0l-549-554c-31 5-51 31-51 61v718c0 36 31 62 62 62h717c36 0 62-31 62-62v-415h5z m-605 354c-62 0-113-51-113-113 0-61 51-113 113-113 62 0 113 52 113 113 5 62-46 113-113 113z m0-154c-21 0-36 15-36 41 0 21 15 41 41 41 21-5 36-20 36-41 0-26-15-41-41-41z m0 154c-62 0-113-51-113-113 0-61 51-113 113-113 62 0 113 52 113 113 5 62-46 113-113 113z m0-154c-21 0-36 15-36 41 0 21 15 41 41 41 21-5 36-20 36-41 0-26-15-41-41-41z" horiz-adv-x="1000" />

<glyph glyph-name="rt-video" unicode="&#xe824;" d="M1475 715c-13 6-32 6-52 0l-370-271v225c0 97-76 181-178 181h-703c-95 0-172-77-172-181v-645c0-97 77-181 179-181h702c96 0 179 78 179 181v233l370-272c6-6 19-6 25-6 7 0 13 0 20 6 12 7 25 26 25 46v645c0 13-13 32-25 39z m-518-691c0-45-38-77-76-77h-702c-45 0-77 38-77 77v645c0 46 38 78 77 78h702c45 0 76-39 76-78v-645z m447 97l-319 232 319 226v-458z" horiz-adv-x="1500" />

<glyph glyph-name="rt-check" unicode="&#xe825;" d="M980 732c18-17 18-45 2-62l-619-650c-8-9-20-14-32-14-12 0-23 5-31 14l-282 295c-16 18-16 46 2 62 17 17 45 16 62-1l249-262 587 616c17 18 45 18 62 2z" horiz-adv-x="1000" />

<glyph glyph-name="rt-share" unicode="&#xe826;" d="M794 163c-36 19-78 25-120 19-36-7-72-31-96-61l-228 158c12 24 18 48 18 72 0 24-6 49-18 67l228 164c18-25 36-43 66-55 24-12 54-18 84-12 30 0 54 12 78 30 24 18 42 37 54 61 12 24 18 54 18 85 0 30-12 54-24 78-12 25-36 43-60 61-30 12-60 18-84 18-24 0-48-6-72-18-24-6-42-24-54-42-18-19-30-43-36-61-6-24-6-48 0-73l-240-169c-29 12-59 30-89 30-30 0-60 0-90-18-24-12-48-31-66-61-18-24-24-54-24-85 0-30 6-60 24-91 18-24 42-48 66-60 30-12 60-18 90-18 30 6 60 12 83 36l240-170c-6-42 0-79 24-115 24-36 54-61 90-73 36-12 78-12 120 6 36 18 66 49 84 85 18 37 18 79 6 121-12 37-42 67-72 91z m-150 582c18 18 36 24 60 24 24 0 48-6 60-24 18-18 24-36 24-60 0-25-6-49-24-61-18-18-36-24-60-24-24 0-48 6-60 24-18 18-24 36-24 61 0 24 6 42 24 60z m-377-460c-18-19-36-25-60-25-24 0-48 12-66 25-18 18-24 42-24 66 0 24 12 49 24 61 18 18 42 24 60 24 18 0 48-12 60-24 18-18 24-43 24-61 0-18 0-48-18-66z m503-334c-18-18-36-24-60-24-24 0-48 12-60 24-18 18-24 43-24 67 0 24 6 48 24 61 18 18 36 24 60 24 24 0 48-6 60-24 18-19 24-43 24-61 0-24-6-49-24-67z" horiz-adv-x="917" />

<glyph glyph-name="rt-location-2" unicode="&#xe827;" d="M400 350c28 0 51 10 71 29 19 20 29 44 29 71 0 28-10 51-29 71-20 19-43 29-71 29-27 0-51-10-71-29-19-20-29-43-29-71 0-27 10-51 29-71 20-19 44-29 71-29z m0-368c102 94 177 179 226 255 49 76 74 144 74 203 0 91-29 165-87 223-58 58-129 87-213 87-84 0-155-29-213-87-58-58-87-132-87-223 0-59 25-127 74-203 49-76 124-161 226-255z m0-132c-134 114-234 220-301 318-66 98-99 189-99 272 0 125 40 225 121 299 80 74 173 111 279 111 106 0 199-37 279-111 81-74 121-174 121-299 0-83-33-174-99-272-67-98-167-204-301-318z" horiz-adv-x="800" />

<glyph glyph-name="rt-location-3" unicode="&#xe828;" d="M566 471h81v121h121v81h-121v121h-81v-121h-122v-81h122v-121z m-243-161c23 0 42 8 57 23 16 16 24 35 24 57 0 23-8 42-24 58-16 15-35 23-57 23-22 0-41-8-57-23-16-16-24-35-24-58 0-22 8-41 24-57 16-15 35-23 57-23z m0-404c-108 92-189 178-243 257-53 79-80 152-80 219 0 101 33 182 98 242 65 60 140 90 225 90 7 0 14 0 20-1 7 0 14-1 21-1v-82c-7 1-14 2-20 2-6 1-13 1-21 1-68 0-125-24-172-70-47-47-70-107-70-181 0-47 20-102 59-164 40-61 101-130 183-205 82 75 143 144 183 205 40 62 60 117 60 164v8h81v-8c0-67-27-140-81-219-53-79-134-165-243-257z" horiz-adv-x="778" />

<glyph glyph-name="rt-carbon_forum" unicode="&#xe829;" d="M875 663h-625c-37 0-62-25-62-63v-437c0-38 25-63 62-63h250v63h-250v437h625v-437h-225l-150-213 50-38 131 188h194c38 0 63 25 63 63v437c0 38-25 63-63 63z m-750-375h-62v406c0 53 40 94 93 94h407v-63h-407c-18 0-31-12-31-31v-406z" horiz-adv-x="1000" />

<glyph glyph-name="rt-comment-2" unicode="&#xe82a;" d="M1259 58c33-67 83-121 83-121 15-16 17-38 11-56-9-20-27-31-47-31-121 0-217 45-281 85-43-9-87-14-132-14-194 0-357 90-429 217-20 4-42 7-62 11-65-40-161-87-279-87-23 0-40 13-49 31-7 20-3 43 11 56 0 2 49 56 85 123-63 62-99 138-99 221 0 196 208 357 465 357 192 0 357-91 426-221 223-24 395-172 395-350 0-85-38-161-98-221z m-877 207l44-11c36-9 72-11 110-11 192 0 357 114 357 250 0 134-165 250-357 250-194 0-357-116-357-250 0-65 35-114 64-143l56-56-33-69c-7-11-14-22-18-33 31 11 65 26 96 49l38 24z m801-129c29 29 67 78 67 143 0 109-109 203-252 236 0-9 2-15 2-22 0-181-174-330-402-355 65-65 174-109 295-109 36 0 74 2 109 11l43 11 40-25c31-20 62-38 96-49-7 11-14 23-18 34l-36 69 56 56z" horiz-adv-x="1429" />

<glyph glyph-name="rt-check-2" unicode="&#xe82b;" d="M167 517l-167-167 500-500 833 833-166 167-667-667-333 334z" horiz-adv-x="1333" />

<glyph glyph-name="rt-feedback" unicode="&#xe82c;" d="M281 788l-31-32v-95c21 2 42 2 63 0v64h562v-312h-107l-80-81v81h-127c2-21 2-42 0-63h64v-94l53-22 116 116h112l32 31v375l-32 32h-625z m120-590c40 26 70 64 86 108 16 44 17 93 4 138-14 45-41 84-79 113-38 28-84 43-131 43-47 0-93-15-130-43-38-29-66-68-79-113-14-45-12-94 4-138 16-44 46-82 85-108-48-22-89-58-117-104-29-45-44-97-44-150l0-32h63v32c1 57 25 110 66 150 41 39 96 61 152 61 57 0 112-22 152-61 41-40 65-93 67-150v-32h63v32c0 53-16 105-44 150-29 46-70 82-118 104z m-120 27c-41 0-81 17-110 46-29 29-46 69-46 110 0 42 17 81 46 111 29 29 69 46 110 46 42 0 81-17 111-46 29-30 46-69 46-111 0-41-17-81-46-110-30-29-69-46-111-46z" horiz-adv-x="1000" />

<glyph glyph-name="rt-chevron-down" unicode="&#xe82d;" d="M65 585c19 20 51 20 70 0l365-364 365 364c19 20 51 20 70 0 20-19 20-51 0-70l-400-400c-19-20-51-20-70 0l-400 400c-20 19-20 51 0 70z" horiz-adv-x="1000" />

<glyph glyph-name="rt-eye" unicode="&#xe82e;" d="M750 642v-3c162 0 292-130 292-289 0-161-130-292-292-292-161 0-292 131-292 292 0 29 6 55 13 81 19-13 45-18 71-18 78 0 146 65 146 145-3 24-8 50-21 71 26 8 54 10 83 13z m740-255c5-11 7-24 7-40 0-13-2-26-7-36-141-276-422-461-740-461-320 0-602 185-742 461-5 10-8 23-8 39 0 13 3 26 8 37 140 276 422 463 742 463 318 0 599-187 740-463z m-740-412c255 0 492 143 617 375-125 232-362 375-617 375-258 0-495-143-620-375 125-232 362-375 620-375z" horiz-adv-x="1500" />

<glyph glyph-name="rt-grid-2" unicode="&#xe82f;" d="M139 100c29 0 58-12 79-32 20-21 32-50 32-79 0-30-12-58-32-79-21-21-50-32-79-32-30 0-58 11-79 32-20 21-32 49-32 79 0 29 12 58 32 79 21 20 49 32 79 32z m361 0c30 0 58-12 79-32 20-21 32-50 32-79 0-30-12-58-32-79-21-21-49-32-79-32-29 0-58 11-79 32-20 21-32 49-32 79 0 29 12 58 32 79 21 20 50 32 79 32z m361 0c30 0 58-12 79-32 21-21 32-50 32-79 0-30-11-58-32-79-21-21-49-32-79-32-29 0-58 11-78 32-21 21-33 49-33 79 0 29 12 58 33 79 20 20 49 32 78 32z m-722 361c29 0 58-12 79-32 20-21 32-49 32-79 0-29-12-58-32-79-21-20-50-32-79-32-30 0-58 12-79 32-20 21-32 50-32 79 0 30 12 58 32 79 21 20 49 32 79 32z m361 0c30 0 58-12 79-32 20-21 32-49 32-79 0-29-12-58-32-79-21-20-49-32-79-32-29 0-58 12-79 32-20 21-32 50-32 79 0 30 12 58 32 79 21 20 50 32 79 32z m361 0c30 0 58-12 79-32 21-21 32-49 32-79 0-29-11-58-32-79-21-20-49-32-79-32-29 0-58 12-78 32-21 21-33 50-33 79 0 30 12 58 33 79 20 20 49 32 78 32z m-722 361c29 0 58-11 79-32 20-21 32-49 32-79 0-29-12-58-32-78-21-21-50-33-79-33-30 0-58 12-79 33-20 20-32 49-32 78 0 30 12 58 32 79 21 21 49 32 79 32z m361 0c30 0 58-11 79-32 20-21 32-49 32-79 0-29-12-58-32-78-21-21-49-33-79-33-29 0-58 12-79 33-20 20-32 49-32 78 0 30 12 58 32 79 21 21 50 32 79 32z m361 0c30 0 58-11 79-32 21-21 32-49 32-79 0-29-11-58-32-78-21-21-49-33-79-33-29 0-58 12-78 33-21 20-33 49-33 78 0 30 12 58 33 79 20 21 49 32 78 32z m-722-722c29 0 58-12 79-32 20-21 32-50 32-79 0-30-12-58-32-79-21-21-50-32-79-32-30 0-58 11-79 32-20 21-32 49-32 79 0 29 12 58 32 79 21 20 49 32 79 32z m361 0c30 0 58-12 79-32 20-21 32-50 32-79 0-30-12-58-32-79-21-21-49-32-79-32-29 0-58 11-79 32-20 21-32 49-32 79 0 29 12 58 32 79 21 20 50 32 79 32z m361 0c30 0 58-12 79-32 21-21 32-50 32-79 0-30-11-58-32-79-21-21-49-32-79-32-29 0-58 11-78 32-21 21-33 49-33 79 0 29 12 58 33 79 20 20 49 32 78 32z m-722 361c29 0 58-12 79-32 20-21 32-49 32-79 0-29-12-58-32-79-21-20-50-32-79-32-30 0-58 12-79 32-20 21-32 50-32 79 0 30 12 58 32 79 21 20 49 32 79 32z m361 0c30 0 58-12 79-32 20-21 32-49 32-79 0-29-12-58-32-79-21-20-49-32-79-32-29 0-58 12-79 32-20 21-32 50-32 79 0 30 12 58 32 79 21 20 50 32 79 32z m361 0c30 0 58-12 79-32 21-21 32-49 32-79 0-29-11-58-32-79-21-20-49-32-79-32-29 0-58 12-78 32-21 21-33 50-33 79 0 30 12 58 33 79 20 20 49 32 78 32z m-722 361c29 0 58-11 79-32 20-21 32-49 32-79 0-29-12-58-32-78-21-21-50-33-79-33-30 0-58 12-79 33-20 20-32 49-32 78 0 30 12 58 32 79 21 21 49 32 79 32z m361 0c30 0 58-11 79-32 20-21 32-49 32-79 0-29-12-58-32-78-21-21-49-33-79-33-29 0-58 12-79 33-20 20-32 49-32 78 0 30 12 58 32 79 21 21 50 32 79 32z m361 0c30 0 58-11 79-32 21-21 32-49 32-79 0-29-11-58-32-78-21-21-49-33-79-33-29 0-58 12-78 33-21 20-33 49-33 78 0 30 12 58 33 79 20 21 49 32 78 32z" horiz-adv-x="1000" />

<glyph glyph-name="rt-i" unicode="&#xe830;" d="M314 501l-245-30-9-41 48-9c32-8 38-19 31-50l-79-372c-21-96 11-141 86-141 59 0 127 27 157 64l10 44c-22-18-53-26-74-26-29 0-40 21-32 57l107 504z m7 224c0-28-11-56-31-76-20-20-47-31-76-31-28 0-55 11-75 31-21 20-32 48-32 76 0 28 11 56 32 76 20 20 47 31 75 31 29 0 56-11 76-31 20-20 31-48 31-76z" horiz-adv-x="357" />

<glyph glyph-name="rt-location-1" unicode="&#xe831;" d="M409 808c101 0 197-40 269-111 71-72 111-168 111-269 0-161-113-335-335-527-13-10-29-16-45-16-16 0-32 6-44 16l-15 13c-213 186-321 357-321 514 0 101 40 197 112 269 71 71 167 111 268 111z m0-234c-39 0-76-15-103-43-28-27-43-64-43-103 0-39 15-76 43-103 27-28 64-43 103-43 39 0 76 15 103 43 28 27 43 64 43 103 0 39-15 76-43 103-27 28-64 43-103 43z" horiz-adv-x="818" />

<glyph glyph-name="rt-location-pointer" unicode="&#xe832;" d="M179 427c0 61 24 119 66 162 43 43 100 67 160 67 60 0 118-24 160-67 43-43 66-101 66-162 0-61-23-120-66-163-42-43-100-67-160-67-60 0-117 24-160 67-42 43-66 102-66 163z m226 157c-41 0-80-17-109-46-29-30-46-70-46-111 0-42 17-82 46-112 29-29 68-46 109-46 41 0 81 17 110 46 29 30 45 70 45 112 0 41-16 81-45 111-29 29-69 46-110 46z m-404-102c9 100 54 194 126 262 73 68 169 106 268 106h20c100 0 195-38 268-106 73-68 118-162 126-262 9-112-25-223-95-310l-228-283c-10-12-22-22-36-29-14-7-29-10-45-10-15 0-30 3-44 10-14 7-27 17-36 29l-229 283c-70 87-104 198-95 310z m394 295c-81 0-159-31-219-86-60-56-97-133-103-215-8-93 20-185 79-258l228-283c3-4 7-7 11-9 5-2 9-4 14-4 5 0 10 2 14 4 5 2 8 5 12 9l228 283c58 73 86 165 79 258-7 82-44 159-104 215-59 55-137 86-219 86h-20 0z" horiz-adv-x="813" />

<glyph glyph-name="rt-location-pointer-2" unicode="&#xe833;" d="M340-117c5-8 14-13 24-13 9 0 18 5 23 13 67 102 166 228 235 356 55 102 82 189 82 267 0 189-153 344-340 344-188 0-340-155-340-344 0-78 26-165 81-267 69-128 168-255 235-356z m24 910c156 0 283-129 283-287 0-68-24-146-75-240-59-110-144-222-208-316-65 94-149 206-209 316-50 94-75 172-75 240 0 158 127 287 284 287z m0-460c93 0 170 78 170 173 0 95-77 172-170 172-94 0-170-77-170-172 0-95 76-173 170-173z m0 287c62 0 113-51 113-114 0-64-51-115-113-115-63 0-114 51-114 115 0 63 51 114 114 114z" horiz-adv-x="727" />

<glyph glyph-name="rt-lock" unicode="&#xe834;" d="M400 850c-158 0-285-125-285-281v-125c-54 0-95-41-95-94v-406c0-53 41-94 95-94h570c54 0 95 41 95 94v406c0 53-41 94-95 94v125c0 156-127 281-285 281z m317-500v-406c0-19-13-32-32-32h-570c-19 0-32 13-32 32v406c0 19 13 31 32 31h570c19 0 32-12 32-31z m-539 94v125c0 122 99 219 222 219 124 0 222-97 222-219v-125h-444z m222-156c-54 0-95-41-95-94 0-41 25-75 63-88v-68c0-19 13-32 32-32 19 0 32 13 32 32v68c38 13 63 47 63 88 0 53-41 94-95 94z m0-125c-19 0-32 12-32 31 0 19 13 31 32 31 19 0 32-12 32-31 0-19-13-31-32-31z" horiz-adv-x="800" />

<glyph glyph-name="rt-search-1" unicode="&#xe835;" d="M443 850c245 0 443-198 443-443 0-245-198-443-443-443-244 0-443 198-443 443 0 245 199 443 443 443z m0-788c190 0 345 155 345 345 0 190-155 345-345 345-190 0-344-155-344-345 0-190 154-345 344-345z m418-3l139-139-70-70-139 139 70 70z" horiz-adv-x="1000" />

<glyph glyph-name="rt-phone-2" unicode="&#xe836;" d="M610 769c1 4 3 8 5 11 3 3 5 5 9 7 3 2 7 3 11 4 3 0 7 0 11-1 71-18 135-55 187-107 52-52 89-116 107-187 1-4 1-8 1-11-1-4-2-8-4-11-2-4-4-6-7-9-3-2-7-4-11-5-2-1-5-1-7-1-7 0-13 2-18 6-5 4-9 10-10 16-16 61-48 116-92 161-45 44-100 76-161 92-4 1-7 2-10 5-3 2-6 5-8 8-2 4-3 7-4 11 0 4 0 8 1 11z m-18-192c71-19 116-64 135-135 2-6 6-12 11-16 5-4 11-6 18-6 2 0 5 0 7 1 4 1 7 3 10 5 4 2 6 5 8 9 2 3 3 7 4 11 0 3 0 7-1 11-24 91-86 153-177 177-4 1-8 1-11 1-4-1-8-2-11-4-7-4-12-10-14-18-2-7-1-15 3-22 4-7 10-12 18-14z m388-473c-9-64-40-123-88-165-49-43-111-66-175-66-383 0-694 311-694 694 0 64 23 126 66 175 42 48 101 79 165 88 14 1 29-2 42-9 13-7 23-19 29-32l103-230c4-11 6-22 5-33-1-12-5-23-11-32 0-1-1-2-2-3l-103-122c0-2-1-3-1-4 0-2 1-3 1-4 38-77 118-157 196-194 1-1 2-1 4-1 1 0 3 1 4 1l120 103c1 1 2 1 3 2 10 6 20 10 32 11 11 1 22-1 33-5l231-104c13-5 24-16 31-28 8-13 11-28 9-42v0z m-58 7c0 2-1 4-2 6-1 1-2 3-4 4l-231 103c-1 1-3 1-4 1-1 0-3-1-4-1l-120-103c-1-1-2-1-3-2-10-7-21-10-33-11-12-1-24 1-34 6-90 43-179 132-223 221-5 10-7 22-6 34 1 12 4 23 11 33 0 1 1 2 2 3l103 122c0 1 1 3 1 4 0 1-1 3-1 4l-103 230c-1 2-2 4-4 5-1 1-3 2-5 2h-1c-50-7-95-31-128-69-33-38-51-86-51-136 0-350 285-635 635-635 50 0 98 18 136 51 38 33 62 78 69 128z" horiz-adv-x="1000" />

<glyph glyph-name="rt-round-tick" unicode="&#xe837;" d="M24 350c0 262 212 476 476 476 262 0 476-214 476-476 0-264-214-476-476-476-264 0-476 212-476 476z m690 82c20 20 20 52 0 72-20 21-52 21-73 0l-200-200-84 81c-21 21-52 21-73 0-20-20-20-52 0-72l119-119c21-21 52-21 73 0l238 238z" horiz-adv-x="1000" />

<glyph glyph-name="rt-star" unicode="&#xe838;" d="M446 768c21 41 80 39 99 0l113-230 252-36c45-7 62-62 29-95l-181-177 43-250c7-45-41-79-81-59l-224 119-225-119c-40-20-88 14-81 59l43 250-181 177c-33 33-16 88 29 95l253 36 112 230z" horiz-adv-x="1000" />

<glyph glyph-name="rt-subscibe-email" unicode="&#xe839;" d="M1250 850c32 0 62-12 85-33 23-22 37-51 40-83l0-9v-750c0-32-12-62-33-85-22-23-51-37-83-40l-9 0h-1000c-31 0-62 12-85 33-23 22-37 51-40 83l0 9v63h125v-63h1000v662l-434-434c-16-16-38-26-61-27-23-2-46 6-64 20l-7 7-434 434v-37h-125v125c0 32 12 62 33 85 22 23 51 37 83 40l9 0h1000z m-875-562c17 0 33-7 44-19 12-11 19-27 19-44 0-17-7-32-19-44-11-12-27-18-44-18h-312c-17 0-33 6-45 18-11 12-18 27-18 44 0 17 7 33 18 44 12 12 28 19 45 19h312z m787 437h-824l412-412 412 412z m-849-250c15 0 31-6 42-17 12-11 19-26 20-42 1-16-4-31-15-44-10-12-24-20-40-22l-7 0h-188c-16 0-31 6-43 17-11 11-18 26-19 42-1 16 4 31 14 44 10 12 25 20 41 22l7 0h188z" horiz-adv-x="1375" />

<glyph glyph-name="rt-user-3" unicode="&#xe83a;" d="M611 256c145 0 264-119 264-263v-49c0-53-43-94-94-94h-687c-53 0-94 41-94 94v49c0 144 117 263 262 263 56 0 82-31 176-31 91 0 117 31 173 31z m170-312v49c0 93-76 170-170 170-29 0-74-32-173-32-102 0-147 32-176 32-94 0-168-77-168-170v-49h687z m-343 344c-157 0-282 125-282 281 0 154 125 281 282 281 154 0 281-127 281-281 0-156-127-281-281-281z m0 468c-104 0-188-86-188-187 0-104 84-188 188-188 101 0 187 84 187 188 0 101-86 187-187 187z" horiz-adv-x="875" />

<glyph glyph-name="rt-arrow-double" unicode="&#xe83b;" d="M4-150l357 500-357 500h175l357-500-357-500h-175z m425 0l357 500-357 500h175l357-500-357-500h-175z" horiz-adv-x="1000" />

<glyph glyph-name="zoom-in" unicode="&#xe83c;" d="M571 404v-36q0-7-5-13t-12-5h-125v-125q0-7-6-13t-12-5h-36q-7 0-13 5t-5 13v125h-125q-7 0-12 5t-6 13v36q0 7 6 12t12 5h125v125q0 8 5 13t13 5h36q7 0 12-5t6-13v-125h125q7 0 12-5t5-12z m72-18q0 103-73 176t-177 74-177-74-73-176 73-177 177-73 177 73 73 177z m286-465q0-29-21-50t-51-21q-30 0-50 21l-191 191q-100-69-223-69-80 0-153 31t-125 84-84 125-31 153 31 152 84 126 125 84 153 31 153-31 125-84 84-126 31-152q0-123-69-223l191-191q21-21 21-51z" horiz-adv-x="928.6" />

<glyph glyph-name="rt-article" unicode="&#xe83d;" d="M632 475v-62h-500v62h500z m-125 250v-62h-375v62h375z m-125-750v313h250v-313h-250z m63 250v-187h125v187h-125z m187 375v-62h-500v62h500z m-625 250h750v-1000h-750v1000z m688-938v876h-625v-876h625z m-375 126v-63h-188v63h188z m0 250v-63h-188v63h188z m0-125v-63h-188v63h188z" horiz-adv-x="765" />

<glyph glyph-name="rt-available-location" unicode="&#xe83e;" d="M421 489c0 31 13 60 34 82 22 21 51 34 82 34 51 0 94-33 110-79 4-12 6-24 6-37 0-15-3-30-9-44-6-14-14-27-25-38-11-11-24-19-38-25-14-6-29-9-44-9-50 0-93 32-109 77-4 12-7 26-7 39z m-301 0c0-208 236-494 278-547l-46-55c0 0-324 359-324 602 0 147 98 271 231 311-85-77-139-187-139-311z m417 324c179 0 324-145 324-324 0-243-324-602-324-602 0 0-324 359-324 602 0 179 145 324 324 324z m0-93c-128 0-231-103-231-231 0-46 0-139 231-450 232 311 232 404 232 450 0 128-104 231-232 231z" horiz-adv-x="889" />

<glyph glyph-name="rt-calender-2" unicode="&#xe83f;" d="M1005 750l-269 0v61c0 17-15 31-33 31-19 0-34-14-34-31v-61h-267v61c0 17-15 31-34 31-18 0-33-14-33-31v-61h-268c-37 0-67-27-67-60v-761c0-34 30-61 67-61h938c36 0 66 27 66 61v761c0 33-30 60-66 60z m0-821h-938v761h268v-31c0-17 15-31 33-31 19 0 34 14 34 31v31h267v-31c0-17 15-31 34-31 18 0 33 14 33 31v31h269v-761z m-235 426h67c19 0 34 13 34 30v61c0 17-15 30-34 30h-67c-18 0-33-13-33-30v-61c0-17 15-30 33-30z m0-244h67c19 0 34 14 34 31v61c0 16-15 30-34 30h-67c-18 0-33-14-33-30v-61c0-17 15-31 33-31z m-201 122h-67c-18 0-33-14-33-30v-61c0-17 15-31 33-31h67c19 0 34 14 34 31v61c0 16-15 30-34 30z m0 243h-67c-18 0-33-13-33-30v-61c0-17 15-30 33-30h67c19 0 34 13 34 30v61c0 17-15 30-34 30z m-268 0h-67c-18 0-33-13-33-30v-61c0-17 15-30 33-30h67c19 0 34 13 34 30v61c0 17-15 30-34 30z m0-243h-67c-18 0-33-14-33-30v-61c0-17 15-31 33-31h67c19 0 34 14 34 31v61c0 16-15 30-34 30z" horiz-adv-x="1071" />

<glyph glyph-name="rt-calender-3" unicode="&#xe840;" d="M1081 746l-214 0c-33 0-60 27-60 60v0c0 17-16 31-35 31-18 0-34-14-34-31v0c0-33-27-60-60-60h-153c-34 0-61 27-61 60v0c0 17-15 31-34 31-19 0-34-14-34-31v0c0-33-28-60-61-60h-213c-38 0-69-27-69-61v-761c0-34 31-61 69-61h959c38 0 69 27 69 61v761c0 34-31 61-69 61z m0-442c0-210-170-380-380-380h-199c-210 0-380 170-380 380v244c0 76 61 137 137 137h106c17 0 31-14 31-31v0c0-17 15-30 34-30 19 0 34 13 34 30v0c0 17 14 31 31 31h213c16 0 30-14 30-31v0c0-17 16-30 34-30 19 0 35 13 35 30v0c0 17 13 31 30 31h107c76 0 137-61 137-137v-244z m-240 46h69c19 0 34 14 34 31v60c0 17-15 31-34 31h-69c-19 0-34-14-34-31v-60c0-17 15-31 34-31z m0-243h69c19 0 34 13 34 30v61c0 17-15 30-34 30h-69c-19 0-34-13-34-30v-61c0-17 15-30 34-30z m-205 121h-69c-19 0-34-13-34-30v-61c0-17 15-30 34-30h69c19 0 34 13 34 30v61c0 17-15 30-34 30z m0 244h-69c-19 0-34-14-34-31v-60c0-17 15-31 34-31h69c19 0 34 14 34 31v60c0 17-15 31-34 31z m-274 0h-69c-19 0-34-14-34-31v-60c0-17 15-31 34-31h69c18 0 34 14 34 31v60c0 17-16 31-34 31z m0-244h-69c-19 0-34-13-34-30v-61c0-17 15-30 34-30h69c18 0 34 13 34 30v61c0 17-16 30-34 30z" horiz-adv-x="1214" />

<glyph glyph-name="rt-calender-4" unicode="&#xe841;" d="M22-116v839h140v93h93v-93h373v93h93v-93h139v-839h-838z m93 93h652v466h-652v-466z m0 559h652v93h-652v-93z" horiz-adv-x="882" />

<glyph glyph-name="rt-plus-1" unicode="&#xe842;" d="M549-150c-50 0-91 41-91 91v214c0 50-40 91-91 91h-214c-50 0-91 41-91 91v26c0 50 41 91 91 91h214c51 0 91 41 91 91v214c0 50 41 91 91 91h26c51 0 91-41 91-91v-214c0-50 41-91 91-91h214c51 0 91-41 91-91v-26c0-50-40-91-91-91h-214c-50 0-91-41-91-91v-214c0-50-40-91-91-91h-26z" horiz-adv-x="1091" />

<glyph glyph-name="rt-select-category" unicode="&#xe843;" d="M30 788c0 25 21 46 47 46h330c26 0 47-21 47-46v-329c0-25-21-46-47-46h-330c-26 0-47 21-47 46v329z m94-47v-235h236v235h-236z m456 47c0 25 21 46 47 46h330c25 0 46-21 46-46v-329c0-25-21-46-46-46h-330c-26 0-47 21-47 46v329z m94-47v-235h236v235h-236z m-644-500c0 26 21 47 47 47h330c26 0 47-21 47-47v-329c0-25-21-46-47-46h-330c-26 0-47 21-47 46v329z m94-47v-235h236v235h-236z m518 32c40 39 94 62 150 62 56 0 110-23 149-62 40-40 62-93 62-149 0-56-22-110-62-150-39-39-93-61-149-61-56 0-110 22-150 61-40 40-62 94-62 150 0 56 22 109 62 149z m150-32c-32 0-62-13-84-35-22-22-34-51-34-82 0-31 12-61 34-83 22-22 52-35 84-35 31 0 61 13 83 35 22 22 35 52 35 83 0 31-13 60-35 82-22 22-52 35-83 35z" horiz-adv-x="1063" />

<glyph glyph-name="rt-registration" unicode="&#xe844;" d="M480 347c-19-17-165-159-165-159l39-38c0 0 130 120 150 138 4 4 13 13 28 13h443v61h-459c-13 0-26-5-36-15z m262 334c52 0 81 36 81 80 0 16-5 32-14 45-9 13-21 23-36 29-15 7-31 8-46 5-16-3-30-11-42-22-11-11-18-25-22-41-3-16-1-32 5-46 6-15 16-28 30-37 13-8 28-13 44-13z m-119-138h27l-39-142h263l-40 142h27l41-142h70l-56 188c-7 26-40 72-97 72h-153c-57 0-90-46-98-72l-55-188h69l41 142z m-228-134l-70 131c0 0-4 7-12 3-7-3-4-11-4-11l23-45 15-28-17 8c-30 13-46 19-53 22-1 0-7 4-9 10-8 17-41 102-49 120-6 16-22 38-54 46-36 9-73-14-82-50l-50-210c-4-17-12-63-12-82l0-411c1-34 26-62 60-62 35 0 58 28 58 63l0 347 53 225c7-15 14-34 17-38 6-11 12-18 24-24 0 0 69-29 96-41 8-3 16-3 24-1 8 2 15 7 20 13l4 8 1-2c0 0 8-14 20-15 3 11-3 24-3 24h0z m-107 353c0-11-2-21-6-31-4-10-10-18-18-26-7-7-16-13-26-17-9-4-20-6-30-6-11 0-21 2-31 6-10 4-19 10-26 17-8 8-14 16-18 26-4 10-6 20-6 31 1 21 9 41 24 56 15 15 35 23 57 23 21 0 41-8 56-23 15-15 24-35 24-56z m36-524l157 145-21 22-156-145 20-22z" horiz-adv-x="1000" />

<glyph glyph-name="rt-pdf" unicode="&#xe845;" d="M856 492h-25l1 95c0 5-2 11-6 15l-221 241c-2 2-4 4-6 5-3 1-5 2-8 2l-462 0c-10 0-20-4-28-12-7-7-11-17-11-27v-319h-26c-14 0-28-6-38-16-10-11-16-25-16-40v-291c0-31 24-56 54-56h26v-200c0-10 4-20 11-27 8-8 18-12 28-12h664c21 0 39 18 39 39v200h24c30 0 54 25 54 56v291c0 15-6 29-16 40-5 5-10 9-17 12-7 3-14 4-21 4h0z m-698 289h347v-229c0-5 2-10 6-14 2-1 4-3 6-4 2-1 5-1 7-1h238v-41h-604v289z m0-862v170h604v-170h-604z m417 855l19-22 129-142 7-9h-132c-10 0-16 2-19 5-2 3-4 9-4 16v152z m-465-636v300h96c36 0 60-1 71-4 17-5 31-14 43-29 11-16 17-35 17-59 0-18-4-34-10-46-7-13-15-23-25-30-10-7-20-11-31-14-15-3-35-4-62-4h-39v-114h-60z m60 250v-85h33c23 0 39 1 47 4 7 3 14 8 19 15 4 7 6 15 6 23 1 10-3 20-9 27-7 7-15 12-24 14-7 1-22 2-43 2h-29v0z m202 50h109c25 0 43-1 56-5 18-5 33-15 45-28 12-13 22-29 28-49 7-19 10-42 10-70 0-25-3-46-9-64-8-22-18-40-32-53-10-10-24-19-42-24-13-4-31-7-53-7h-112v300z m60-50v-199h44c17 0 29 1 36 3 10 2 18 6 24 12 7 6 12 16 16 29 4 14 6 32 6 55 0 23-2 41-6 54-3 11-9 21-17 29-8 7-17 12-28 14-8 2-24 3-49 3h-26z m225-250v300h203v-50h-143v-71h123v-51h-123v-128h-60z" horiz-adv-x="920" />

<glyph glyph-name="rt-arrow-right-1" unicode="&#xe846;" d="M791 816c25 24 64 24 89 0l421-422c12-11 18-27 18-44 0-17-6-32-18-44l-421-422c-25-24-64-24-89 0-24 25-24 64 0 89l377 377-377 377c-24 25-24 64 0 89z m-777-466c0 35 28 63 63 63h1168c35 0 63-28 63-63 0-34-28-62-63-62h-1168c-35 0-63 28-63 62z" horiz-adv-x="1333" />

<glyph glyph-name="rt-like" unicode="&#xe847;" d="M1072 449c-4 17-13 33-24 47-12 14-26 25-42 33-16 8-34 13-53 13h-299v186c0 15-4 31-10 45-6 16-16 31-29 43-12 12-26 20-41 26-15 6-31 8-46 8-22 1-43-5-61-15-18-10-34-25-45-43l-184-294h-161c-10 0-20-2-30-6-9-4-17-9-25-17-7-7-12-15-16-25-4-9-6-19-6-29v-409c0-10 2-20 6-29 4-10 9-18 16-25 8-7 16-13 25-17 10-4 20-6 30-6h169l53-26c26-13 56-20 86-20h505c31 0 61 12 84 32 22 20 37 47 41 77l62 398c2 18 1 36-5 53z m-851-437h-144v409h144v-409z m718 0c-2-12-8-23-17-31-9-7-21-12-33-12h-504c-18 1-36 5-52 12l-35 17v451l190 303c4 6 10 12 17 16 7 4 15 6 24 5 6 1 12 1 18 0 6-2 11-6 15-10 5-4 9-9 11-15 1-6 1-12 0-18v-227c0-5 1-10 4-15 2-5 5-9 9-13 4-4 9-6 14-8 5-2 10-2 15-2h337c7 0 14-1 20-4 7-3 12-8 17-13 4-6 8-12 10-19 1-7 1-14 0-20l-60-397z" horiz-adv-x="1154" />

<glyph glyph-name="rt-heart" unicode="&#xe848;" d="M963 822c-114 51-255 36-380-75-125 111-265 126-380 75-61-29-113-75-149-133-36-57-55-124-54-192 1-126 51-248 139-339 64-66 134-126 209-180l45-35c27-22 57-43 87-61 31-20 67-31 103-32 37 1 72 12 102 32 31 18 61 39 88 61l45 35c75 54 145 114 209 180 88 91 138 212 140 339 1 68-18 135-54 192-36 58-88 104-150 133z m4-610c-60-62-126-117-196-167l-48-37c-25-20-51-39-78-56-19-12-40-19-62-20-21 1-43 8-61 20-27 17-53 36-78 56l-48 35c-70 50-136 106-196 167-74 77-116 180-117 287-1 52 13 104 41 149 27 44 67 80 114 103 87 39 205 29 316-85 4-4 8-7 14-9 5-3 10-4 15-4 6 0 11 1 16 4 5 2 10 5 14 9 111 114 229 125 316 83 48-22 88-58 115-103 28-45 42-96 41-149-1-106-44-208-118-283z" horiz-adv-x="1167" />

<glyph glyph-name="zoom-out" unicode="&#xe849;" d="M571 404v-36q0-7-5-13t-12-5h-322q-7 0-12 5t-6 13v36q0 7 6 12t12 5h322q7 0 12-5t5-12z m72-18q0 103-73 176t-177 74-177-74-73-176 73-177 177-73 177 73 73 177z m286-465q0-29-21-50t-51-21q-30 0-50 21l-191 191q-100-69-223-69-80 0-153 31t-125 84-84 125-31 153 31 152 84 126 125 84 153 31 153-31 125-84 84-126 31-152q0-123-69-223l191-191q21-21 21-51z" horiz-adv-x="928.6" />

<glyph glyph-name="check" unicode="&#xe84a;" d="M786 331v-177q0-67-47-114t-114-47h-464q-67 0-114 47t-47 114v464q0 66 47 113t114 48h464q35 0 65-14 9-4 10-13 2-10-5-16l-27-28q-6-5-13-5-1 0-5 1-13 3-25 3h-464q-37 0-63-26t-27-63v-464q0-37 27-63t63-27h464q37 0 63 27t26 63v141q0 8 5 13l36 35q6 6 13 6 3 0 7-2 11-4 11-16z m129 273l-455-454q-13-14-31-14t-32 14l-240 240q-14 13-14 31t14 32l61 62q14 13 32 13t32-13l147-147 361 361q13 13 31 13t32-13l62-61q13-14 13-32t-13-32z" horiz-adv-x="928.6" />

<glyph glyph-name="quotes-stroke" unicode="&#xe84b;" d="M1151 798h0z m126-518h0a296 296 0 0 1-193 142h0a312 312 0 0 1-140 0 510 510 0 0 0 69 143 178 178 0 0 0 114 79 55 55 0 0 1 29 14 58 58 0 0 1 15 26q3 14 8 28h0l-32 136a229 229 0 0 1-98-9 335 335 0 0 1-107-55 467 467 0 0 1-82-82h0a722 722 0 0 1-148-364 786 786 0 0 1-6-97 538 538 0 0 1 30-182 314 314 0 0 1 121-161 306 306 0 0 1 186-48 288 288 0 0 1 271 269h0z m-11-158h0a242 242 0 0 0-71-154 235 235 0 0 0-155-69 259 259 0 0 0-156 39 266 266 0 0 0-103 137 546 546 0 0 0-21 257 671 671 0 0 0 138 340 335 335 0 0 0 165 121 179 179 0 0 0 78 8h0a19 19 0 0 0 10-3 17 17 0 0 0 0-9c-4-19-9-37-15-55-3-12-7-24-10-37a14 14 0 0 0-3-5 7 7 0 0 0-4-2 198 198 0 0 1-83-36 277 277 0 0 1-61-62h0a617 617 0 0 1-91-200l-13-45 44 16a269 269 0 0 0 158 12 244 244 0 0 0 193-253z m-76 704a57 57 0 0 0 7-48c-5-19-11-39-16-58 0-2-1-4-2-7l-32 135a60 60 0 0 0 43-22z m124-707l-36 161a287 287 0 0 0 36-161z m-869 679z m-1 1z m93-847a277 277 0 0 0-276-95 298 298 0 0 0-165 85 324 324 0 0 0-80 165 816 816 0 0 0-16 157 693 693 0 0 0 200 487 321 321 0 0 0 83 64 300 300 0 0 0 102 32 234 234 0 0 0 34 3v-48h0a186 186 0 0 1-27-2 258 258 0 0 1-158-82c-161-171-215-374-171-602a277 277 0 0 1 67-141 253 253 0 0 1 140-72 280 280 0 0 1 53-5 227 227 0 0 1 179 86 227 227 0 0 1 58 149 258 258 0 0 1-17 90 244 244 0 0 1-232 158 295 295 0 0 1-101-18l-45-16 14 45a610 610 0 0 0 95 207 221 221 0 0 0 138 90 8 8 0 0 1 5 3 18 18 0 0 1 4 7v-57a173 173 0 0 1-109-71 502 502 0 0 1-76-151c151 33 299-38 352-180a274 274 0 0 0-51-288z m-45 842a141 141 0 0 0-6-34l-4-13c-5-20-11-39-16-59l-24 6 24-6a67 67 0 0 0-15-29 58 58 0 0 0-32-17v57s0 0 0 1c6 21 11 40 17 60 0 5 3 9 4 13a91 91 0 0 1 4 22 9 9 0 0 1 0 3l-3 0a90 90 0 0 1-22 3v49a138 138 0 0 0 35-5 52 52 0 0 0 29-18 52 52 0 0 0 9-33z" horiz-adv-x="1314" />

<glyph glyph-name="rt-check-mark" unicode="&#xe84c;" d="M856 749c-123-106-227-207-322-339-42-58-88-127-119-191-17-35-49-88-59-140-59 55-122 116-186 165-46 34-178-36-124-76 96-73 176-163 270-239 39-31 126 37 146 66 67 95 76 211 125 314 75 159 207 289 337 402 87 80-3 95-68 38" horiz-adv-x="1000" />

<glyph glyph-name="rt-heart-1" unicode="&#xe84d;" d="M480-95c-10 0-20 5-30 15l-370 365c-50 50-80 120-80 190 0 70 30 140 80 195 50 55 120 80 195 80 75 0 140-30 195-80l15-15 15 15c25 25 55 45 90 60 65 30 140 30 210 0 35-15 65-35 90-60 25-25 45-55 60-90 0-30 10-65 10-105 0-40-10-70-20-100-15-35-35-65-60-90l-370-370c-10-10-20-10-30-10z m-205 755c-50 0-95-20-130-55-35-35-55-80-55-130 0-50 20-95 55-130l335-335 335 335c15 15 30 40 40 60 10 25 15 45 15 70 0 25-5 50-15 70-10 25-25 45-40 60-15 20-35 35-60 45-45 20-95 20-140 0-25-10-45-25-60-40l-45-45c-15-20-45-20-60 0l-45 45c-35 35-80 50-130 50z" horiz-adv-x="1000" />

<glyph glyph-name="rt-doctor" unicode="&#xe84e;" d="M313 724l1 6c3 11 7 28 16 44 10 17 24 34 46 45 23 11 51 16 85 11 38-5 115-18 183-52 68-35 132-95 132-194 0-51-20-106-39-142-9-18-20-34-31-43-3-2-7-5-11-6-12-40-37-76-70-102-33-26-73-40-115-43-42-2-83 9-119 32-35 22-63 55-79 94l-1 0-9 11 0 0 0 0 0 0-1 1c-2 2-4 5-6 8-5 8-10 15-15 23-12 20-27 48-36 81-9 33-13 72-4 112 10 38 32 77 72 111l1 3z m43-322c11-32 32-59 60-78 28-18 61-27 95-24 34 2 65 15 90 38 26 22 43 52 49 85l3-1c0 2 0 3 0 4 0 43-6 72-11 90-2 4-3 7-4 11l-1 0h-1c-19-1-38 1-57 4-44 8-103 26-173 69-1-4-3-8-4-12-5-14-9-31-13-48-3-16-5-32-8-46l-1-6c-2-16-5-32-8-43-6-19-11-33-16-43v0z m-36 47c-12 20-21 41-27 63-8 27-10 57-3 86 7 28 23 58 57 86 7 4 9 10 10 11v0c2 3 3 6 3 9 1 3 2 7 3 10l1 4c2 10 5 22 11 32 5 10 13 18 24 24 11 5 28 9 55 5 37-4 107-16 167-47 59-30 104-76 104-148 0-33-11-71-25-101-2 19-6 35-10 48-2 9-6 18-10 26-1 3-3 7-4 10l-1 0 0 1 0 0 0 0-9 14-17-3-1 0-2 0c-4-1-8-1-12-1-15-1-31 1-46 3-41 7-102 26-175 75l-18 12-15-16c-12-12-20-30-26-47-6-17-11-37-15-55-3-16-6-32-8-48l-1-6c-3-17-5-29-7-37-1-4-2-7-3-10z m25-223c-5 11-12 24-23 22-138-31-280-122-280-218v-138h916v138c0 76-88 148-193 190l0 1c0 0 0 0 0 0l-1 0c-28 11-57 20-86 27-13 3-26-15-32-26h-299c0 1-1 3-2 4z m344-33c11-3 22-7 33-11 0-8-1-19-2-29-2-11-4-22-7-32h-35c-4 0-9-1-13-4-4-2-7-6-9-10l-26-51c-2-4-3-8-3-12v-51c0-6 3-13 8-18 5-4 11-7 18-7h51v51h-26v19l16 32h70l16-32v-19h-25v-51h51c6 0 13 3 18 7 4 5 7 12 7 18v51c0 4-1 8-3 12l-25 51c-2 4-5 8-9 10-4 3-9 4-14 4h-14c3 13 5 27 6 41 25-12 48-25 68-40 49-36 67-69 67-92v-87h-814v87c0 23 18 56 67 92 25 18 54 34 86 48 0-21 4-41 9-60l1-1c-16-10-27-24-32-41-6-18-5-36 2-53 7-17 19-30 35-38 16-9 35-11 52-7 18 4 33 14 44 28 11 15 17 33 16 51-1 18-9 35-21 48-12 13-29 21-47 23-3 11-5 22-7 33-1 10-2 20-2 30 0 2 1 4 1 5 3 1 6 2 9 3l11-20h360l12 22v0z m-393-174c14 0 26 11 26 25 0 15-12 26-26 26-13 0-25-11-25-26 0-14 12-25 25-25z" horiz-adv-x="1000" />

<glyph glyph-name="rt-trust-badge" unicode="&#xe84f;" d="M504 850c17 0 33-1 48-4 15-1 29-5 43-9 15-4 29-10 43-17 13-6 27-14 41-22 24-15 47-28 70-37 47-19 96-30 146-33 25-2 51-3 79-3v-250c0-47-6-92-19-135-11-43-28-83-49-122-21-38-46-74-74-108-29-34-60-66-93-95-34-30-70-58-107-83-37-26-74-50-112-72l-15-9-15 9c-39 23-76 46-113 72-37 25-73 53-106 83-34 29-65 61-93 95-29 34-54 70-75 108-21 39-37 80-49 122-13 44-19 89-18 135v250c27 0 53 1 78 3 25 2 50 5 75 11 24 5 47 12 71 22 24 10 48 22 70 36 28 18 55 31 83 40 30 9 60 13 91 13z m407-186c-48 2-94 10-140 23-45 14-88 34-128 59-20 14-43 24-66 32-24 7-48 10-72 10-25 0-50-3-73-10-24-8-46-18-66-32-40-26-83-46-128-59-45-13-91-21-140-24v-188c0-42 6-81 16-120 11-37 26-74 45-108 20-35 42-68 68-99 26-30 54-59 84-86 30-27 61-52 94-76 33-23 66-44 100-63 34 20 67 41 99 63 33 24 65 49 95 76 30 27 57 56 84 86 25 31 48 64 67 99 19 34 34 71 44 108 11 39 17 79 17 120v189z m-174-108l-27 23-26-2-272-322-93 133-25 4-29-21-4-25 119-170 14-7 28-2 15 6 302 357-2 26z" horiz-adv-x="1000" />

<glyph glyph-name="rt-x-twitter" unicode="&#xe850;" d="M760 756h138l-301-344 354-468h-277l-218 284-248-284h-138l322 368-340 444h285l196-259 227 259z m-48-730h76l-493 652h-82l499-652z" horiz-adv-x="1000" />

<glyph glyph-name="guidance-service" unicode="&#xe851;" d="M408 831c19 10 40 16 61 16 21 0 42-6 61-16 0 0 0 0 0 0l328-188c19-11 34-26 45-45 10-18 16-39 16-60l0 0 0-376c0-21-6-42-16-60-11-19-26-34-45-45l0 0-328-188c0 0 0 0 0 0-19-10-40-16-61-16-21 0-42 6-61 16 0 0 0 0 0 0l-328 188 0 0c-19 11-34 26-45 45-11 18-16 39-16 60v376c0 21 5 42 16 60 11 19 26 34 45 45l0 0 328 188c0 0 0 0 0 0z m61-40c-12 0-23-3-33-9l0 0-328-188c0 0 0 0 0 0-10-5-18-14-24-24-6-10-9-21-9-32v-375c0-12 3-23 9-33 6-10 14-18 24-24 0 0 0 0 0 0l328-188c10-6 21-9 33-9 11 0 23 3 33 9l0 0 328 188c0 0 0 0 0 0 10 6 18 14 24 24 6 10 9 21 9 33v375c0 11-3 22-9 32-6 10-14 19-24 24 0 0 0 0 0 0l-328 188 0 0c-10 6-22 9-33 9z" horiz-adv-x="938" />

<glyph glyph-name="rt-find-doctor" unicode="&#xe852;" d="M866 140l-123-122c-2-2-4-3-7-4-2-2-5-2-8-2-3 0-6 0-8 2-3 1-5 2-7 4l-62 61c-4 4-6 10-6 16 0 5 2 11 6 15 4 4 10 6 16 6 5 0 11-2 15-6l46-46 107 107c4 4 10 6 16 6 5 0 11-2 15-6 4-4 6-10 6-15 0-6-2-12-6-16z m-606 318c0 6-1 12-3 18-3 6-6 11-11 15-4 5-9 8-15 11-6 2-12 3-18 3h-35c-13 0-25-5-34-14-9-8-14-20-14-33v-35c0-12 5-24 14-33 9-9 21-14 34-14h35c6 0 12 1 18 4 6 2 11 5 15 10 5 4 8 9 11 15 2 6 3 12 3 18v35z m-43 0v-35c0 0 0-1 0-2 0-1-1-2-1-2-1-1-1-1-2-1 0 0-1-1-1 0h-35c-1-1-2 0-3 1-1 1-1 2-1 3v36c0 0 0 1 0 2 0 0 0 1 1 1 0 0 1 1 1 1 1 0 1 0 2 0h35c0 0 1 0 1 0 1 0 1-1 2-1 0 0 0-1 1-1 0-1 0-2 0-2z m43-173c0 6-1 12-3 18-3 6-6 11-11 15-9 9-21 14-33 14h-35c-13 0-25-5-34-14-9-9-14-21-14-33v-35c0-12 5-24 14-33 9-9 21-14 34-14h35c12 0 24 5 33 14 5 4 8 10 11 15 2 6 3 12 3 19v34z m-43 0v-35c0 0 0-1 0-1-1-1-1-2-1-2-1 0-1-1-2-1 0 0-1 0-1 0h-35c-1 0-1 0-2 0 0 0-1 1-1 1-1 1-1 1-1 2 0 0 0 1 0 1v35c0 1 0 2 1 3 1 1 2 1 3 1h35c0 0 1 0 1 0 1-1 1-1 2-1 0-1 0-1 1-2 0 0 0-1 0-1z m43-173c0 6-1 12-3 18-3 6-6 11-11 16-4 4-9 7-15 10-6 2-12 3-18 3h-35c-13 0-25-5-34-13-9-9-14-21-14-34v-34c0-7 1-13 4-19 2-5 6-11 10-15 9-9 21-14 34-14h35c12 0 24 5 33 14 5 4 8 10 11 15 2 6 3 12 3 19v34z m-43 0v-34c0-2-1-3-1-3-1-1-2-2-3-2h-35c-1 0-1 0-2 1 0 0-1 0-1 1-1 0-1 0-1 1 0 0 0 1 0 2v34c0 1 0 1 0 2 0 0 0 1 1 1 0 1 1 1 1 1 1 0 1 0 2 0h35c0 0 1 0 1 0 1 0 1 0 2-1 0 0 0-1 1-1 0-1 0-1 0-2z m217 346c0 6-1 12-4 18-2 6-6 11-10 15-5 5-10 8-16 11-5 2-12 3-18 3h-35c-12 0-24-5-33-14-9-8-14-20-14-33v-35c0-12 5-24 14-33 9-9 21-14 33-14h35c6 0 13 1 18 4 6 2 11 5 16 10 4 4 8 9 10 15 3 6 4 12 4 18v35z m-44 0v-35c0 0 0-1 0-1 0-1 0-1-1-2 0 0-1 0-1-1-1 0-1 0-2 0h-35c-1 0-2 0-3 1 0 1-1 2-1 3v35c0 0 0 1 0 2 1 0 1 1 1 1 1 0 1 1 2 1 0 0 1 0 1 0h35c1 0 1 0 2 0 0 0 1-1 1-1 1 0 1-1 1-1 0-1 0-2 0-2z m44-173c0 6-1 12-4 18-2 6-6 11-10 15-9 9-21 14-34 14h-35c-12 0-24-5-33-14-9-9-14-21-14-33v-35c0-12 5-24 14-33 9-9 21-14 33-14h35c13 0 25 5 34 14 4 4 8 10 10 15 3 6 4 12 4 19v34z m-44 0v-35c0 0 0-1 0-1 0-1 0-2-1-2 0 0-1-1-1-1-1 0-1 0-2 0h-35c0 0-1 0-1 0-1 0-1 1-2 1 0 1 0 1-1 2 0 0 0 1 0 1v35c0 1 1 2 1 3 1 1 2 1 3 1h35c1 0 1 0 2 0 0-1 1-1 1-1 1-1 1-1 1-2 0 0 0-1 0-1z m44-173c0 6-1 12-4 18-2 6-6 11-10 16-5 4-10 7-16 10-5 2-12 3-18 3h-35c-12 0-24-5-33-13-9-9-14-21-14-34v-34c0-7 1-13 3-19 3-5 6-11 11-15 9-9 21-14 33-14h35c13 0 25 5 34 14 4 4 8 10 10 15 3 6 4 12 4 19v34z m-44 0v-34c0-2 0-3-1-3-1-1-2-2-3-2h-35c0 0-1 0-1 1-1 0-1 0-2 1 0 0 0 0-1 1 0 0 0 1 0 2v34c0 1 0 1 0 2 1 0 1 1 1 1 1 1 1 1 2 1 0 0 1 0 1 0h35c1 0 1 0 2 0 0 0 1 0 1-1 1 0 1-1 1-1 0-1 0-1 0-2z m218 346c0 6-1 12-4 18-2 6-6 11-10 16-5 4-10 7-16 10-5 2-12 3-18 3h-35c-13 0-25-5-34-14-9-8-14-20-14-33v-35c0-12 5-24 14-33 9-9 21-14 34-14h35c6 0 12 1 18 3 6 3 11 6 16 10 4 5 8 10 10 16 3 5 4 12 4 18v35z m-43 0v-35c0 0-1-1-1-1 0-1 0-1-1-2 0 0-1 0-1-1-1 0-1 0-2 0h-35c-1 0-2 0-3 1-1 1-1 2-1 3v35c0 0 0 1 0 2 0 0 0 1 1 1 0 0 1 1 1 1 1 0 1 0 2 0h35c0 0 1 0 1 0 1 0 1-1 2-1 0 0 0-1 1-1 0-1 0-2 0-2h1z m216 0c0 6-1 12-4 18-2 6-6 11-10 15-5 5-10 8-16 11-5 2-12 3-18 3h-35c-6 0-12-1-18-3-6-3-11-6-15-10-5-5-8-10-11-16-2-6-3-12-3-18v-35c0-6 1-12 3-18 3-6 6-11 11-15 4-5 9-8 15-11 6-2 12-3 18-3h35c6 0 13 1 18 4 6 2 11 5 16 10 4 4 8 9 10 15 3 6 4 12 4 18v35z m-43 0v-35c0 0-1-1-1-1 0-1 0-1-1-2 0 0-1 0-1-1-1 0-1 0-2 0h-35c-1 0-2 0-3 1 0 1-1 2-1 3v35c0 0 0 1 0 2 1 0 1 1 1 1 1 0 1 1 2 1 0 0 1 0 1 0h35c1 0 2 0 3-1 1-1 2-2 2-3z m173-180v378c0 29-12 56-32 76-20 21-48 32-76 32h-65v21c-2 16-10 31-22 42-11 11-27 17-43 17-16 0-32-6-44-17-12-11-20-26-21-42v-21h-304v21c-1 17-9 33-21 44-12 11-28 18-44 18-17 0-33-7-45-18-12-11-20-27-20-44v-21h-66c-28 0-56-11-76-32-20-20-32-47-32-76v-604c0-15 3-29 8-42 6-13 14-25 24-35 20-20 48-31 76-31h467c21-27 47-48 77-63 29-16 62-25 95-27 34-2 67 3 99 15 31 12 59 30 83 54 24 23 42 52 54 83 13 31 18 65 16 98-2 33-10 66-25 96-16 30-37 56-63 77v1z m-260 507c0 6 2 12 6 16 4 4 10 6 15 6 6 0 12-2 16-6 4-4 6-10 6-16v-86c0-6-2-11-6-15-4-4-10-7-16-7-5 0-11 3-15 7-4 4-6 9-6 15v86z m-434 0c0 6 3 11 7 14 4 4 9 6 15 6 5 0 10-2 14-6 4-3 7-8 7-14v-86c0-5-3-10-7-14-4-4-9-6-14-6-6 0-11 2-15 6-4 4-7 9-7 14v86z m-174-129c0 8 2 17 5 25 4 8 8 15 15 21 6 6 13 11 21 14 8 3 16 5 24 5h66v-22c0-17 8-32 20-44 12-11 28-17 45-17 16 0 32 6 44 17 12 12 20 27 21 44v22h304v-22c0-17 7-34 19-46 12-12 29-19 46-19 17 0 34 7 46 19 12 12 19 29 19 46v22h65c9 0 17-2 25-5 8-3 15-8 21-14 6-6 11-13 14-21 4-8 5-17 5-25v-65h-823l-2 65z m65-669c-8 0-17 2-25 5-7 4-15 9-21 15-6 6-11 13-14 21-3 8-5 16-5 25v495h823v-242c-36 19-76 28-117 26-41-1-80-13-115-35-35-21-64-51-84-86-20-36-31-76-31-116 1-38 10-75 28-108h-439z m651-86c-38 0-75 12-107 34-32 21-57 52-71 87-14 36-18 75-10 112 7 38 26 72 53 99 28 27 62 46 100 53 38 7 77 3 112-11 35-15 66-40 87-72 21-32 32-69 32-108 0-26-5-51-15-75-10-23-24-45-42-63-19-18-40-32-64-42-24-10-49-15-75-14v0z" horiz-adv-x="1000" />

<glyph glyph-name="finance-feature" unicode="&#xe853;" d="M982 838c0-269-218-487-487-487-269 0-487 218-487 487h974z m-487-974c-269 0-487 218-487 487h974c0-269-218-487-487-487z" horiz-adv-x="985" />

<glyph glyph-name="google-play" unicode="&#xe854;" d="M0 789v-878c0-2 1-3 2-5 1-2 2-3 4-4 1 0 3 0 5 0 2 0 4 1 5 3l439 445-439 446c-1 1-3 2-5 2-2 1-4 0-5 0-2-1-3-2-4-4-1-2-2-3-2-5z m639-256l-550 316-1 0c-9 5-18-8-11-16l432-429 130 129z m-562-666c-7-8 2-21 11-16l1 0 550 316-130 129-432-429z m785 539l-154 88-145-144 145-144 154 88c41 24 41 88 0 112z" horiz-adv-x="893" />

<glyph glyph-name="rt-dollar-1" unicode="&#xe855;" d="M500 314h-5c-81 11-179 49-179 170 0 73 48 152 183 152 135 0 180-97 184-149 1-20-13-37-33-38-9-1-19 2-26 8-7 6-11 14-13 24-1 13-13 83-112 83-75 0-113-28-113-80 0-28 0-85 118-100 9-1 17-6 22-13 6-7 9-16 8-25-1-9-5-17-11-23-7-6-15-10-24-10l1 1z m0 0h-5c-81 11-179 49-179 170 0 73 48 152 183 152 135 0 180-97 184-149 1-20-13-37-33-38-9-1-19 2-26 8-7 6-11 14-13 24-1 13-13 83-112 83-75 0-113-28-113-80 0-28 0-85 118-100 9-1 17-6 22-13 6-7 9-16 8-25-1-9-5-17-11-23-7-6-15-10-24-10l1 1z m0-250c-136 0-179 97-184 149-1 20 13 37 33 38 20 2 37-12 39-32 1-13 13-83 113-83 74 0 112 28 112 80 0 28 0 85-117 100-10 1-18 6-24 13-6 8-8 17-7 27 3 19 21 33 40 30 81-10 179-48 179-170 0-72-48-151-183-151l-1-1z m0 0c-136 0-179 97-184 149-1 20 13 37 33 38 20 2 37-12 39-32 1-13 13-83 113-83 74 0 112 28 112 80 0 28 0 85-117 100-10 1-18 6-24 13-6 8-8 17-7 27 3 19 21 33 40 30 81-10 179-48 179-170 0-72-48-151-183-151l-1-1z m0-214c-276 0-500 224-500 500 0 276 224 500 500 500 276 0 500-224 500-500 0-276-224-500-500-500z m0 929c-236 0-429-193-429-429 0-236 193-429 429-429 236 0 429 193 429 429 0 236-193 429-429 429z m0-929c-276 0-500 224-500 500 0 276 224 500 500 500 276 0 500-224 500-500 0-276-224-500-500-500z m0 929c-236 0-429-193-429-429 0-236 193-429 429-429 236 0 429 193 429 429 0 236-193 429-429 429z m0-786c-20 0-36 16-36 36v642c0 20 16 36 36 36 20 0 36-16 36-36v-642c0-20-16-36-36-36z m0 0c-20 0-36 16-36 36v642c0 20 16 36 36 36 20 0 36-16 36-36v-642c0-20-16-36-36-36z" horiz-adv-x="1000" />

<glyph glyph-name="left-arrow" unicode="&#xe856;" d="M570-118c-22-21-57-21-78 0l-429 429c-10 10-16 24-16 39 0 15 6 29 16 39l429 429c21 21 56 21 78 0 21-22 21-57 0-78l-335-335 1336 0c31 0 56-25 56-55 0-30-25-55-56-55l-1336 0 335-335c21-21 21-56 0-78z" horiz-adv-x="1643" />

<glyph glyph-name="rt-location-5" unicode="&#xe857;" d="M417 408c19 0 38 6 54 17 16 10 28 26 36 43 7 18 9 38 5 57-4 18-13 36-27 49-13 14-30 23-49 27-19 4-39 2-57-6-17-7-32-19-43-35-11-16-17-35-17-54 0-26 11-51 29-69 18-18 43-29 69-29z m-35-336c5-4 10-8 16-10 6-3 12-4 19-4 6 0 12 1 18 4 6 2 12 6 16 10l199 200c46 46 78 105 90 169 13 64 7 130-18 191-25 60-68 111-122 148-54 36-118 55-183 55-66 0-129-19-184-55-54-37-96-88-121-148-25-61-32-127-19-191 13-64 44-123 90-169l199-200z m-197 456c3 35 14 68 32 98 18 30 42 55 71 75 38 25 83 38 129 38 45 0 90-13 128-38 29-20 53-45 71-75 18-29 29-63 32-97 4-34 0-69-12-102-11-32-30-62-55-87l-164-164-165 164c-25 25-43 54-55 87-11 32-16 67-12 101z m572-567h-681c-12 0-25-5-34-14-9-9-14-22-14-35 0-12 5-25 14-34 9-9 22-14 34-14h681c13 0 25 5 34 14 9 9 15 22 15 34 0 13-6 26-15 35-9 9-21 14-34 14z" horiz-adv-x="833" />

<glyph glyph-name="right-arrow" unicode="&#xe858;" d="M1073 818c22 21 57 21 78 0l429-429c10-10 16-24 16-39 0-15-6-29-16-39l-429-429c-21-21-56-21-78 0-21 22-21 57 0 78l335 335-1337 0c-30 0-55 25-55 55 0 30 25 55 55 55l1337 0-335 335c-21 21-21 56 0 78z" horiz-adv-x="1643" />

<glyph glyph-name="rt-solar_star-fall" unicode="&#xe859;" d="M329 523c3 2 6 6 9 9 2 4 3 8 4 12 1 4 1 8 0 12-1 4-3 8-6 11-2 4-5 7-9 9-3 2-7 3-12 4-4 1-8 0-12-1-4-1-8-3-11-5l37-51z m-152-423l-31-5c1-7 5-13 10-18 5-5 12-7 18-8 7-1 14 1 20 5 6 4 10 9 13 16l-30 10z m262 190c8 3 14 8 18 16 4 7 4 16 2 24-3 8-9 14-16 18-8 3-16 4-24 1l20-59z m139 387l10-13 49 39-10 12-49-38z m91-56l15 0 4 62-16 1-3-63z m54-81l-8-14 53-33 9 14-54 33z m-21-104l4-16 60 16-4 16-60-16z m-55-79l-15 4-17-60 16-4 16 60z m-104-10l-14-9 35-52 13 9-34 52z m-89 33l-1 16-62-4 1-16 62 4z m-42 98l-12 10-40-48 12-10 40 48z m0 99l15 6-23 58-15-6 23-58z m78 71l5 15-58 22-6-15 59-22z m-63-65c13 5 29 11 41 23l-45 43c0 1 0 0-3-1-5-3-11-5-16-7l23-58z m4 87c-2-6-4-12-7-18-1-3-2-3-1-3l45-43c11 12 17 28 22 42l-59 22z m-31-182c-25 21-40 34-50 45-3 3-5 7-7 10 0 1 0 1 0 1v0l-62 9c-4-26 9-46 22-61 14-15 34-32 57-52l40 48z m-11 147c-28-11-52-21-69-31-18-10-35-26-39-51l62-9c0 0 0 0 0-1l0 1c2 2 6 5 9 6 12 8 31 15 60 27l-23 58z m64-239c-1 15-1 32-9 47l-56-28 1-1c0-1 0-2 0-3 1-4 1-9 2-19l62 4z m-81 34c7-6 11-9 14-12 1-1 2-2 2-3l0 0 56 28c-7 15-20 25-32 35l-40-48z m157-92c-26-18-43-29-56-35-12-5-12-2-9-4l-29-55c23-12 46-6 65 3 18 8 39 23 64 39l-35 52z m-137 38c2-31 3-57 7-77 4-20 13-43 36-55l29 55c2-1-1-2-4 12-3 15-4 36-6 69l-62-4z m240-15c-14 4-30 9-47 7l10-62c-1 0 0 0 3-1 3 0 8-2 17-4l17 60z m-55-66c8 5 12 8 15 10 3 1 4 1 3 1l-10 62c-17-3-30-13-42-21l34-52z m129 125c8-32 13-52 15-67 2-14-1-14 0-12l46-44c17 19 18 43 16 63-2 20-9 46-17 76l-60-16z m-75-123c28-8 53-15 73-18 20-2 44-1 63 18l-46 44c3 2 4-1-10 0-14 2-33 7-64 16l-16-60 0 0z m84 229c-8-13-17-26-20-43l62-9c0 0 0 0 0 1 1 1 1 2 2 3 3 5 6 10 9 15l-53 33z m47-74c-2 6-3 12-4 18-1 1-1 2-1 3v1l-62 9c-2-16 3-32 7-47l60 16 0 0z m-78 169c32-2 52-4 66-7 3 0 7-2 10-3 1-1 1-1 1-1l0 1 55 28c-11 23-33 32-53 36-20 5-45 6-75 8l-4-62z m93-114c16 26 29 48 37 67 8 19 14 42 2 65l-55-28-1 0v-1c0-4-1-8-3-12-6-13-17-31-34-58l54-33v0z m-189 157c10-12 20-25 34-33l30 55c0 0-1 0-3 2-4 5-8 10-12 15l-49-39z m84 20c-6 0-12 1-18 1-3 1-3 1-2 1l-30-55c15-8 32-9 47-9l3 62z m-45 31c-19 24-35 45-50 59-14 14-34 27-61 23l10-61c-3-1-2 2 8-8 11-10 24-26 44-51l49 38z m-132-52c12 31 19 50 26 63 7 13 9 10 5 10l-10 61c-26-4-40-23-50-41-10-18-19-43-29-71l58-22z m-203-89c-109-80-186-229-146-479l62 10c-37 232 35 355 121 418l-37 51 0 0z m-85-484c30 88 122 163 232 200l-20 59c-120-40-233-126-272-239l60-20z m221 93c0 0 27-58 59-78 33-19 96-17 96-17 0 0-58-26-78-58-19-33-17-97-17-97 0 0-26 58-59 78-32 20-96 17-96 17 0 0 58 27 78 59 20 33 17 96 17 96z m342 42c0 0-18-39-39-52-22-13-64-11-64-11 0 0 38-18 52-40 13-21 11-64 11-64 0 0 18 39 39 52 22 14 64 12 64 12 0 0-38 17-52 39-13 22-11 64-11 64z" horiz-adv-x="1000" />

<glyph glyph-name="message" unicode="&#xe85a;" d="M138 763c-17 0-33-7-45-19-11-11-18-27-18-44v-709l136 136c7 7 17 11 27 11h600c16 0 32 6 44 18 11 12 18 28 18 44v500c0 17-7 33-18 44-12 12-28 19-44 19h-700z m-98 34c26 26 61 41 98 41h700c36 0 71-15 97-41 26-25 40-60 40-97v-500c0-36-14-71-40-97-26-26-61-40-97-40h-585l-189-190c-11-10-27-13-41-8-14 6-23 20-23 35v800c0 37 15 72 40 97z" horiz-adv-x="1000" />

<glyph glyph-name="money-analysis-service" unicode="&#xe85b;" d="M486 829c9 5 19 5 28 0l459-229c10-5 17-16 17-28 0-11-7-22-17-27l-459-230c-9-4-19-4-28 0l-459 230c-10 5-17 16-17 27 0 12 7 23 17 28l459 229z m-377-257l391-195 391 195-391 196-391-196z m-96-216c8 16 26 22 42 14l445-223 446 223c15 8 33 2 41-14 7-15 1-33-14-41l-459-229c-9-5-19-5-28 0l-459 229c-15 8-21 26-14 41z m0-229c8 15 26 21 42 14l445-223 446 223c15 7 33 1 41-14 7-15 1-34-14-41l-459-230c-9-4-19-4-28 0l-459 230c-15 7-21 26-14 41z" horiz-adv-x="1000" />

<glyph glyph-name="quarter-circle" unicode="&#xe85c;" d="M0-150h991c0 533-438 968-991 1000v-1000z" horiz-adv-x="990" />

<glyph glyph-name="quotation-right" unicode="&#xe85d;" d="M1383 225c0-207-166-375-371-375l-24 0c-55 0-99 45-99 100 0 55 44 100 99 100l24 0c96 0 173 78 173 175l0 25-197 0c-109 0-198 90-198 200l0 200c0 110 89 200 198 200l197 0c109 0 198-90 198-200l0-425z m-790 0c0-207-166-375-371-375l-24 0c-55 0-99 45-99 100 0 55 44 100 99 100l24 0c96 0 173 78 173 175l0 25-197 0c-109 0-198 90-198 200l0 200c0 110 89 200 198 200l197 0c109 0 198-90 198-200l0-425z" horiz-adv-x="1383" />

<glyph glyph-name="quotation-right-small" unicode="&#xe85e;" d="M1163-7c-90-95-224-143-401-143l-64 0 0 176 52 10c87 17 147 51 179 101 17 26 27 57 28 88l-195 0c-17 0-33 7-45 18-12 12-19 28-19 45l0 437c0 69 57 125 127 125l381 0c17 0 33-7 45-18 12-12 19-28 19-44l0-313 0-182c0-7 12-172-107-300z m-1036 857l381 0c17 0 33-7 45-18 12-12 18-28 18-44l0-313 0-182c1-7 13-172-107-300-89-95-224-143-400-143l-64 0 0 176 51 10c87 17 148 51 180 101 17 26 26 57 28 88l-195 0c-17 0-33 7-45 18-12 12-19 28-19 45l0 437c0 69 57 125 127 125z" horiz-adv-x="1270" />

<glyph glyph-name="quotation-small" unicode="&#xe85f;" d="M106 707c88 95 220 143 394 143h63v-176l-50-10c-86-17-146-51-177-100-17-27-27-58-28-89h192c17 0 33-7 44-18 12-12 19-28 19-44v-438c0-69-56-125-125-125h-375c-17 0-33 7-44 18-12 12-19 28-19 44v313l1 182c-1 7-13 172 105 300z m1019-857h-375c-16 0-32 7-44 18-12 12-18 28-18 44v313l0 182c-1 7-13 172 105 300 88 95 221 143 395 143h62v-176l-50-10c-86-17-145-51-177-100-17-27-26-58-28-89h193c16 0 32-7 44-18 11-12 18-28 18-44v-438c0-69-56-125-125-125z" horiz-adv-x="1250" />

<glyph glyph-name="quotation-small-alt" unicode="&#xe860;" d="M1173-7c-90-95-226-143-404-143l-64 0 0 176 51 10c88 17 149 51 181 101 17 26 27 57 28 88l-196 0c-17 0-34 7-46 18-12 12-18 28-18 45l0 437c0 69 57 125 128 125l384 0c17 0 33-7 45-18 12-12 19-28 19-44l0-313 0-182c0-7 12-172-108-300z m-1045 857l384 0c17 0 34-7 46-18 12-12 18-28 18-44l0-313 0-182c1-7 13-172-108-300-90-95-226-143-404-143l-64 0 0 176 52 10c87 17 148 51 181 101 17 26 27 57 28 88l-197 0c-17 0-33 7-45 18-12 12-19 28-19 45l0 437c0 69 57 125 128 125z" horiz-adv-x="1281" />

<glyph glyph-name="review" unicode="&#xe861;" d="M516 850l160-329 356-53-258-256 61-362-319 171-319-171 61 362-258 256 357 53 159 329z" horiz-adv-x="1032" />

<glyph glyph-name="icon-shopbuilderwp-quote" unicode="&#xe862;" d="M299 277l-272 0 0 546 543 0 0-567-189-379-238 0 180 361 19 39-43 0z m795 0l-271 0 0 546 543 0 0-567-189-379-238 0 179 361 20 39-44 0z" horiz-adv-x="1393" />

<glyph glyph-name="rt-chevron-right" unicode="&#xe863;" d="M32 780c25 25 65 25 90 0l385-385c12-12 19-28 19-45 0-17-7-33-19-45l-385-385c-25-25-65-25-90 0-25 25-25 66 0 91l339 339-339 339c-25 25-25 66 0 91z" horiz-adv-x="538" />

<glyph glyph-name="search" unicode="&#xe864;" d="M449 767c-202 0-366-164-366-366 0-202 164-366 366-366 99 0 189 39 254 103 2 2 3 3 4 5 2 1 3 3 5 4 64 66 103 155 103 254 0 202-164 366-366 366z m346-653l193-193c16-16 16-43 0-59-16-16-43-16-59 0l-193 193c-78-64-178-103-287-103-248 0-449 201-449 449 0 248 201 449 449 449 248 0 449-201 449-449 0-109-39-209-103-287z" horiz-adv-x="1000" />

<glyph glyph-name="secure-data-service" unicode="&#xe865;" d="M480 836c6 5 13 8 20 8 65 0 129-13 189-37 60-25 115-62 161-108 46-46 82-100 107-160 25-60 37-124 37-189 0-15-12-28-28-28h-466c-15 0-28 13-28 28v466c0 8 3 15 8 20z m48-49v-409h410c-4 48-14 95-33 140-22 53-54 101-95 142-41 41-89 73-142 95-45 18-92 29-140 32z m-189 2c7-15 0-31-14-37-66-29-123-73-168-129-44-56-75-122-88-193-13-70-8-142 13-211 21-68 59-130 110-180 51-51 113-88 182-109 69-20 141-24 211-10 71 14 136 45 192 90 55 45 99 104 127 169 6 15 22 21 36 15 15-6 21-22 15-36-31-75-80-140-143-191-63-51-137-86-216-102-79-15-161-11-238 12-77 23-148 65-205 122-58 56-100 126-124 203-25 78-30 159-15 239 15 79 49 154 99 217 51 63 116 113 190 145 14 6 30 0 36-14z" horiz-adv-x="1000" />

<glyph glyph-name="security-service" unicode="&#xe866;" d="M468 795c-57 0-112-23-152-62-40-40-63-93-63-149v-164h430v164c0 56-22 109-63 149-40 39-95 62-152 62z m264-375h72c66 0 120-53 120-119v-329c0-66-54-119-120-119h-671c-66 0-121 53-121 119v329c0 66 55 119 121 119h71v164c0 69 28 135 78 184 49 48 116 76 186 76 70 0 137-28 187-76 49-49 77-115 77-184v-164z m-599-49c-40 0-72-32-72-70v-329c0-38 32-70 72-70h671c40 0 71 32 71 70v329c0 38-31 70-71 70h-671z" horiz-adv-x="941" />

<glyph glyph-name="solve-problems" unicode="&#xe867;" d="M322 528c74 74 74 193 0 267-74 73-193 73-267 0-73-74-73-193 0-267 74-74 193-74 267 0z m311 0c74 74 74 193 0 267-73 73-193 73-266 0-74-74-74-193 0-267 73-74 193-74 266 0z m-133-367c104 0 189 85 189 189 0 104-85 189-189 189-104 0-189-85-189-189 0-104 85-189 189-189z m0-311c104 0 189 84 189 189 0 104-85 188-189 188-104 0-189-84-189-188 0-105 85-189 189-189z m445 678c73 74 73 193 0 267-74 73-193 73-267 0-74-74-74-193 0-267 74-74 193-74 267 0z m-756-367c104 0 188 85 188 189 0 104-84 189-188 189-105 0-189-85-189-189 0-104 84-189 189-189z m0-311c104 0 188 84 188 189 0 104-84 188-188 188-105 0-189-84-189-188 0-105 84-189 189-189z m756 367c73 73 73 193 0 266-74 74-193 74-267 0-74-73-74-193 0-266 74-74 193-74 267 0z m0-312c73 74 73 193 0 267-74 74-193 74-267 0-74-74-74-193 0-267 74-73 193-73 267 0z" horiz-adv-x="1000" />

<glyph glyph-name="tax-service" unicode="&#xe868;" d="M147 771c-18 0-35-8-48-20-12-13-19-30-19-47v-708c0-17 7-34 19-47 13-12 30-20 48-20h808c17 0 34 8 47 20 12 13 20 30 20 47v556c0 18-8 35-20 47-13 13-30 20-47 20h-455c-11 0-22 6-28 15l-91 137h-234z m-96 28c25 25 60 40 96 40h252c11 0 22-6 28-15l91-137h437c35 0 70-14 95-39 25-26 40-60 40-96v-556c0-35-15-70-40-95-25-25-60-40-95-40h-808c-36 0-71 15-96 40-25 25-40 60-40 95v708c0 35 15 70 40 95z" horiz-adv-x="1091" />

<glyph glyph-name="arrow_vector" unicode="&#xe869;" d="M1188 375l-474-476v397l-1 158v396l475-475z m-474 79h-714v-158h714v158z" horiz-adv-x="1273" />

<glyph glyph-name="time-data-service" unicode="&#xe86a;" d="M500 791c-16 0-31-7-42-18-11-11-17-26-17-42v-7l0 0c0-18-6-37-16-52-10-16-25-28-42-35-3-1-6-2-8-2-16-6-34-8-51-5-18 4-36 13-49 26l-1 0-2 3c-6 5-12 10-19 13-8 3-15 4-23 4-8 0-16-1-23-4-7-3-14-8-19-13l0 0c-6-6-10-12-13-19-3-8-4-15-4-23 0-8 1-16 4-23 3-7 7-14 13-19l2-3 1 0c13-14 22-31 25-50 4-18 2-37-6-54-7-18-18-33-34-44-15-11-34-18-53-18 0 0 0 0 0 0h-4c-16 0-31-6-42-17-11-12-18-27-18-42 0-16 7-31 18-42 11-11 26-18 42-18h7c19 0 37-5 52-16 16-10 28-24 35-41 8-18 10-37 7-56-4-18-13-36-26-49l0-1-3-2c-5-6-10-12-13-19-3-8-4-15-4-23 0-8 1-16 4-23 3-7 8-14 13-19l0 0c6-6 12-10 20-13 7-3 15-4 22-4 8 0 16 1 23 4 7 3 14 7 19 13l3 2 0 1c14 13 31 22 50 25 18 4 37 2 54-6 18-7 33-18 44-34 11-15 18-34 18-53 0 0 0 0 0 0 0 0 0-1 0-1v-3c0-16 6-31 17-42 12-11 27-18 42-18 16 0 31 7 42 18 12 11 18 26 18 42v7l0 0c0 18 5 37 16 52 10 16 24 28 41 35 18 8 37 10 56 7 19-4 36-13 49-26l1 0 2-3c6-5 12-10 19-13 8-3 15-4 23-4 8 0 16 1 23 4 7 3 14 8 19 13l0 0c6 6 10 12 13 20 3 7 5 15 5 22 0 8-2 16-5 23-3 7-7 14-13 19l-2 3-1 0c-13 14-22 31-25 50-4 18-1 38 6 55 8 17 20 32 35 42 16 10 34 16 52 16l1 0 3 0c16 0 31 6 42 17 11 11 18 26 18 42 0 16-7 31-18 42-11 11-26 17-42 17h-7l0 0c-18 0-37 6-52 16-16 10-28 25-35 42-1 3-2 6-2 8-6 17-8 34-5 51 4 19 13 36 26 49l0 1 3 2c5 6 10 12 13 19 3 8 4 15 4 23 0 8-1 16-4 23-3 7-8 14-13 19l0 0c-6 6-12 10-19 13-8 3-15 5-23 5-8 0-16-2-23-5-7-3-14-7-19-13l-3-2 0-1c-14-13-31-22-50-25-18-4-38-1-55 6-17 8-32 20-42 35-10 16-16 34-16 52l0 1v3c0 16-6 31-17 42-11 11-26 18-42 18z m-78 18c21 21 49 33 78 33 29 0 57-12 78-33 21-20 32-48 32-78v-3c0-9 3-17 8-25 4-7 11-13 19-16l0 0c9-4 18-5 26-3 9 1 17 6 23 12l3 2c0 0 0 0 0 0 10 10 22 18 36 24 13 6 27 8 42 8 14 0 29-2 42-8 13-6 25-14 36-24 10-10 18-22 24-36 5-13 8-27 8-42 0-14-3-29-8-42-6-13-14-26-24-36 0 0 0 0 0 0l-3-2c-6-7-10-15-12-23-1-9 0-18 3-26 2-3 2-5 2-8 4-6 9-11 15-15 7-5 16-8 24-8h7c30 0 58-11 78-32 21-21 33-49 33-78 0-29-12-57-33-78-20-21-48-32-78-32h-3c-9 0-17-3-25-8-7-4-13-11-16-19l0 0c-4-8-5-17-3-26 1-9 6-17 12-23l2-3c10-10 18-22 24-35 6-14 8-28 8-43 0-14-2-29-8-42-6-13-14-25-24-36-10-10-22-18-36-24-13-5-27-8-42-8-14 0-29 3-42 8-13 6-26 14-36 24 0 0 0 0 0 0l-2 3c-7 6-15 10-23 12-9 1-18 0-26-3l0 0c-8-4-15-10-20-17-5-7-7-16-7-24v-7c0-30-12-58-33-78-20-21-48-33-78-33-29 0-57 12-77 33-21 20-33 48-33 78v3c0 9-3 17-8 25-5 7-12 13-21 16 0 0-1 0-1 0-8 4-17 5-26 3-9-1-17-5-23-12l-3-2c-10-10-22-18-35-24-14-6-28-8-43-8-14 0-29 2-42 8-13 6-25 14-36 24-10 10-18 22-24 36-5 13-8 27-8 42 0 14 3 29 8 42 6 13 14 26 24 36 0 0 0 0 0 0l3 2c6 7 10 15 12 23 1 9 0 18-3 26l0 1c-4 8-10 14-17 19-7 5-15 7-24 7h-7c-30 0-58 12-78 33-21 20-32 48-32 78 0 29 11 57 32 78 20 20 48 32 78 32h3c9 0 18 3 25 8 7 5 13 13 16 21 0 0 0 1 0 1 4 9 5 18 3 26-1 9-5 17-12 23l-2 3c0 0 0 0 0 0-10 10-18 22-24 36-5 13-8 27-8 42 0 14 3 29 8 42 6 13 14 26 24 36 10 10 22 18 36 24 13 5 27 8 42 8 14 0 29-3 42-8 13-6 26-14 36-24 0 0 0 0 0 0l2-3c7-6 15-10 23-12 9-1 18 0 26 3 3 2 5 2 8 2 6 4 11 9 15 15 5 7 8 16 8 24v7c0 30 11 58 32 78z m78-357c-56 0-102-46-102-102 0-56 46-102 102-102 56 0 102 46 102 102 0 56-46 102-102 102z m-152-102c0 84 68 153 152 153 84 0 153-69 153-153 0-84-69-152-153-152-84 0-152 68-152 152z" horiz-adv-x="1000" />

<glyph glyph-name="rt-comments" unicode="&#xe86b;" d="M60-140c-5 0-10 0-15 5-15 5-25 20-25 35v800c0 35 15 70 40 95s60 40 95 40h700c35 0 70-15 95-40s40-60 40-95v-500c0-35-15-70-40-95s-60-40-95-40h-580l-190-190c-5-10-15-15-25-15z m100 900c-15 0-35-5-45-20s-20-25-20-40v-710l135 135c5 5 15 10 25 10h600c15 0 35 5 45 20s20 30 20 45v500c0 15-5 35-20 45s-30 20-45 20h-695z" horiz-adv-x="1000" />

<glyph glyph-name="uiux-service" unicode="&#xe86c;" d="M19 831c7 8 18 11 28 8l667-161c11-3 20-12 22-23l58-290 7 6c12 12 31 12 42 0l138-138c12-11 12-30 0-42l-322-322c-11-12-30-12-42 0l-138 138c-12 12-12 31 0 42l6 7-290 58c-11 2-20 11-23 22l-161 667c-3 10 0 21 8 28z m517-724l207 207-62 310-544 132 255-255c18 11 39 17 62 17 67 0 122-55 122-122 0-67-55-122-122-122-67 0-122 55-122 122 0 23 6 44 17 62l-255 255 132-544 310-62z m-126 332c-11-11-18-26-18-43 0-34 28-62 62-62 34 0 62 28 62 62 0 34-28 62-62 62-17 0-32-7-43-18 0 0-1 0-1 0 0 0 0 0 0-1z m132-411l96-96 280 280-96 96-25-25c0 0 0 0 0 0l-230-230c0 0 0 0 0 0l-25-25z" horiz-adv-x="1000" />

<glyph glyph-name="user" unicode="&#xe86d;" d="M450 750c-83 0-150-67-150-150 0-83 67-150 150-150 83 0 150 67 150 150 0 83-67 150-150 150z m-250-150c0 138 112 250 250 250 138 0 250-112 250-250 0-138-112-250-250-250-138 0-250 112-250 250z m-127-423c47 47 111 73 177 73h400c66 0 130-26 177-73 47-47 73-111 73-177v-100c0-28-22-50-50-50-28 0-50 22-50 50v100c0 40-16 78-44 106-28 28-66 44-106 44h-400c-40 0-78-16-106-44-28-28-44-66-44-106v-100c0-28-22-50-50-50-28 0-50 22-50 50v100c0 66 26 130 73 177z" horiz-adv-x="900" />

<glyph glyph-name="user-datalist-feature" unicode="&#xe86e;" d="M502 841c65 0 129-13 189-38 60-25 114-61 160-107 46-45 82-100 107-160 25-59 37-123 37-188 0-272-220-493-493-493-272 0-493 221-493 493 0 131 52 256 145 348 92 93 218 145 348 145z m-229-356c32 40 78 65 128 70 50 5 101-9 140-41 20-16 36-35 48-57 12-22 19-46 22-71 3-25 0-50-7-74-7-24-18-47-34-66-32-40-78-65-128-70-51-6-101 9-140 41-40 32-65 78-70 128-6 50 9 101 41 140z m175-400l253 314 31-284-284-30z" horiz-adv-x="1000" />

<glyph glyph-name="analysis-service" unicode="&#xe86f;" d="M1214 707c-39 0-71 32-71 72 0 39 32 71 71 71h429c39 0 71-32 71-71v-429c0-39-32-71-71-71-40 0-72 32-72 71v256l-556-556c-28-28-73-28-101 0l-307 306-485-485c-28-28-73-28-101 0-28 28-28 73 0 101l536 536c28 28 73 28 101 0l306-307 506 506h-256z" horiz-adv-x="1714" />

<glyph glyph-name="angle-down" unicode="&#xe870;" d="M59 791c46 47 122 47 168 0l630-630 630 630c47 47 122 47 169 0 46-46 46-121 0-168l-715-714c-46-47-122-47-168 0l-714 714c-47 47-47 122 0 168z" horiz-adv-x="1714" />

<glyph glyph-name="application-feature" unicode="&#xe871;" d="M720 131c374-375-814-375-440 0-374-375-374 813 0 439-374 374 814 374 440 0 374 374 374-814 0-439z" horiz-adv-x="1000" />

<glyph glyph-name="apple" unicode="&#xe872;" d="M672-110c-52-53-109-44-164-19-58 25-111 26-172 0-77-35-117-25-163 19-259 280-221 705 74 721 71-4 121-41 163-45 63 14 123 52 190 47 80-7 141-40 181-100-166-104-127-332 26-396-31-84-70-166-136-227l1 0z m-267 724c-8 124 88 226 199 236 15-143-125-250-199-236z" horiz-adv-x="806" />

<glyph glyph-name="app-service" unicode="&#xe873;" d="M407 828c18 10 38 15 58 15 21 0 41-5 58-15 0 0 0-1 1-1l335-188c15-9 28-21 38-35 2-2 3-4 4-6 2-2 2-4 3-6 9-16 13-34 13-53v-378c0-20-5-40-16-58-10-17-25-32-42-42l0 0-335-189c-1 0-1 0-1 0-13-8-29-13-45-14-3-3-8-5-13-5-5 0-9 2-13 5-16 1-31 6-45 14 0 0 0 0 0 0l-335 189 0 0c-18 10-32 25-43 42-10 18-15 38-15 58v378c0 19 4 37 13 53 0 2 1 4 2 6 2 2 3 4 5 6 10 14 23 26 38 35l0 0 335 188c0 0 0 1 0 1z m-349-270c-2-6-3-13-3-19v-378c0-13 4-26 10-37 7-11 16-20 27-27 0 0 0 0 0 0l336-189c5-3 11-5 17-7v436l-387 221z m428-221v-436c6 2 12 4 17 7l0 0 335 189c0 0 0 0 0 0 12 7 21 16 28 27 6 11 10 24 10 37v378c0 6-1 13-3 19l-387-221z m365 256c-4 4-8 7-13 9 0 0 0 0 0 0l-335 189 0 0c-11 7-24 10-38 10-13 0-26-3-37-10l0 0-336-189c0 0 0 0 0 0-4-2-8-5-12-9l385-220 386 220z" horiz-adv-x="931" />

<glyph glyph-name="app-service-alt" unicode="&#xe874;" d="M407 829c18 11 39 16 60 16 21 0 42-5 60-16 0 0 0 0 0 0l327-186c15-9 28-21 38-36 2-2 4-4 6-6 1-3 2-5 2-7 9-17 14-36 14-55l0 0 0-374c0-21-6-42-16-60-11-18-26-33-44-44l0 0-327-187c0 0 0 0 0 0-14-8-29-13-45-15-4-3-9-4-15-4-6 0-11 1-15 4-16 2-31 7-45 15 0 0 0 0 0 0l-327 187 0 0c-18 11-33 26-44 44-10 18-16 39-16 60v374c0 19 5 38 13 55 1 2 2 4 3 7 2 2 4 4 6 6 10 15 23 27 38 36l0 0 155 88c5 7 12 11 20 11l152 87c0 0 0 0 0 0z m-148-145l-152-88c0 0 0 0 0 0-2-1-3-2-5-3l365-211 157 91-365 211z m418-180l155 89c-2 1-3 2-5 3 0 0 0 0 0 0l-327 187 0 0c-10 6-21 9-33 9-12 0-23-3-33-9l0 0-121-69 364-210z m183 44l-366-212v-419c2 1 4 2 6 4l0 0 327 186c0 0 0 1 0 1 10 5 19 14 25 24 5 10 9 22 9 33v374c0 3-1 6-1 9z m-420-631v419l-366 212c0-3-1-6-1-9v-374c0-11 3-23 9-33 6-10 15-19 25-24 0-1 0-1 0-1l327-186c2-2 4-3 6-4z" horiz-adv-x="917" />

<glyph glyph-name="comunication-service" unicode="&#xe875;" d="M354 802c25 24 58 38 93 38h204c35 0 68-14 93-38 25-25 38-59 38-94v-73h175c73 0 131-59 131-131v-512c0-73-58-132-131-132h-816c-72 0-131 59-131 132v512c0 72 59 131 131 131h175v73c0 35 14 69 38 94z m-38-225h-175c-40 0-72-33-72-73v-512c0-41 32-73 72-73h175v658z m59-658h349v658h-349v-658z m407 0h175c40 0 72 32 72 73v512c0 40-32 73-72 73h-175v-658z m-58 716v73c0 20-8 38-22 52-13 14-32 21-51 21h-204c-19 0-38-7-51-21-14-14-21-32-21-52v-73h349z" horiz-adv-x="1098" />

<glyph glyph-name="clock" unicode="&#xe876;" d="M489 771c-233 0-421-189-421-421 0-232 188-420 421-420 232 0 420 188 420 420 0 232-188 421-420 421z m-489-421c0 270 219 489 489 489 270 0 488-219 488-489 0-270-218-489-488-489-270 0-489 219-489 489z m489 307c19 0 34-15 34-34v-252l163-81c17-9 23-29 15-46-8-17-29-24-46-15l-182 91c-11 5-18 17-18 30v273c0 19 15 34 34 34z" horiz-adv-x="1000" />

<glyph glyph-name="comunication-service-alt" unicode="&#xe877;" d="M125 795c-39 0-70-31-70-70v-187c0-39 31-71 70-71h750c39 0 70 32 70 71v187c0 39-31 70-70 70h-750z m-117-70c0 65 52 117 117 117h750c65 0 117-52 117-117v-187c0-65-52-118-117-118h-750c-65 0-117 53-117 118v187z m187-94c0 13 11 24 24 24h0c13 0 24-11 24-24 0-13-11-23-24-23h0c-13 0-24 10-24 23z m-70-398c-39 0-70-32-70-70v-188c0-39 31-70 70-70h750c39 0 70 31 70 70v188c0 38-31 70-70 70h-750z m-117-70c0 64 52 117 117 117h750c65 0 117-53 117-117v-188c0-65-52-117-117-117h-750c-65 0-117 52-117 117v188z m187-94c0 13 11 23 24 23h0c13 0 24-10 24-23 0-13-11-24-24-24h0c-13 0-24 11-24 24z" horiz-adv-x="1000" />

<glyph glyph-name="content-marketing" unicode="&#xe878;" d="M154 741c-12 0-23-5-32-13-8-9-13-20-13-32v-400c0-11 5-23 13-31 9-8 20-13 32-13h44c25 0 45-20 45-45 0-24-20-44-45-44h-44c-36 0-70 14-95 39-25 25-39 59-39 94v400c0 36 14 70 39 95 25 25 59 39 95 39h400c35 0 69-14 94-39 25-25 39-59 39-95v-44c0-25-20-45-44-45-25 0-45 20-45 45v44c0 12-4 23-13 32-8 8-19 13-31 13h-400z m311-311c-25 0-45-20-45-45v-400c0-24 20-44 45-44h400c24 0 44 20 44 44v400c0 25-20 45-44 45h-400z m-133-45c0 74 59 134 133 134h400c74 0 133-60 133-134v-400c0-74-59-133-133-133h-400c-74 0-133 59-133 133v400z" horiz-adv-x="1000" />

<glyph glyph-name="correct" unicode="&#xe879;" d="M1230 778c35-36 35-93 0-129l-728-727c-35-35-93-35-128 0l-331 331c-35 35-35 93 0 128 36 36 93 36 129 0l266-266 663 663c36 35 93 35 129 0z" horiz-adv-x="1273" />

<glyph glyph-name="credit-feature" unicode="&#xe87a;" d="M508 850h-508v-500c280 1 508 224 508 500z m507 0h-507l0-500c280 1 507 224 507 500z m-1015-1000c280 1 508 224 508 500h-508l0-500z m508 0c280 1 507 224 507 500l-507 0v-500z" horiz-adv-x="1015" />

<glyph glyph-name="data-service" unicode="&#xe87b;" d="M83 721c-19-15-24-28-24-38 0-9 5-22 24-37 19-15 48-29 85-42 75-25 179-40 296-40 117 0 221 15 296 40 37 13 66 27 85 42 19 15 24 28 24 37 0 10-5 23-24 38-19 15-48 29-85 41-75 25-179 41-296 41-117 0-221-16-296-41-37-12-66-26-85-41z m786-114c-24-18-57-34-95-47-80-26-190-43-310-43-120 0-230 17-310 43-38 13-71 29-95 47v-257c0-10 5-23 24-37 19-15 47-30 85-42 74-25 179-41 296-41 117 0 222 16 296 41 38 12 66 27 85 42 19 14 24 27 24 37v257z m47 76v-666c0-30-18-55-43-74-24-20-58-36-98-49-80-27-190-43-311-43-121 0-231 16-311 43-40 13-74 29-98 49-25 19-43 44-43 74v666c0 30 18 55 43 74 24 20 58 36 99 49 80 27 190 43 310 43 120 0 230-16 310-43 40-13 75-29 99-49 25-19 43-44 43-74z m-47-410c-24-18-56-33-94-46-80-27-190-43-311-43-121 0-231 16-311 43-38 13-70 28-94 46v-256c0-10 5-23 24-38 19-15 47-29 85-42 74-24 179-40 296-40 117 0 222 16 296 40 38 13 66 27 85 42 19 15 24 28 24 38v256z" horiz-adv-x="926" />

<glyph glyph-name="degital-art" unicode="&#xe87c;" d="M158 756c-17 0-33-7-45-18-12-12-19-27-19-42v-494c0-15 7-31 19-42 12-11 28-18 45-18h52c21 0 39-17 39-39 0-21-18-39-39-39h-52c-37 0-73 14-99 40-27 26-42 61-42 98v494c0 37 15 72 42 98 26 25 62 39 99 39h823c37 0 73-14 99-39 27-26 42-61 42-98v-494c0-37-15-72-42-98-26-26-62-40-99-40h-52c-21 0-39 18-39 39 0 22 18 39 39 39h52c17 0 33 7 45 18 12 11 18 27 18 42v494c0 15-6 30-18 42-12 11-28 18-45 18h-823z m411-515c12 0 22-5 30-14l257-296c10-12 12-28 6-42-7-13-20-22-36-22h-513c-16 0-30 9-36 22-6 14-4 30 6 42l257 296c8 9 18 14 29 14z m-171-297h343l-172 199-171-199z" horiz-adv-x="1139" />

<glyph glyph-name="development-service" unicode="&#xe87d;" d="M142 777h800c37 0 68-31 68-70v-510c0-39-31-70-68-70h-800c-38 0-69 31-69 70v510c0 39 31 70 69 70z m431-713h369c73 0 131 60 131 133v510c0 72-58 133-131 133h-800c-73 0-132-61-132-133v-510c0-73 59-133 132-133h368v-141h-168c-18 0-32-14-32-31 0-18 14-32 32-32h400c17 0 31 14 31 32 0 17-14 31-31 31h-169v141z" horiz-adv-x="1083" />

<glyph glyph-name="digital-marketing-service" unicode="&#xe87e;" d="M64 787c35 34 82 53 132 53 49 0 96-19 131-53 35-34 54-81 54-129v-125h257v125c0 48 20 95 55 129 34 34 82 53 131 53 49 0 96-19 131-53 35-34 55-81 55-129 0-49-20-95-55-130-35-34-82-53-131-53h-128v-250h128c49 0 96-19 131-53 35-34 55-81 55-130 0-48-20-95-55-129-35-34-82-53-131-53-49 0-97 19-131 53-35 34-55 81-55 129v125h-257v-125c0-48-19-95-54-129-35-34-82-53-131-53-50 0-97 19-132 53-35 34-54 81-54 129 0 49 19 96 54 130 35 34 82 53 132 53h128v250h-128c-50 0-97 19-132 53-35 35-54 81-54 130 0 48 19 95 54 129z m260-254v125c0 33-14 64-38 88-24 23-56 37-90 37-35 0-67-14-91-37-24-24-38-55-38-88 0-33 14-65 38-88 24-24 56-37 91-37h128z m57-58v-250h257v250h-257z m-57-308h-128c-35 0-67-13-91-36-24-24-38-56-38-89 0-33 14-64 38-88 24-23 56-37 91-37 34 0 66 14 90 37 24 24 38 55 38 88v125z m372 0v-125c0-33 13-64 37-88 24-23 57-37 91-37 34 0 67 14 91 37 24 24 37 55 37 88 0 33-13 65-37 89-24 23-57 36-91 36h-128z m0 366h128c34 0 67 13 91 37 24 23 37 55 37 88 0 33-13 64-37 88-24 23-57 37-91 37-34 0-67-14-91-37-24-24-37-55-37-88v-125z" horiz-adv-x="1019" />

<glyph glyph-name="download" unicode="&#xe87f;" d="M500 783c-239 0-433-194-433-433 0-239 194-433 433-433 239 0 433 194 433 433 0 239-194 433-433 433z m-490-433c0 271 219 490 490 490 271 0 490-219 490-490 0-271-219-490-490-490-271 0-490 219-490 490z m490 214c16 0 29-13 29-29v-300l135 135c12 12 30 12 41 0 11-11 11-29 0-40l-185-185c-5-5-12-8-20-8-8 0-15 3-20 8l-185 185c-11 11-11 29 0 40 11 12 30 12 41 0l135-135v300c0 16 13 29 29 29z" horiz-adv-x="1000" />

<glyph glyph-name="file" unicode="&#xe880;" d="M56 809c24 24 57 37 90 37h323c9 0 18-3 25-10l323-323c6-6 10-15 10-24v-508c0-34-13-66-37-90-24-24-56-37-90-37h-554c-33 0-66 13-90 37-23 24-37 56-37 90v738c0 34 14 66 37 90z m90-32c-15 0-30-6-41-17-10-11-16-25-16-41v-738c0-16 6-30 16-41 11-11 26-17 41-17h554c15 0 30 6 41 17 11 11 17 25 17 41v473h-289c-19 0-34 15-34 35v288h-289z m358-49v-205h205l-205 205z" horiz-adv-x="846" />

<glyph glyph-name="file-alt" unicode="&#xe881;" d="M366 846l541 0c29 0 57-9 81-24 25-15 44-36 57-62 0 0 0 0 0 0l196-392c3-5 4-12 4-18v-341c0-41-16-80-45-109-29-29-68-45-109-45h-909c-41 0-80 16-109 45-29 29-46 68-46 109v341c0 6 2 13 5 18l196 392c0 0 0 0 0 0 12 26 32 47 57 62 24 15 52 24 81 24z m0-82c-14 0-27-4-38-11-12-7-21-18-27-30l0 0-167-332h275c14 0 27-7 34-18l102-152h183l102 152c7 11 20 18 34 18h274l-166 332 0 0c-6 12-15 23-27 30-11 7-25 11-38 11m257-455h-278l-102-152c-8-11-20-18-34-18h-227c-14 0-27 7-34 18l-102 152h-278v-300c0-19 8-38 21-51 14-14 33-22 52-22h909c19 0 38 8 51 22 14 13 22 32 22 51v300z m-257 455h-541z" horiz-adv-x="1273" />

<glyph glyph-name="filter" unicode="&#xe882;" d="M214 842c22 0 40-18 40-40v-352c0-22-18-40-40-40-22 0-40 18-40 40v352c0 22 18 40 40 40z m401 0c23 0 41-18 41-40v-211h110c22 0 40-18 40-40 0-22-18-40-40-40h-301c-22 0-40 18-40 40 0 22 18 40 40 40h110v211c0 22 18 40 40 40z m402 0c22 0 40-18 40-40v-452c0-22-18-40-40-40-22 0-40 18-40 40v452c0 22 18 40 40 40z m-402-452c23 0 41-18 41-40v-452c0-22-18-40-41-40-22 0-40 18-40 40v452c0 22 18 40 40 40z m-592-140c0 22 18 40 41 40h301c22 0 40-18 40-40 0-22-18-40-40-40h-111v-312c0-22-18-40-40-40-22 0-40 18-40 40v312h-110c-23 0-41 18-41 40z m803-101c0 23 18 41 40 41h301c22 0 40-18 40-41 0-22-18-40-40-40h-110v-211c0-22-18-40-40-40-22 0-40 18-40 40v211h-111c-22 0-40 18-40 40z" horiz-adv-x="1231" />

<glyph glyph-name="parcentege" unicode="&#xe883;" d="M205 725c-44 0-80-36-80-80 0-45 36-81 80-81 45 0 81 36 81 81 0 44-36 80-81 80z m-187-80c0 103 84 187 187 187 104 0 188-84 188-187 0-104-84-188-188-188-103 0-187 84-187 188z m819 118c21 21 55 21 76 0 21-21 21-55 0-76l-750-750c-21-21-55-21-76 0-21 21-21 55 0 76l750 750z m-42-627c-45 0-81-36-81-81 0-44 36-80 81-80 44 0 80 36 80 80 0 45-36 81-80 81z m-188-81c0 104 84 188 188 188 103 0 187-84 187-188 0-103-84-187-187-187-104 0-188 84-188 187z" horiz-adv-x="1000" />

<glyph glyph-name="play" unicode="&#xe884;" d="M846 417c51-30 51-104 0-134l-721-416c-51-30-115 7-115 67l0 832c0 60 64 97 115 67l721-416z" horiz-adv-x="885" />

<glyph glyph-name="savings-feature" unicode="&#xe885;" d="M1071 350c0 66-100 124-250 157 150 33 250 91 250 157 0 103-239 186-535 186-296 0-536-83-536-186 0-66 100-124 251-157-151-33-251-91-251-157 0-66 100-124 251-157-151-33-251-91-251-157 0-103 240-186 536-186 296 0 535 83 535 186 0 66-100 124-250 157 150 33 250 91 250 157z" horiz-adv-x="1071" />

<glyph glyph-name="finance-consulting-feature" unicode="&#xe886;" d="M604 850h-238v-1000h238v1000z m247-145l-851-500 119-210 851 500-119 210z m-732 0l-119-210 851-500 119 210-851 500z m485 145h-238v-1000h238v1000z" horiz-adv-x="970" />

<glyph glyph-name="twitter" unicode="&#xf099;" d="M904 622q-37-54-90-93 0-8 0-23 0-73-21-145t-64-139-103-117-144-82-181-30q-151 0-276 81 19-2 43-2 126 0 224 77-59 1-105 36t-64 89q19-3 34-3 24 0 48 6-63 13-104 62t-41 115v2q38-21 82-23-37 25-59 64t-22 86q0 49 25 91 68-83 164-133t208-55q-5 21-5 41 0 75 53 127t127 53q79 0 132-57 61 12 115 44-21-64-80-100 52 6 104 28z" horiz-adv-x="928.6" />

<glyph glyph-name="facebook" unicode="&#xf09a;" d="M535 843v-147h-87q-48 0-65-20t-17-60v-106h164l-22-165h-142v-424h-171v424h-142v165h142v122q0 104 58 161t155 57q82 0 127-7z" horiz-adv-x="571.4" />

<glyph glyph-name="github-circled" unicode="&#xf09b;" d="M429 779q116 0 215-58t156-156 57-215q0-140-82-252t-211-155q-15-3-22 4t-7 17q0 1 0 43t0 75q0 54-29 79 32 3 57 10t53 22 45 37 30 58 11 84q0 67-44 115 21 51-4 114-16 5-46-6t-51-25l-21-13q-52 15-107 15t-108-15q-8 6-23 15t-47 22-47 7q-25-63-5-114-44-48-44-115 0-47 12-83t29-59 45-37 52-22 57-10q-21-20-27-58-12-5-25-8t-32-3-36 12-31 35q-11 18-27 29t-28 14l-11 1q-12 0-16-2t-3-7 5-8 7-6l4-3q12-6 24-21t18-29l6-13q7-21 24-34t37-17 39-3 31 1l13 3q0-22 0-50t1-30q0-10-8-17t-22-4q-129 43-211 155t-82 252q0 117 58 215t155 156 216 58z m-267-616q2 4-3 7-6 1-8-1-1-4 4-7 5-3 7 1z m18-19q4 3-1 9-6 5-9 2-4-3 1-9 5-6 9-2z m16-25q6 4 0 11-4 7-9 3-5-3 0-10t9-4z m24-23q4 4-2 10-7 7-11 2-5-5 2-11 6-6 11-1z m32-14q1 6-8 9-8 2-10-4t7-9q8-3 11 4z m35-3q0 7-10 6-9 0-9-6 0-7 10-6 9 0 9 6z m32 5q-1 7-10 5-9-1-8-8t10-4 8 7z" horiz-adv-x="857.1" />

<glyph glyph-name="pinterest-circled" unicode="&#xf0d2;" d="M857 350q0-117-57-215t-156-156-215-58q-62 0-122 18 33 52 43 92 6 19 31 118 11-22 40-38t64-16q68 0 121 38t82 105 29 151q0 64-34 120t-96 90-142 36q-59 0-110-17t-86-43-61-61-37-72-12-75q0-58 22-102t66-62q16-7 21 11 1 4 4 17t5 17q3 13-6 24-29 34-29 84 0 84 58 145t153 61q84 0 132-46t47-119q0-95-39-161t-98-67q-34 0-54 25t-13 58q4 19 15 52t17 57 6 43q0 28-15 46t-43 18q-35 0-59-31t-24-80q0-40 14-68l-55-233q-9-39-7-99-115 51-186 157t-71 236q0 117 58 215t155 156 216 58 215-58 156-156 57-215z" horiz-adv-x="857.1" />

<glyph glyph-name="pinterest-squared" unicode="&#xf0d3;" d="M696 779q67 0 114-48t47-113v-536q0-66-47-113t-114-48h-404q47 68 60 118 5 19 30 116 11-21 41-37t63-16q101 0 164 83t64 208q0 47-19 91t-54 77-85 54-110 21q-58 0-109-16t-85-43-60-61-37-71-12-74q0-57 22-101t65-61q7-3 13 0t8 10q6 25 9 35 3 12-7 23-28 35-28 84 0 83 58 143t151 59q83 0 130-45t47-117q0-94-38-160t-97-66q-33 0-54 25t-13 57q5 19 15 52t16 57 6 42q0 27-14 45t-42 18q-34 0-58-31t-24-78q0-40 13-68l-54-231q-14-56-4-142h-102q-67 0-114 48t-47 113v536q0 66 47 113t114 48h535z" horiz-adv-x="857.1" />

<glyph glyph-name="linkedin" unicode="&#xf0e1;" d="M195 501v-553h-184v553h184z m12 171q0-41-29-68t-75-27h-1q-46 0-74 27t-28 68q0 41 29 68t75 27 74-27 29-68z m650-407v-317h-183v296q0 59-23 92t-71 33q-35 0-58-19t-36-48q-6-17-6-45v-309h-184q1 223 1 361t0 165l-1 27h184v-80h-1q11 18 23 31t31 29 49 24 64 9q95 0 153-63t58-186z" horiz-adv-x="857.1" />

<glyph glyph-name="folder-empty" unicode="&#xf114;" d="M857 118v393q0 22-15 38t-38 15h-393q-23 0-38 16t-16 38v36q0 22-15 38t-38 15h-179q-22 0-38-15t-16-38v-536q0-22 16-38t38-16h679q22 0 38 16t15 38z m72 393v-393q0-51-37-88t-88-37h-679q-51 0-88 37t-37 88v536q0 51 37 88t88 37h179q51 0 88-37t37-88v-18h375q51 0 88-37t37-88z" horiz-adv-x="928.6" />

<glyph glyph-name="star-half-alt" unicode="&#xf123;" d="M662 316l143 140-198 29-37 5-17 34-89 179v-537l33-17 178-94-34 198-6 37z m252 146l-202-197 48-279q2-19-4-29t-19-11q-9 0-22 7l-251 132-250-132q-13-7-23-7-12 0-19 11t-3 29l48 279-203 197q-18 18-13 33t30 20l280 40 126 254q11 23 27 23 16 0 28-23l125-254 280-40q25-4 31-20t-14-33z" horiz-adv-x="928.6" />

<glyph glyph-name="youtube" unicode="&#xf167;" d="M542 156v-118q0-37-22-37-13 0-25 12v168q12 12 25 12 22 0 22-37z m189-1v-25h-51v25q0 38 25 38t26-38z m-540 122h60v52h-174v-52h59v-318h55v318z m161-318h50v276h-50v-211q-17-23-32-23-10 0-11 11-1 2-1 20v203h-50v-218q0-28 5-41 7-21 32-21 27 0 57 34v-30z m240 83v110q0 41-5 55-10 31-40 31-28 0-52-30v121h-50v-370h50v27q25-31 52-31 30 0 40 31 5 15 5 56z m188 6v7h-51q0-29-1-34-4-20-22-20-26 0-26 38v49h100v57q0 44-15 65-22 28-59 28-38 0-60-28-15-21-15-65v-96q0-44 16-65 22-29 60-29 40 0 60 30 10 15 12 30 1 5 1 33z m-339 509v117q0 39-24 39t-24-39v-117q0-39 24-39t24 39z m401-419q0-131-14-195-8-33-33-56t-57-25q-102-12-309-12t-310 12q-32 3-57 25t-32 56q-15 62-15 195 0 131 15 195 7 33 32 56t57 26q103 11 310 11t309-11q33-4 58-26t32-56q14-62 14-195z m-557 712h57l-67-223v-151h-56v151q-8 42-34 119-21 57-37 104h60l39-147z m207-186v-97q0-46-16-66-21-29-59-29-37 0-59 29-15 21-15 66v97q0 45 15 66 22 28 59 28 38 0 59-28 16-21 16-66z m187 91v-279h-51v31q-30-35-58-35-25 0-33 21-4 13-4 42v220h51v-205q0-19 0-20 2-12 12-12 15 0 32 24v213h51z" horiz-adv-x="857.1" />

<glyph glyph-name="youtube-play" unicode="&#xf16a;" d="M397 221l270 139-270 141v-280z m103 481q94 0 181-3t128-5l41-2q0 0 9-1t13-2 13-2 16-5 16-7 17-11 16-15q4-3 9-10t16-33 15-56q4-36 7-76t3-64v-98q1-81-10-162-4-30-14-55t-18-35l-8-9q-7-8-16-15t-17-10-16-7-16-5-13-2-13-2-9-1q-140-11-350-11-115 2-201 4t-111 4l-28 3-20 2q-20 3-30 5t-29 12-31 23q-4 3-9 10t-16 33-15 56q-4 36-7 76t-3 64v98q-1 81 10 162 4 31 14 55t18 35l8 9q8 9 16 15t17 11 16 7 16 5 13 2 13 2 9 1q140 10 350 10z" horiz-adv-x="1000" />

<glyph glyph-name="instagram" unicode="&#xf16d;" d="M571 350q0 59-41 101t-101 42-101-42-42-101 42-101 101-42 101 42 41 101z m77 0q0-91-64-156t-155-64-156 64-64 156 64 156 156 64 155-64 64-156z m61 229q0-21-15-36t-37-15-36 15-15 36 15 36 36 15 37-15 15-36z m-280 123q-4 0-43 0t-59 0-54-2-57-5-40-11q-28-11-49-32t-33-49q-6-16-10-40t-6-58-1-53 0-59 0-43 0-43 0-59 1-53 6-58 10-40q12-28 33-49t49-32q16-6 40-11t57-5 54-2 59 0 43 0 42 0 59 0 54 2 58 5 39 11q28 11 50 32t32 49q6 16 10 40t6 58 1 53 0 59 0 43 0 43 0 59-1 53-6 58-10 40q-11 28-32 49t-50 32q-16 6-39 11t-58 5-54 2-59 0-42 0z m428-352q0-128-3-177-5-116-69-180t-179-69q-50-3-177-3t-177 3q-116 6-180 69t-69 180q-3 49-3 177t3 177q5 116 69 180t180 69q49 3 177 3t177-3q116-6 179-69t69-180q3-49 3-177z" horiz-adv-x="857.1" />

<glyph glyph-name="skype" unicode="&#xf17e;" d="M655 257q0 28-11 51t-27 38-41 27-46 19-49 13l-58 14q-17 4-25 6t-19 6-17 9-9 12-4 16q0 43 80 43 24 0 43-6t30-16 21-19 23-16 27-7q26 0 42 18t16 43q0 31-32 55t-79 38-101 13q-38 0-74-9t-67-26-49-48-19-72q0-34 10-60t32-42 44-27 58-18l81-20q51-12 63-20 18-11 18-34 0-21-23-36t-58-14q-29 0-51 9t-37 22-25 25-26 21-30 9q-28 0-42-17t-14-41q0-52 68-88t162-37q41 0 78 10t69 30 49 52 19 74z m202-121q0-89-63-152t-151-63q-73 0-131 45-43-9-83-9-80 0-153 31t-126 84-83 125-31 153q0 41 9 84-45 58-45 130 0 89 63 152t151 63q73 0 131-45 43 9 84 9 79 0 152-31t126-84 84-125 30-153q0-41-8-84 44-58 44-130z" horiz-adv-x="857.1" />

<glyph glyph-name="vimeo-squared" unicode="&#xf194;" d="M721 494q6 121-90 124-129 4-174-146 25 11 46 11 47 0 41-54-2-32-41-93t-59-61q-24 0-46 94-7 30-25 142-16 106-89 99-33-4-91-56l-46-40-45-40 29-37q43 29 49 29 32 0 59-100 9-31 26-92t25-92q38-100 91-100 88 0 214 164 123 158 126 248z m136 124v-536q0-66-47-113t-114-48h-535q-67 0-114 48t-47 113v536q0 66 47 113t114 48h535q67 0 114-48t47-113z" horiz-adv-x="857.1" />

<glyph glyph-name="vine" unicode="&#xf1ca;" d="M835 389v-111q-56-13-110-13-36-76-92-151t-102-120-71-60q-45-25-91 2-15 9-33 24t-48 47-57 72-60 102-59 136-51 176-39 218h158q14-122 39-223t58-177 68-131 78-109q94 94 160 227-79 40-124 122t-45 186q0 107 58 176t158 68q99 0 152-59t53-166q0-89-32-159-4-1-11-2t-25-1-36 3-34 14-28 29q17 58 17 103 0 48-16 73t-44 26q-30 0-48-28t-18-78q0-104 59-164t149-60q35 0 67 8z" horiz-adv-x="857.1" />

<glyph glyph-name="pinterest" unicode="&#xf231;" d="M0 517q0 60 21 113t58 93 85 69 103 44 113 14q88 0 164-37t123-108 47-160q0-54-10-105t-34-99-56-83-80-58-106-21q-38 0-75 18t-54 49q-5-22-15-63t-14-53-11-40-15-39-17-35-26-44-35-48l-7-3-5 6q-9 88-9 105 0 51 12 115t37 161 29 113q-18 36-18 94 0 47 29 87t74 41q34 0 53-23t19-57q0-37-24-106t-25-105q0-35 25-58t61-23q31 0 57 14t44 38 31 53 21 61 11 62 4 56q0 96-61 150t-160 54q-111 0-186-72t-75-183q0-25 7-48t15-36 15-26 7-17q0-15-8-40t-21-25q-1 0-9 1-29 9-51 31t-34 53-18 60-6 60z" horiz-adv-x="714.3" />

<glyph glyph-name="whatsapp" unicode="&#xf232;" d="M550 307q7 0 54-25t50-30q1-2 1-8 0-18-9-42-9-22-40-37t-57-15q-32 0-106 35-55 25-95 66t-82 103q-41 60-40 108v5q2 50 41 88 14 12 29 12 4 0 10-1t11-1q11 0 15-3t8-16q5-11 19-49t14-41q0-12-19-33t-20-26q0-3 3-8 19-41 57-76 31-30 84-57 7-4 13-4 8 0 30 27t29 28z m-114-296q71 0 136 28t112 74 75 112 28 136-28 136-75 112-112 75-136 28-135-28-112-75-75-112-28-136q0-113 67-205l-44-130 135 43q88-58 192-58z m0 771q86 0 164-34t134-89 90-135 33-163-33-163-90-134-134-90-164-34q-108 0-203 53l-233-75 76 226q-60 99-60 217 0 86 33 163t90 135 134 89 163 34z" horiz-adv-x="857.1" />

<glyph glyph-name="envelope-open-o" unicode="&#xf2b7;" d="M823 341l21-29q5-6 4-13t-6-11q-24-19-71-55t-82-63-37-29q-22-18-34-27t-33-23-43-20-41-7h-2q-20 0-41 7t-42 20-34 23-34 27q-3 2-36 28t-80 62-68 53q-7 4-7 11t3 13l21 29q4 6 12 7t14-3q52-41 170-132 3-2 25-20t33-26 32-18 32-9h2q13 0 32 9t32 18 34 26 24 20q144 110 174 135 7 4 14 4t12-7z m106-402v518q-51 47-89 78-51 41-217 169-2 2-24 20t-34 27-31 18-33 10h-2q-13 0-32-10t-32-18-34-27-24-20q-120-92-176-137t-72-58-46-41q-8-7-12-11v-518q0-7 6-12t12-6h822q7 0 12 6t6 12z m71 518v-518q0-37-26-63t-63-26h-822q-36 0-63 26t-26 63v518q0 31 23 53 69 63 195 162t130 101q20 17 33 27t35 23 42 20 41 7h2q20 0 41-7t43-20 34-23 33-27q24-20 87-68t126-99 112-96q23-22 23-53z" horiz-adv-x="1000" />

</font>
</defs>
</svg>
